<?xml version="1.0" encoding="iso-8859-1"?>
<!-- Generator: Adobe Illustrator 17.1.0, SVG Export Plug-In . SVG Version: 6.00 Build 0)  -->
<!DOCTYPE svg PUBLIC "-//W3C//DTD SVG 1.1//EN" "http://www.w3.org/Graphics/SVG/1.1/DTD/svg11.dtd">
<svg version="1.1" id="Capa_1" xmlns="http://www.w3.org/2000/svg" xmlns:xlink="http://www.w3.org/1999/xlink" x="0px" y="0px"
	 viewBox="0 0 439.454 439.454" style="enable-background:new 0 0 439.454 439.454;" xml:space="preserve">
<path d="M430.545,203.161L363.217,163.1c-8.306-4.94-19.046-2.216-23.987,6.091c-4.942,8.306-2.215,19.045,6.091,23.987
	l15.208,9.049H127.349v-2.098c0-8.284-6.716-15-15-15c-4.449,0-8.434,1.948-11.181,5.026l-30.692-31.996
	c-1.757-1.831-3.538-2.721-5.445-2.721c-1.71,0-3.302,0.763-4.367,2.092c-1.292,1.61-1.645,3.781-1.049,6.451l4.063,18.234
	L40.602,158.16c-1.757-1.831-3.538-2.722-5.445-2.722c-1.71,0-3.302,0.763-4.367,2.092c-1.292,1.61-1.645,3.781-1.049,6.451
	l4.063,18.234L10.728,158.16c-1.138-1.186-2.929-2.763-5.348-2.763c-1.756,0-3.397,0.858-4.391,2.296
	c-1.809,2.618-0.669,5.631-0.24,6.765l20.835,55.142c0.016,0.043,0.038,0.085,0.055,0.128c-0.017,0.043-0.038,0.084-0.054,0.126
	L0.75,274.996c-0.429,1.135-1.568,4.147,0.24,6.765c0.993,1.438,2.634,2.296,4.391,2.297c2.419,0,4.21-1.577,5.348-2.763
	l23.076-24.056l-4.063,18.235c-0.596,2.67-0.243,4.84,1.049,6.451c1.064,1.329,2.656,2.092,4.366,2.092c0.001,0,0.001,0,0.001,0
	c1.907,0,3.688-0.891,5.445-2.722l23.076-24.056l-4.063,18.235c-0.596,2.67-0.243,4.84,1.049,6.451
	c1.064,1.329,2.656,2.092,4.367,2.092c1.907,0,3.688-0.89,5.446-2.722l30.691-31.995c2.747,3.077,6.732,5.025,11.181,5.025
	c8.284,0,15-6.716,15-15v-2.098h232.446l-14.799,9.247c-8.197,5.121-10.69,15.917-5.568,24.113c3.319,5.313,9.022,8.23,14.857,8.229
	c3.167,0,6.373-0.859,9.256-2.661l67.34-42.073c5.437-3.396,8.642-9.212,8.572-15.556
	C439.385,212.183,436.054,206.439,430.545,203.161z"/>
<g>
</g>
<g>
</g>
<g>
</g>
<g>
</g>
<g>
</g>
<g>
</g>
<g>
</g>
<g>
</g>
<g>
</g>
<g>
</g>
<g>
</g>
<g>
</g>
<g>
</g>
<g>
</g>
<g>
</g>
</svg>
