<?xml version="1.0" encoding="iso-8859-1"?>
<!-- Generator: Adobe Illustrator 19.0.0, SVG Export Plug-In . SVG Version: 6.00 Build 0)  -->
<svg version="1.1" id="Capa_1" xmlns="http://www.w3.org/2000/svg" xmlns:xlink="http://www.w3.org/1999/xlink" x="0px" y="0px"
	 viewBox="0 0 490 490" style="enable-background:new 0 0 490 490;" xml:space="preserve">
<g>
	<g>
		<path d="M239.165,374.266v-19.41c-11.145-0.186-22.674-3.649-29.401-8.452l4.611-12.876c6.919,4.611,16.91,8.266,27.676,8.266
			c13.639,0,22.867-7.881,22.867-18.833c0-10.574-7.496-17.108-21.713-22.873c-19.603-7.682-31.71-16.525-31.71-33.242
			c0-15.954,11.337-28.061,29.017-30.94v-19.41h11.914v18.641c11.53,0.385,19.411,3.456,24.983,6.727l-4.803,12.684
			c-4.04-2.308-11.914-6.534-24.214-6.534c-14.8,0-20.372,8.837-20.372,16.525c0,9.997,7.111,14.992,23.829,21.911
			c19.795,8.067,29.786,18.064,29.786,35.166c0,15.178-10.568,29.401-30.363,32.672v19.981H239.165z"/>
	</g>
	<g>
		<g>
			<path d="M490,172.042H0L245,7.805L490,172.042z M50.138,156.789h389.724L245,26.156L50.138,156.789z"/>
		</g>
		<g>
			<path d="M489.047,482.195H0.953v-61.339h488.093V482.195z M16.206,466.942h457.587v-30.834H16.206V466.942z"/>
		</g>
		<g>
			<path d="M110.584,393.537H49.259V197.156h61.325V393.537z M64.512,378.284h30.819V212.409H64.512V378.284z"/>
		</g>
		<g>
			<path d="M182.007,393.537h-61.339V197.156h61.339V393.537z M135.921,378.284h30.833V212.409h-30.833V378.284z"/>
		</g>
		<g>
			<path d="M369.332,393.537h-61.339V197.156h61.339V393.537z M323.246,378.284h30.833V212.409h-30.833V378.284z"/>
		</g>
		<g>
			<path d="M440.741,393.537h-61.324V197.156h61.324V393.537z M394.669,378.284h30.819V212.409h-30.819V378.284z"/>
		</g>
	</g>
	<g>
		<path d="M163.194,99.174h13.659c6.211,0,10.725,0.894,13.54,2.651c2.8,1.772,4.215,4.588,4.215,8.446
			c0,2.622-0.626,4.767-1.847,6.45c-1.236,1.683-2.86,2.696-4.901,3.039v0.298c2.771,0.611,4.781,1.773,6.003,3.471
			c1.236,1.698,1.847,3.962,1.847,6.777c0,4.007-1.445,7.12-4.335,9.354c-2.89,2.249-6.807,3.367-11.768,3.367h-16.415V99.174z
			 M172.504,116.542h5.392c2.517,0,4.349-0.387,5.482-1.162c1.117-0.789,1.683-2.07,1.683-3.873c0-1.683-0.611-2.89-1.832-3.619
			c-1.236-0.73-3.188-1.087-5.839-1.087h-4.886V116.542z M172.504,123.915v11.44h6.048c2.562,0,4.454-0.492,5.675-1.475
			c1.221-0.983,1.832-2.488,1.832-4.498c0-3.634-2.607-5.467-7.805-5.467H172.504z"/>
		<path d="M231.326,143.026l-3.188-10.442h-15.983l-3.173,10.442h-10.025l15.476-44.031H225.8l15.536,44.031H231.326z
			 M225.919,124.794c-2.935-9.458-4.588-14.806-4.96-16.042c-0.372-1.251-0.641-2.219-0.789-2.949
			c-0.67,2.562-2.562,8.893-5.675,18.992H225.919z"/>
		<path d="M285.754,143.026h-11.812l-19.081-33.172h-0.268c0.372,5.854,0.566,10.04,0.566,12.542v20.63h-8.312V99.174h11.738
			l19.036,32.845h0.208c-0.298-5.705-0.447-9.727-0.447-12.08V99.174h8.371V143.026z"/>
		<path d="M332.049,143.026h-10.546l-11.499-18.47l-3.917,2.815v15.655h-9.31V99.174h9.31v20.064l3.649-5.154l11.887-14.91h10.308
			l-15.298,19.409L332.049,143.026z"/>
	</g>
</g>
<g>
</g>
<g>
</g>
<g>
</g>
<g>
</g>
<g>
</g>
<g>
</g>
<g>
</g>
<g>
</g>
<g>
</g>
<g>
</g>
<g>
</g>
<g>
</g>
<g>
</g>
<g>
</g>
<g>
</g>
</svg>
