<?xml version="1.0" encoding="iso-8859-1"?>
<!-- Generator: Adobe Illustrator 18.0.0, SVG Export Plug-In . SVG Version: 6.00 Build 0)  -->
<!DOCTYPE svg PUBLIC "-//W3C//DTD SVG 1.1//EN" "http://www.w3.org/Graphics/SVG/1.1/DTD/svg11.dtd">
<svg version="1.1" id="Capa_1" xmlns="http://www.w3.org/2000/svg" xmlns:xlink="http://www.w3.org/1999/xlink" x="0px" y="0px"
	 viewBox="0 0 297 297" style="enable-background:new 0 0 297 297;" xml:space="preserve">
<g>
	<path d="M145.287,55.942H78.1c-5.621,0-10.18,4.559-10.18,10.181v54.336c0,5.622,4.559,10.18,10.18,10.18h67.187
		c5.622,0,10.18-4.558,10.18-10.18V66.123C155.467,60.501,150.909,55.942,145.287,55.942z M135.107,110.278H88.28V76.303h46.827
		V110.278z"/>
	<path d="M263.406,145.08V98.572c0-21.33-17.354-38.684-38.684-38.684h-28.504V25.37c0-5.621-4.558-10.18-10.18-10.18H23.763
		c-5.621,0-10.18,4.559-10.18,10.18v16.988H10.18C4.558,42.358,0,46.916,0,52.538s4.558,10.18,10.18,10.18h3.403v6.809H10.18
		C4.558,69.526,0,74.085,0,79.706c0,5.622,4.558,10.181,10.18,10.181h3.403v6.809H10.18c-5.622,0-10.18,4.558-10.18,10.18
		s4.558,10.18,10.18,10.18h3.403v6.808H10.18c-5.622,0-10.18,4.559-10.18,10.18c0,5.622,4.558,10.181,10.18,10.181h3.403v6.809
		H10.18c-5.622,0-10.18,4.558-10.18,10.18c0,5.622,4.558,10.18,10.18,10.18h3.403v6.809H10.18C4.558,178.199,0,182.758,0,188.38
		c0,5.621,4.558,10.18,10.18,10.18h3.403v6.808H10.18c-5.622,0-10.18,4.558-10.18,10.18c0,5.622,4.558,10.18,10.18,10.18h3.403
		v16.989c0,5.621,4.559,10.18,10.18,10.18h162.276c5.622,0,10.18-4.559,10.18-10.18V80.248h28.504
		c10.104,0,18.323,8.221,18.323,18.324v46.508c-19.241,4.603-33.593,21.935-33.593,42.565v50.391
		c0,24.137,19.637,43.773,43.773,43.773c24.136,0,43.773-19.637,43.773-43.773v-50.391C297,167.015,282.647,149.683,263.406,145.08z
		 M175.859,232.535H33.943v-6.809h3.404c5.622,0,10.18-4.558,10.18-10.18c0-5.622-4.558-10.18-10.18-10.18h-3.404v-6.808h3.404
		c5.622,0,10.18-4.559,10.18-10.18c0-5.622-4.558-10.181-10.18-10.181h-3.404v-6.809h3.404c5.622,0,10.18-4.558,10.18-10.18
		c0-5.622-4.558-10.18-10.18-10.18h-3.404v-6.809h3.404c5.622,0,10.18-4.559,10.18-10.181c0-5.621-4.558-10.18-10.18-10.18h-3.404
		v-6.808h3.404c5.622,0,10.18-4.558,10.18-10.18s-4.558-10.18-10.18-10.18h-3.404v-6.809h3.404c5.622,0,10.18-4.559,10.18-10.181
		c0-5.621-4.558-10.18-10.18-10.18h-3.404v-6.809h3.404c5.622,0,10.18-4.558,10.18-10.18s-4.558-10.18-10.18-10.18h-3.404v-6.808
		h141.916V232.535z M276.64,187.645v6.617h-14.761v-28.366C270.517,169.346,276.64,177.791,276.64,187.645z M244.573,165.896v28.366
		h-14.761v-6.617C229.812,177.791,235.935,169.346,244.573,165.896z M253.227,261.45c-12.911,0-23.414-10.504-23.414-23.414v-23.414
		h46.827v23.414C276.64,250.946,266.137,261.45,253.227,261.45z"/>
</g>
<g>
</g>
<g>
</g>
<g>
</g>
<g>
</g>
<g>
</g>
<g>
</g>
<g>
</g>
<g>
</g>
<g>
</g>
<g>
</g>
<g>
</g>
<g>
</g>
<g>
</g>
<g>
</g>
<g>
</g>
</svg>
