<?xml version="1.0" encoding="iso-8859-1"?>
<!-- Generator: Adobe Illustrator 19.0.0, SVG Export Plug-In . SVG Version: 6.00 Build 0)  -->
<svg version="1.1" id="Layer_1" xmlns="http://www.w3.org/2000/svg" xmlns:xlink="http://www.w3.org/1999/xlink" x="0px" y="0px"
	 viewBox="0 0 496 496" style="enable-background:new 0 0 496 496;" xml:space="preserve">
<g>
	<g>
		<g>
			<path d="M64,0C28.712,0,0,28.712,0,64c0,35.288,28.712,64,64,64s64-28.712,64-64S99.288,0,64,0z M64,112
				c-26.472,0-48-21.528-48-48s21.528-48,48-48s48,21.528,48,48S90.472,112,64,112z"/>
			<path d="M72,32.408V24H56v8.408C46.88,34.264,40,42.336,40,52c0,11.032,8.968,20,20,20h8c2.2,0,4,1.8,4,4s-1.8,4-4,4h-8
				c-2.2,0-4-1.8-4-4v-4H40v4c0,9.664,6.88,17.736,16,19.592V104h16v-8.408C81.12,93.736,88,85.656,88,76c0-11.032-8.968-20-20-20
				h-8c-2.2,0-4-1.8-4-4s1.8-4,4-4h8c2.2,0,4,1.8,4,4v4h16v-4C88,42.336,81.12,34.264,72,32.408z"/>
			<path d="M408,160c-11.736,0-22.872,3.264-32.768,9.232c-3.616-3.696-8.2-6.368-13.288-7.864l13.088-13.088
				c5.784-5.776,8.968-13.472,8.968-21.656c0-14.6-10.296-26.816-24-29.856V56c0-13.232-10.768-24-24-24H192
				c-13.232,0-24,10.768-24,24v166.408c-5.224-3.656-11.368-6.008-18.08-6.36c-9.896-0.456-19.472,2.976-26.704,9.84
				C116.088,232.656,112,242.168,112,252v76.616c0,27.48,12.304,53.08,33.752,70.232L152,403.84V496h16v-99.84l-12.248-9.808
				C138.12,372.248,128,351.2,128,328.616V252c0-5.536,2.208-10.696,6.232-14.504c4.016-3.816,9.296-5.84,14.848-5.464
				c10.432,0.544,18.92,10.216,18.92,21.552V296v32c0,13.232,10.768,24,24,24h115.888c5.208,9.48,15.176,16,26.736,16
				c0.464,0,0.912-0.112,1.376-0.136v14.2c0,19.752-7.688,38.312-21.656,52.28L312,436.688V496h16v-52.776
				c15.504-16.68,24-38.272,24-61.168v-19.512c1.504-1.048,2.96-2.192,4.28-3.52l18.752-18.752
				c5.784-5.768,8.968-13.464,8.968-21.648c0-13.888-9.36-25.52-22.056-29.256l11.552-11.552C383.744,284.392,395.728,288,408,288
				c35.288,0,64-28.712,64-64C472,188.712,443.288,160,408,160z M368,190.624c0,3.848-1.56,7.624-4.28,10.344l-18.752,18.752
				c-2.72,2.72-6.488,4.28-10.344,4.28C326.56,224,320,217.44,320,209.376c0-3.848,1.56-7.624,4.28-10.344l18.752-18.752
				c2.72-2.72,6.488-4.28,10.344-4.28C361.44,176,368,182.56,368,190.624z M353.376,112c8.064,0,14.624,6.56,14.624,14.624
				c0,3.848-1.56,7.624-4.28,10.344l-18.752,18.752c-2.72,2.72-6.488,4.28-10.344,4.28C326.56,160,320,153.44,320,145.376
				c0-3.848,1.56-7.624,4.28-10.344l18.752-18.752C345.752,113.56,349.52,112,353.376,112z M184,56c0-4.416,3.584-8,8-8h144
				c4.416,0,8,3.584,8,8v8H184V56z M184,253.584V80h160v17.608c-4.568,1.472-8.792,3.88-12.28,7.368l-18.752,18.752
				c-5.448,5.44-8.488,12.616-8.832,20.272H296v-32h-16v32h-32v-32h-16v32h-32v64c0,17.648,14.352,32,32,32h64
				c7.192,0,14.056-2.488,19.608-6.816c3.072,2.456,6.592,4.304,10.456,5.44l-13.088,13.088c-5.792,5.792-8.976,13.48-8.976,21.664
				c0,8.992,3.976,17.016,10.168,22.624H184V253.584z M306.104,220.296C303.272,222.632,299.728,224,296,224h-64
				c-8.824,0-16-7.176-16-16v-48h16v16h16v-16h32v16h16v-16h11.888c1.16,2.104,2.512,4.064,4.112,5.832v23.064
				c-5.104,5.64-8,12.816-8,20.48C304,213.232,304.792,216.896,306.104,220.296z M312.968,315.72
				c-5.448,5.448-8.488,12.624-8.832,20.28H192c-4.416,0-8-3.584-8-8v-16h132.688L312.968,315.72z M368,318.624
				c0,3.848-1.56,7.624-4.28,10.344l-18.752,18.752c-2.72,2.72-6.488,4.28-10.344,4.28C326.56,352,320,345.44,320,337.376
				c0-3.848,1.56-7.624,4.28-10.344l18.752-18.752c2.72-2.72,6.488-4.28,10.344-4.28C361.44,304,368,310.56,368,318.624z
				 M363.72,264.968l-18.752,18.752c-2.72,2.72-6.488,4.28-10.344,4.28C326.56,288,320,281.44,320,273.376
				c0-3.848,1.56-7.624,4.28-10.344l18.752-18.752c2.72-2.72,6.488-4.28,10.344-4.28c8.064,0,14.624,6.56,14.624,14.624
				C368,258.472,366.44,262.248,363.72,264.968z M408,272c-9.16,0-18.048-2.768-25.712-7.648c1.04-3.104,1.712-6.352,1.712-9.728
				c0-13.888-9.36-25.52-22.056-29.256l13.088-13.088c5.784-5.776,8.968-13.472,8.968-21.656c0-2.568-0.408-5.016-1.008-7.4
				C390.528,178.56,399.032,176,408,176c26.472,0,48,21.528,48,48S434.472,272,408,272z"/>
			<path d="M416,192.408V184h-16v8.408c-9.12,1.856-16,9.936-16,19.592c0,11.032,8.968,20,20,20h8c2.2,0,4,1.8,4,4s-1.8,4-4,4h-8
				c-2.2,0-4-1.8-4-4v-4h-16v4c0,9.664,6.88,17.736,16,19.592V264h16v-8.408c9.12-1.856,16-9.936,16-19.592c0-11.032-8.968-20-20-20
				h-8c-2.2,0-4-1.8-4-4s1.8-4,4-4h8c2.2,0,4,1.8,4,4v4h16v-4C432,202.336,425.12,194.264,416,192.408z"/>
			<rect x="56" y="192" width="16" height="16"/>
			<rect x="33.361" y="201.366" transform="matrix(0.7071 0.7071 -0.7071 0.7071 160.1581 32.0751)" width="16" height="16"/>
			<rect x="24" y="224" width="16" height="16"/>
			<rect x="33.375" y="246.62" transform="matrix(-0.7071 -0.7071 0.7071 -0.7071 -109.4114 463.9196)" width="16" height="16"/>
			<rect x="56" y="256" width="16" height="16"/>
			<rect x="78.618" y="246.625" transform="matrix(-0.7071 -0.7071 0.7071 -0.7071 -32.1807 495.92)" width="16" height="16"/>
			<rect x="88" y="224" width="16" height="16"/>
			<rect x="78.612" y="201.363" transform="matrix(0.7071 0.7071 -0.7071 0.7071 173.4098 0.077)" width="16" height="16"/>
			<rect x="448" width="16" height="16"/>
			<rect x="425.365" y="9.386" transform="matrix(0.7071 0.7071 -0.7071 0.7071 139.2232 -301.3432)" width="16" height="16"/>
			<rect x="416" y="32" width="16" height="16"/>
			<rect x="425.36" y="54.637" transform="matrix(-0.7071 -0.7071 0.7071 -0.7071 695.5008 413.3591)" width="16" height="16"/>
			<rect x="448" y="64" width="16" height="16"/>
			<rect x="470.622" y="54.631" transform="matrix(-0.7071 -0.7071 0.7071 -0.7071 772.7726 445.3538)" width="16" height="16"/>
			<rect x="480" y="32" width="16" height="16"/>
			<rect x="470.619" y="9.38" transform="matrix(0.7071 0.7071 -0.7071 0.7071 152.4735 -333.3445)" width="16" height="16"/>
		</g>
	</g>
</g>
<g>
</g>
<g>
</g>
<g>
</g>
<g>
</g>
<g>
</g>
<g>
</g>
<g>
</g>
<g>
</g>
<g>
</g>
<g>
</g>
<g>
</g>
<g>
</g>
<g>
</g>
<g>
</g>
<g>
</g>
</svg>
