<?xml version="1.0" encoding="iso-8859-1"?>
<!-- Generator: Adobe Illustrator 16.0.0, SVG Export Plug-In . SVG Version: 6.00 Build 0)  -->
<!DOCTYPE svg PUBLIC "-//W3C//DTD SVG 1.1//EN" "http://www.w3.org/Graphics/SVG/1.1/DTD/svg11.dtd">
<svg version="1.1" id="Capa_1" xmlns="http://www.w3.org/2000/svg" xmlns:xlink="http://www.w3.org/1999/xlink" x="0px" y="0px"
	 width="782.578px" height="782.578px" viewBox="0 0 782.578 782.578" style="enable-background:new 0 0 782.578 782.578;"
	 xml:space="preserve">
<g>
	<path d="M672.197,521.342v-10.314v-15.48v-0.66l-38.225-71.604h40.158v-41.629L577.998,264.14
		c-12.705,12.062-27.455,21.452-43.887,27.47l15.746,50.734l-37.484,16.854c-33.736,15.182-64.713,21.368-106.924,21.368
		c-85.098,0-154.154-49.246-182.389-122.397h-6.38L124.763,403c-15.72,12.785-25.995,32.051-25.995,53.848
		c0,38.172,30.889,69.209,68.985,69.59c-25.633,10.299-43.829,35.299-43.829,64.564c0,21.26,9.768,40.08,24.825,52.871
		c-35.505,3.156-63.526,32.729-63.526,69.041c0,38.416,31.25,69.664,69.664,69.664h15.48h425.071H626.4h32.252v-30.961H626.4
		v-77.406h32.252v-13.545h15.479h23.225v-30.963h-23.225v-77.4h23.225v-30.957h-23.225h-1.934V521.342L672.197,521.342z
		 M129.732,456.846c0-14.438,8.027-26.906,19.774-33.562h461.412v72.262H168.434C147.095,495.547,129.732,478.18,129.732,456.846z
		 M595.438,751.617h-425.07h-15.48c-21.339,0-38.703-17.354-38.703-38.703c0-21.348,17.363-38.703,38.703-38.703h15.48h425.07
		V751.617z M643.172,629.703H209.071h-15.48c-21.339,0-38.703-17.354-38.703-38.701c0-21.344,17.363-38.703,38.703-38.703h15.48
		h434.101V629.703z"/>
	<path d="M500.529,90.739c-12.006-6.729-36.027-12.003-57.131-12.003c-69.143,0-112.349,53.29-112.349,111.855
		c0,39.368,22.556,62.405,53.774,62.405c25.444,0,47.045-12.483,61.93-36.962h0.959c2.381,25.442,18.727,36.962,41.279,36.962
		c51.863,0,91.223-44.159,91.223-114.259C580.215,58.086,519.719,0,435.217,0C326.725,0,255.679,84.979,255.679,182.896
		c0,94.125,70.086,151.226,149.771,151.226c34.092,0,59.053-4.311,87.867-17.268l-8.643-27.83
		c-19.217,10.051-45.135,15.345-69.625,15.345c-71.507,0-122.899-45.61-122.899-125.781c0-91.693,64.351-149.304,137.799-149.304
		c74.404,0,114.729,48.481,114.729,110.904c0,55.208-25.91,81.625-46.557,81.123c-13.447-0.468-16.811-13.424-12.004-41.756
		L500.529,90.739z M443.857,164.195c-4.316,27.835-23.039,50.388-40.801,50.388c-15.835,0-24.009-11.503-24.009-29.733
		c0-36.983,24.97-68.186,56.662-68.186c6.244,0,11.045,0.966,14.877,1.906L443.857,164.195z"/>
</g>
<g>
</g>
<g>
</g>
<g>
</g>
<g>
</g>
<g>
</g>
<g>
</g>
<g>
</g>
<g>
</g>
<g>
</g>
<g>
</g>
<g>
</g>
<g>
</g>
<g>
</g>
<g>
</g>
<g>
</g>
</svg>
