<?xml version="1.0" encoding="utf-8"?>
<!-- Uploaded to SVGRepo https://www.svgrepo.com -->
<svg version="1.1" id="Layer_1" xmlns="http://www.w3.org/2000/svg" xmlns:xlink="http://www.w3.org/1999/xlink" x="0px" y="0px"
	 width="256px" height="241px" viewBox="0 0 256 241" enable-background="new 0 0 256 241" xml:space="preserve">
<path d="M254,188V2H2v186h111v29H75v22h106v-22h-38v-29H254z M19,19h217v151H19L19,19z M129.227,67.814v-7.326l-7.679-1.297
	c-0.567-2.51-1.557-4.862-2.891-6.977l4.514-6.345l-5.183-5.183l-6.345,4.514c-2.11-1.334-4.463-2.32-6.977-2.891l-1.292-7.675
	h-7.331l-1.292,7.675c-2.515,0.572-4.867,1.557-6.977,2.891l-6.345-4.514l-5.183,5.183l4.514,6.345
	c-1.334,2.115-2.324,4.467-2.891,6.977l-7.679,1.297v7.326l7.679,1.292c0.567,2.515,1.557,4.867,2.891,6.982l-4.514,6.345
	l5.183,5.178l6.345-4.514c2.11,1.334,4.463,2.324,6.977,2.891l1.292,7.679h7.331l1.292-7.679c2.515-0.567,4.867-1.557,6.977-2.891
	l6.345,4.514l5.183-5.178l-4.514-6.345c1.334-2.115,2.324-4.467,2.891-6.982L129.227,67.814z M99.705,75.8
	c-6.429,0-11.644-5.216-11.644-11.649s5.216-11.649,11.644-11.649c6.433,0,11.649,5.216,11.649,11.649
	C111.354,70.585,106.138,75.8,99.705,75.8z M180.239,109.829l8.949-5.554l-3.754-9.172l-10.275,2.313
	c-1.939-2.77-4.354-5.232-7.191-7.255l2.4-10.254l-9.14-3.831l-5.629,8.899c-3.431-0.605-6.881-0.601-10.215-0.042l-5.554-8.949
	l-9.172,3.754l2.313,10.275c-2.77,1.939-5.232,4.354-7.255,7.191l-10.254-2.4l-3.831,9.14l8.899,5.629
	c-0.605,3.431-0.601,6.881-0.042,10.215l-8.949,5.554l3.754,9.172l10.275-2.313c1.939,2.77,4.354,5.232,7.191,7.255l-2.4,10.254
	l9.14,3.831l5.629-8.899c3.431,0.605,6.881,0.601,10.215,0.042l5.554,8.948l9.172-3.754l-2.313-10.275
	c2.77-1.939,5.232-4.354,7.255-7.191l10.254,2.4l3.831-9.14l-8.899-5.629C180.801,116.613,180.798,113.164,180.239,109.829z
	 M164.892,120.9c-3.364,8.024-12.595,11.802-20.619,8.438s-11.802-12.595-8.438-20.619s12.595-11.802,20.619-8.438
	S168.255,112.876,164.892,120.9z M91.746,119.725c0,2.982-2.417,5.399-5.399,5.399c-2.979,0-5.396-2.417-5.396-5.399
	s2.417-5.399,5.396-5.399C89.328,114.326,91.746,116.743,91.746,119.725z M105.883,122.149v-4.848l-5.082-0.858
	c-0.375-1.661-1.031-3.218-1.913-4.617l2.987-4.199l-3.43-3.43l-4.199,2.987c-1.397-0.883-2.953-1.535-4.617-1.913l-0.855-5.079
	h-4.851l-0.855,5.079c-1.664,0.378-3.221,1.031-4.617,1.913l-4.199-2.987l-3.43,3.43l2.987,4.199
	c-0.883,1.4-1.538,2.956-1.913,4.617l-5.082,0.858v4.848l5.082,0.855c0.375,1.664,1.031,3.221,1.913,4.62l-2.987,4.199l3.43,3.427
	l4.199-2.987c1.397,0.883,2.953,1.538,4.617,1.913l0.855,5.082h4.851l0.855-5.082c1.664-0.375,3.221-1.031,4.617-1.913l4.199,2.987
	l3.43-3.427l-2.987-4.199c0.883-1.4,1.538-2.956,1.913-4.62L105.883,122.149z"/>
</svg>
