<?xml version="1.0" encoding="iso-8859-1"?>
<!-- Generator: Adobe Illustrator 16.0.0, SVG Export Plug-In . SVG Version: 6.00 Build 0)  -->
<!DOCTYPE svg PUBLIC "-//W3C//DTD SVG 1.1//EN" "http://www.w3.org/Graphics/SVG/1.1/DTD/svg11.dtd">
<svg xmlns="http://www.w3.org/2000/svg" xmlns:xlink="http://www.w3.org/1999/xlink" version="1.1" id="Capa_1" x="0px" y="0px" width="512px" height="512px" viewBox="0 0 515.325 515.326" style="enable-background:new 0 0 515.325 515.326;" xml:space="preserve">
<g>
	<path d="M506.346,289.875h-65.769v-27.536H261.912v-36.883h65.784c4.936,0,8.969-4.022,8.969-8.978v-86.581   c0-4.949-4.021-8.977-8.969-8.977H184.937c-4.947,0-8.977,4.022-8.977,8.977v86.581c0,4.95,4.025,8.978,8.977,8.978h65.772v36.883   H68.594v27.536H8.978c-4.951,0-8.978,4.026-8.978,8.974v86.577c0,4.953,4.022,8.979,8.978,8.979h142.755   c4.947,0,8.974-4.021,8.974-8.979v-86.577c0-4.947-4.021-8.974-8.974-8.974H79.802v-16.33h170.907v16.33h-65.772   c-4.947,0-8.977,4.026-8.977,8.974v86.577c0,4.953,4.025,8.979,8.977,8.979h142.759c4.948,0,8.974-4.021,8.974-8.979v-86.577   c0-4.947-4.025-8.974-8.974-8.974h-65.784v-16.33h167.459v16.33h-65.778c-4.945,0-8.975,4.026-8.975,8.974v86.577   c0,4.953,4.021,8.979,8.975,8.979h142.753c4.954,0,8.979-4.021,8.979-8.979v-86.577C515.32,293.901,511.3,289.875,506.346,289.875z    M185.252,216.164v-85.949h142.116v85.949H185.252z M151.413,299.166v85.942H9.295v-85.942H151.413z M327.368,299.166v85.942   H185.252v-85.942H327.368z M506.028,299.166v85.942H363.91v-85.942H506.028z" fill="#0eb493"/>
</g>
<g>
</g>
<g>
</g>
<g>
</g>
<g>
</g>
<g>
</g>
<g>
</g>
<g>
</g>
<g>
</g>
<g>
</g>
<g>
</g>
<g>
</g>
<g>
</g>
<g>
</g>
<g>
</g>
<g>
</g>
</svg>
