<?xml version="1.0" encoding="iso-8859-1"?>
<!-- Generator: Adobe Illustrator 16.0.0, SVG Export Plug-In . SVG Version: 6.00 Build 0)  -->
<!DOCTYPE svg PUBLIC "-//W3C//DTD SVG 1.1//EN" "http://www.w3.org/Graphics/SVG/1.1/DTD/svg11.dtd">
<svg xmlns="http://www.w3.org/2000/svg" xmlns:xlink="http://www.w3.org/1999/xlink" version="1.1" id="Capa_1" x="0px" y="0px" width="512px" height="512px" viewBox="0 0 188.224 188.224" style="enable-background:new 0 0 188.224 188.224;" xml:space="preserve">
<g>
	<g>
		<path d="M186.947,137.093c-4.344-0.752-8.729-0.905-13.123-0.796c2.342-15.336,2.02-30.627,1.328-46.106    c-0.783-17.546,2.579-34.518-1.456-51.876c-0.2-0.865-0.987-1.285-1.799-1.369c-50.379-5.224-100.88-2.793-151.364-0.691    c-1.117,0.046-1.725,0.821-1.862,1.862c-4.28,32.64-2.829,65.602-1.716,98.411c-5.061-0.147-10.119-0.403-15.169-0.922    c-0.866-0.089-1.213,0.859-0.963,1.539c-0.603,0.178-1.078,0.775-0.673,1.506c2.734,4.944,5.468,9.745,7.785,14.901    c0.235,0.522,0.937,0.874,1.489,0.854c38.967-1.398,77.908-1.605,116.89-2.063c18.517-0.219,51.601,9.171,61-11.957    c0.028-0.063,0.021-0.121,0.041-0.184C188.502,139.407,188.654,137.389,186.947,137.093z M20.122,60.896    c0.869-19.109,6.184-21.164,24.462-21.921c16.046-0.665,32.093-1.181,48.15-1.464c13.291-0.234,26.578-0.049,39.863,0.345    c17.122,0.508,39.042-3.121,39.828,20.019c0.853,25.107,1.631,53.564-2.327,78.341c-0.013,0.082,0.012,0.146,0.008,0.225    c-4.949,0.271-9.901,0.771-14.816,1.08c-17.287,1.092-34.885-1.668-52.13-2.644c-27.712-1.568-55.538,2.185-83.234,1.696    C20.436,111.336,18.975,86.133,20.122,60.896z M147.084,148.433c-16.869-0.219-33.775,0.276-50.646,0.36    c-15.846,0.08-31.689,0.39-47.529,0.781c-7.915,0.196-15.827,0.466-23.739,0.739c-12.556,0.433-16.508-2.746-22.879-12.388    c27.648,5.611,57.558,0.532,85.547,0.337c18.255-0.127,36.393,1.951,54.601,2.892c13.551,0.701,27.455-2.524,40.94-0.963    C176.233,152.592,159.287,148.592,147.084,148.433z" fill="#0eb493"/>
		<path d="M162.362,53.651c-0.192-1.073-1.288-1.347-2.147-1.034c-42.704-2.332-84.995,3.668-127.878-0.522    c-1.458-0.142-1.767,2.255-0.345,2.546c0.059,0.012,0.119,0.021,0.178,0.033c-0.611,0.031-1.184,0.36-1.323,1.084    c-4.074,21.248-3.648,47.434-0.564,69.111c-0.462,0.443-0.369,1.211,0.208,1.557c0.042,0.277,0.071,0.575,0.114,0.852    c0.158,1.027,1.928,1.037,2.076,0c0.026-0.184,0.036-0.373,0.061-0.557c41.608,2.062,83.675,3.305,125.269,0.734    c0.767-0.047,1.26-0.479,1.533-1.02c0.789-0.07,1.536-0.605,1.437-1.526C158.458,101.251,166.559,76.913,162.362,53.651z     M159.195,60.086c-0.325-0.257-0.651-0.513-0.953-0.777c-1.238-1.085-2.431-2.22-3.628-3.349c1.524-0.105,3.076-0.202,4.576-0.312    C159.232,57.123,159.213,58.604,159.195,60.086z M118.68,58.268c0.005,0.07-0.003,0.14,0.051,0.216    c4.648,6.596,11.051,12.342,16.804,17.957c6.273,6.125,13.338,13.641,21.312,17.799c-0.153,2.144-0.288,4.283-0.379,6.421    c-3.903-7.084-13.049-12.36-19.201-16.842c-10.587-7.714-19.897-15.265-28.398-25.018C112.154,58.67,115.401,58.439,118.68,58.268    z M107.484,58.847c3.208,8.637,13.389,15.312,20.25,20.6c9.846,7.587,20.227,14.282,28.314,23.817    c0.089,0.104,0.211,0.13,0.328,0.165c-0.083,3.204-0.104,6.402,0.062,9.589c-9.488-11.163-20.646-22.113-31.937-31.051    c-9.123-7.223-20.197-13.605-27.542-22.77C100.47,59.126,103.977,58.979,107.484,58.847z M32.982,124.512    c0.319-2.646,0.552-5.319,0.732-8.008c2.768,2.394,5.069,5.301,7.766,7.794C38.648,124.365,35.815,124.402,32.982,124.512z     M44.036,124.234c-3.353-3.113-6.29-7.146-10.222-9.593c0.069-1.211,0.096-2.435,0.143-3.652c2.122,2.49,4.36,4.898,6.651,7.208    c2.01,2.026,4.532,4.621,7.282,5.999C46.605,124.215,45.32,124.209,44.036,124.234z M50.426,124.173    c0.001-0.172-0.052-0.341-0.213-0.477c-2.74-2.312-5.833-4.143-8.516-6.587c-2.719-2.476-5.144-5.221-7.671-7.877    c0.055-1.787,0.024-3.598,0.043-5.395c6.012,7.866,14.392,15.17,22.782,20.318C54.709,124.161,52.567,124.149,50.426,124.173z     M59.592,124.148c-4.169-3.947-9.144-7.133-13.623-10.703c-4.389-3.498-8.27-7.407-11.885-11.655    c0.011-2.506-0.03-5.023-0.06-7.54c4.762,5.638,9.766,11.079,14.9,16.37c4.556,4.695,9.454,9.827,14.981,13.552    C62.468,124.165,61.03,124.148,59.592,124.148z M66.726,124.187C55.733,113.708,44.613,103.62,34.013,92.72    c-0.035-2.473-0.084-4.947-0.132-7.42c6.918,6.495,13.082,13.68,19.305,20.853c5.507,6.347,11.331,13.493,18.514,18.083    C70.042,124.221,68.383,124.197,66.726,124.187z M74.176,124.262c0.031-0.238-0.013-0.479-0.242-0.681    c-14.181-12.385-25.607-27.749-40.08-39.759c-0.05-2.558-0.071-5.098-0.108-7.646c17.906,14.557,30.518,35.531,49.748,48.208    C80.389,124.339,77.283,124.296,74.176,124.262z M86.445,124.425c-0.029-0.033-0.017-0.076-0.055-0.107    c-18.948-15.062-32.717-35.908-52.666-49.68c-0.038-3.087-0.062-6.166-0.045-9.226c18.773,20.682,38.425,41.034,59.722,59.109    C91.083,124.486,88.765,124.458,86.445,124.425z M96.432,124.562c-21.642-19.542-41.32-41.084-62.716-60.848    c0.027-2.528,0.063-5.052,0.167-7.546c0.027-0.64-0.339-1.095-0.826-1.331c0.267,0.053,0.538,0.092,0.805,0.144    c12.795,14.988,27.561,28.663,41.654,42.37c8.188,7.963,16.51,15.804,25.082,23.353c0.884,0.779,2.524,2.578,4.258,3.953    C102.048,124.625,99.239,124.602,96.432,124.562z M108.538,124.697c-3.679-1.245-8.438-7.405-11.033-9.823    c-8.34-7.773-16.504-15.74-24.709-23.656C60.395,79.253,47.614,67.581,35.535,55.28c2.53,0.47,5.077,0.891,7.637,1.272    c-0.169,0.166-0.244,0.439-0.036,0.621C60.171,72.08,76.137,87.99,91.822,104.305c5.901,6.137,12.867,16.61,21.35,20.414    C111.628,124.709,110.083,124.712,108.538,124.697z M117.953,124.74c-0.055-0.333-0.216-0.651-0.637-0.813    c-12.028-4.624-21.995-19.813-30.802-28.867C73.17,81.341,59.126,68.224,43.871,56.645c3.129,0.455,6.305,0.758,9.473,1.091    c16.802,13.1,33.105,26.648,48.286,41.623c7.936,7.828,15.71,18.147,24.804,25.305    C123.605,124.684,120.778,124.746,117.953,124.74z M130.205,124.632c-4.097-7.363-27.812-27.837-30.754-30.732    C86.005,80.674,71.275,68.756,55.78,58.016c4.478,0.428,8.992,0.733,13.525,0.956c10.162,14.726,23.46,26.641,36.864,38.395    c9.594,8.413,19.03,19.637,29.762,27.154C134.021,124.555,132.113,124.609,130.205,124.632z M139.896,124.445    c-22.355-22.395-49.828-40.07-69.087-65.424c2.867,0.127,5.748,0.189,8.629,0.247c19.352,22.904,41.132,48.784,66.682,64.999    C144.045,124.331,141.97,124.398,139.896,124.445z M149.803,124.14c-24.521-20.106-46.385-42.216-68.546-64.82    c2.474,0.038,4.956,0.032,7.436,0.025c11.799,13.136,24.545,25.34,37.084,37.765c8.519,8.441,16.906,19.648,26.87,26.895    C151.699,124.047,150.751,124.104,149.803,124.14z M156.106,123.84c-22.148-21.127-44.083-42.715-65.618-64.489    c1.778-0.012,3.557-0.095,5.337-0.127c-0.364,6.797,18.361,17.619,22.722,21.004c13.961,10.842,25.426,24.155,38.138,36.353    c0.213,2.402,0.501,4.8,0.925,7.187C157.109,123.798,156.607,123.812,156.106,123.84z M157.024,91.938    c-6.055-5.143-12.491-9.828-18.354-15.26c-6.419-5.949-12.193-12.861-18.899-18.469c3.026-0.161,6.017-0.362,9.029-0.541    c8.196,9.929,20.244,16.309,27.114,27.382c0.519,0.837,1.635,0.254,1.499-0.632c-0.784-5.108-7.231-9.542-10.8-12.674    c-5.41-4.75-11.106-9.165-16.282-14.167c2.338-0.142,4.649-0.297,6.978-0.444c3.575,3.326,7.091,6.711,10.582,10.126    c3.429,3.355,6.549,7.257,10.218,10.336c0.045,0.037,0.101,0.026,0.148,0.053C157.85,82.41,157.398,87.177,157.024,91.938z     M158.461,75.284c-2.344-3.104-5.593-5.748-8.372-8.349c-3.612-3.38-7.331-6.647-11.047-9.913    c1.859-0.119,3.666-0.254,5.518-0.377c3.032,2.282,5.685,4.952,8.316,7.683c1.775,1.843,3.692,4.052,5.935,5.502    C158.695,71.648,158.607,73.464,158.461,75.284z M153.275,62.466c-2.179-2.095-4.424-4.104-6.807-5.951    c2.137-0.143,4.248-0.292,6.381-0.436c1.397,1.477,2.798,2.948,4.238,4.383c0.668,0.665,1.348,1.395,2.068,2.073    c-0.047,1.626-0.104,3.252-0.19,4.881C157.058,65.784,155.085,64.205,153.275,62.466z" fill="#0eb493"/>
	</g>
</g>
<g>
</g>
<g>
</g>
<g>
</g>
<g>
</g>
<g>
</g>
<g>
</g>
<g>
</g>
<g>
</g>
<g>
</g>
<g>
</g>
<g>
</g>
<g>
</g>
<g>
</g>
<g>
</g>
<g>
</g>
</svg>
