<?xml version="1.0" encoding="iso-8859-1"?>
<!-- Generator: Adobe Illustrator 18.1.1, SVG Export Plug-In . SVG Version: 6.00 Build 0)  -->
<svg xmlns="http://www.w3.org/2000/svg" xmlns:xlink="http://www.w3.org/1999/xlink" version="1.1" id="Capa_1" x="0px" y="0px" viewBox="0 0 22.771 22.771" style="enable-background:new 0 0 22.771 22.771;" xml:space="preserve" width="512px" height="512px">
<g>
	<path d="M12.116,20.878c-0.289-0.508-0.443-0.666-0.518-0.742c-0.042-0.042-0.097-0.099-0.143-0.177   c-0.354-0.296-0.512-0.791-0.485-1.177c0.008-0.121,0.04-0.228,0.082-0.329H3.639V2.8H14.05v11.685   c0.003,0.007,0.004,0.009,0.007,0.016c0.177,0.362,0.411,0.837,0.591,1.192c0.083-0.055,0.176-0.107,0.278-0.146   c0.094-0.036,0.22-0.072,0.367-0.082V1.658C15.291,0.744,14.55,0,13.633,0H4.054C3.138,0,2.397,0.744,2.397,1.658v19.454   c0,0.917,0.741,1.659,1.657,1.659h9.581c0.352,0,0.676-0.11,0.944-0.298c-0.403-0.161-0.854-0.39-1.312-0.726   C12.374,21.336,12.177,21.036,12.116,20.878z M12.542,1.04c0.234,0,0.425,0.19,0.425,0.423c0,0.236-0.19,0.423-0.425,0.423   c-0.234,0-0.424-0.187-0.424-0.423C12.118,1.23,12.308,1.04,12.542,1.04z M6.624,1.201h4.442v0.484H6.624V1.201z M10.867,21.004   H6.821v-1.245h4.045L10.867,21.004L10.867,21.004z M5.187,4.616h2.882v3.137H5.187V4.616z M8.256,8.127   c0.103,0,0.188-0.085,0.188-0.188V4.428c0-0.103-0.085-0.188-0.188-0.188H4.998c-0.103,0-0.188,0.085-0.188,0.188V7.94   c0,0.103,0.085,0.188,0.188,0.188L8.256,8.127L8.256,8.127z M4.998,4.428h3.258V7.94H4.998V4.428z M13.243,9.778   c0,0.278-0.224,0.501-0.502,0.501H5.049c-0.277,0-0.502-0.223-0.502-0.501c0-0.277,0.224-0.502,0.502-0.502h7.693   C13.019,9.276,13.243,9.501,13.243,9.778z M11.799,12.39H4.998c-0.277,0-0.502-0.224-0.502-0.502c0-0.276,0.224-0.501,0.502-0.501   h7.693c0.277,0,0.502,0.224,0.502,0.501s-0.225,0.502-0.502,0.502H12.58c-0.229-0.09-0.485-0.12-0.726-0.027   C11.836,12.369,11.818,12.382,11.799,12.39z M10.36,13.542c0.018,0.118,0.046,0.25,0.088,0.394   c0.078,0.216,0.151,0.412,0.225,0.608H4.998c-0.277,0-0.502-0.224-0.502-0.502c0-0.277,0.224-0.501,0.502-0.501L10.36,13.542   L10.36,13.542z M16.95,22.703c0,0,0.148-0.373-0.527-0.534c0,0-1.231,0.03-2.557-0.767c0,0-0.912-0.307-1.006-0.542   c-0.634-0.905-0.779-0.797-0.809-0.96c-0.62-0.273-0.784-1.682,0.416-1.038c0.016-0.007,0.812,0.623,0.816,0.607   c0,0,0.642,0.539,0.983,0.559c0.447-0.249-0.856-2.195-0.869-2.365c0,0-0.712-1.196-1.882-3.612   c-0.581-1.444,0.397-1.187,0.787-0.71c0.1-0.032,1.973,3.196,2.098,3.175c0,0,0.529-1.119,1.464-0.368c0,0,0.615-0.951,1.448-0.148   c0,0,1.226-0.501,1.675,0.624c0,0,1.276,1.888,1.258,3.675l0.13,0.695L16.95,22.703z" fill="#0eb493"/>
</g>
<g>
</g>
<g>
</g>
<g>
</g>
<g>
</g>
<g>
</g>
<g>
</g>
<g>
</g>
<g>
</g>
<g>
</g>
<g>
</g>
<g>
</g>
<g>
</g>
<g>
</g>
<g>
</g>
<g>
</g>
</svg>
