<?xml version="1.0" encoding="iso-8859-1"?>
<!DOCTYPE svg PUBLIC "-//W3C//DTD SVG 1.1//EN" "http://www.w3.org/Graphics/SVG/1.1/DTD/svg11.dtd">
<svg xmlns="http://www.w3.org/2000/svg" xmlns:xlink="http://www.w3.org/1999/xlink" version="1.1" viewBox="0 0 406.482 406.482" enable-background="new 0 0 406.482 406.482" width="512px" height="512px">
  <g>
    <path d="m365.981,37.5c0-4.142-3.358-7.5-7.5-7.5h-310.481c-4.142,0-7.5,3.358-7.5,7.5v220.486c0,4.142 3.358,7.5 7.5,7.5h310.481c4.142,0 7.5-3.358 7.5-7.5v-220.486zm-310.481,212.986v-33.796h62.102c2.975,7.318 10.153,12.497 18.526,12.497 11.028,0 20-8.972 20-20s-8.972-20-20-20c-8.376,0-15.555,5.182-18.529,12.503h-62.099v-16.693h115.026l18.853,18.853c-1.116,2.491-1.751,5.242-1.751,8.143 0,11.028 8.972,20 20,20s20-8.972 20-20-8.972-20-20-20c-2.631,0-5.139,0.524-7.442,1.451l-21.251-21.251c-1.406-1.407-3.314-2.197-5.303-2.197h-118.132v-14.75h206.095c2.975,7.318 10.153,12.496 18.526,12.496 11.028,0 20-8.972 20-20s-8.972-20-20-20c-8.376,0-15.556,5.182-18.529,12.504h-206.092v-14.75h51.633c1.989,0 3.897-0.79 5.303-2.197l21.258-21.258c2.303,0.927 4.81,1.451 7.441,1.451 11.028,0 20-8.972 20-20s-8.972-20-20-20-20,8.972-20,20c0,2.901 0.635,5.653 1.751,8.144l-18.86,18.86h-48.526v-65.496h295.481v18.493h-116.488c-1.989,0-3.897,0.79-5.303,2.197l-21.258,21.258c-2.303-0.927-4.81-1.451-7.441-1.451-11.028,0-20,8.972-20,20s8.972,20 20,20 20-8.972 20-20c0-2.902-0.635-5.653-1.751-8.144l18.86-18.86h113.382v126.004h-59.6c-2.973-7.322-10.153-12.504-18.529-12.504-11.028,0-20,8.972-20,20s8.972,20 20,20c8.373,0 15.551-5.178 18.526-12.496h59.603v30.989h-295.482zm75.628-41.299c0-2.757 2.243-5 5-5s5,2.243 5,5-2.243,5-5,5-5-2.244-5-5zm76.5-2.194c2.757,0 5,2.243 5,5s-2.243,5-5,5-5-2.243-5-5 2.244-5 5-5zm67.493-59.25c0-2.757 2.243-5 5-5s5,2.243 5,5-2.243,5-5,5-5-2.243-5-5zm-138.986-64.25c0-2.757 2.243-5 5-5s5,2.243 5,5-2.243,5-5,5-5-2.243-5-5zm69.356,22.004c0,2.757-2.243,5-5,5s-5-2.243-5-5 2.243-5 5-5 5,2.243 5,5zm72.362,106.496c0,2.757-2.243,5-5,5s-5-2.243-5-5 2.243-5 5-5 5,2.243 5,5z" fill="#0eb493"/>
    <path d="m369.206,313.486h-71.468v-18h68.043c16.653,0 30.201-13.548 30.201-30.201v-235.084c0-16.653-13.548-30.201-30.201-30.201h-325.08c-16.653,0-30.201,13.548-30.201,30.201v235.084c0,16.653 13.548,30.201 30.201,30.201h68.046v18h-71.47c-16.005,0-29.026,13.021-29.026,29.026v34.944c0,16.005 13.021,29.026 29.026,29.026h331.929c16.005,0 29.026-13.021 29.026-29.026v-34.944c-0.001-16.005-13.022-29.026-29.026-29.026zm-343.706-48.201v-235.084c0-8.382 6.819-15.201 15.201-15.201h325.08c8.382,0 15.201,6.819 15.201,15.201v235.084c0,8.382-6.819,15.201-15.201,15.201h-325.08c-8.382-5.68434e-14-15.201-6.819-15.201-15.201zm98.248,30.201h158.99v18h-158.99v-18zm259.483,81.97c0,7.734-6.292,14.026-14.026,14.026h-331.928c-7.734,0-14.026-6.292-14.026-14.026v-34.944c0-7.734 6.292-14.026 14.026-14.026h331.929c7.734,0 14.026,6.292 14.026,14.026v34.944z" fill="#0eb493"/>
    <path d="m181.492,352.484h-128.993c-4.142,0-7.5,3.358-7.5,7.5s3.358,7.5 7.5,7.5h128.994c4.142,0 7.5-3.358 7.5-7.5s-3.359-7.5-7.501-7.5z" fill="#0eb493"/>
    <path d="m355.483,352.484h-22.499c-4.142,0-7.5,3.358-7.5,7.5s3.358,7.5 7.5,7.5h22.499c4.142,0 7.5-3.358 7.5-7.5s-3.358-7.5-7.5-7.5z" fill="#0eb493"/>
  </g>
</svg>
