<?xml version="1.0" encoding="iso-8859-1"?>
<svg xmlns="http://www.w3.org/2000/svg" xmlns:xlink="http://www.w3.org/1999/xlink" version="1.1" viewBox="0 0 511 511" enable-background="new 0 0 511 511" width="512px" height="512px">
  <g>
    <path d="m287,255.5v-112c0-21.78-17.72-39.5-39.5-39.5h-208c-21.78,0-39.5,17.72-39.5,39.5v112c0,21.78 17.72,39.5 39.5,39.5h112.5v32.5c0,3.033 1.827,5.769 4.63,6.929 0.928,0.384 1.902,0.571 2.869,0.571 1.952,0 3.87-0.762 5.305-2.197l37.802-37.803h44.894c21.78,0 39.5-17.72 39.5-39.5zm-87.5,24.5c-1.989,0-3.897,0.79-5.303,2.197l-27.197,27.197v-21.894c0-4.142-3.358-7.5-7.5-7.5h-120c-13.509,0-24.5-10.991-24.5-24.5v-112c0-13.509 10.991-24.5 24.5-24.5h208c13.509,0 24.5,10.991 24.5,24.5v112c0,13.509-10.991,24.5-24.5,24.5h-48z" fill="#0eb493"/>
    <path d="m47.5,159h24c4.142,0 7.5-3.358 7.5-7.5s-3.358-7.5-7.5-7.5h-24c-4.142,0-7.5,3.358-7.5,7.5s3.358,7.5 7.5,7.5z" fill="#0eb493"/>
    <path d="m239.5,144h-136c-4.142,0-7.5,3.358-7.5,7.5s3.358,7.5 7.5,7.5h136c4.142,0 7.5-3.358 7.5-7.5s-3.358-7.5-7.5-7.5z" fill="#0eb493"/>
    <path d="m239.5,176h-192c-4.142,0-7.5,3.358-7.5,7.5s3.358,7.5 7.5,7.5h192c4.142,0 7.5-3.358 7.5-7.5s-3.358-7.5-7.5-7.5z" fill="#0eb493"/>
    <path d="m239.5,208h-24c-4.142,0-7.5,3.358-7.5,7.5s3.358,7.5 7.5,7.5h24c4.142,0 7.5-3.358 7.5-7.5s-3.358-7.5-7.5-7.5z" fill="#0eb493"/>
    <path d="m47.5,223h136c4.142,0 7.5-3.358 7.5-7.5s-3.358-7.5-7.5-7.5h-136c-4.142,0-7.5,3.358-7.5,7.5s3.358,7.5 7.5,7.5z" fill="#0eb493"/>
    <path d="m239.5,240h-192c-4.142,0-7.5,3.358-7.5,7.5s3.358,7.5 7.5,7.5h192c4.142,0 7.5-3.358 7.5-7.5s-3.358-7.5-7.5-7.5z" fill="#0eb493"/>
    <path d="m311.5,231h24c4.142,0 7.5-3.358 7.5-7.5s-3.358-7.5-7.5-7.5h-24c-4.142,0-7.5,3.358-7.5,7.5s3.358,7.5 7.5,7.5z" fill="#0eb493"/>
    <path d="m463.5,231c4.142,0 7.5-3.358 7.5-7.5s-3.358-7.5-7.5-7.5h-96c-4.142,0-7.5,3.358-7.5,7.5s3.358,7.5 7.5,7.5h96z" fill="#0eb493"/>
    <path d="m311.5,263h152c4.142,0 7.5-3.358 7.5-7.5s-3.358-7.5-7.5-7.5h-152c-4.142,0-7.5,3.358-7.5,7.5s3.358,7.5 7.5,7.5z" fill="#0eb493"/>
    <path d="m463.5,280h-24c-4.142,0-7.5,3.358-7.5,7.5s3.358,7.5 7.5,7.5h24c4.142,0 7.5-3.358 7.5-7.5s-3.358-7.5-7.5-7.5z" fill="#0eb493"/>
    <path d="m311.5,295h96c4.142,0 7.5-3.358 7.5-7.5s-3.358-7.5-7.5-7.5h-96c-4.142,0-7.5,3.358-7.5,7.5s3.358,7.5 7.5,7.5z" fill="#0eb493"/>
    <path d="m463.5,312h-200c-4.142,0-7.5,3.358-7.5,7.5s3.358,7.5 7.5,7.5h200c4.142,0 7.5-3.358 7.5-7.5s-3.358-7.5-7.5-7.5z" fill="#0eb493"/>
    <path d="m471.5,176h-160c-4.142,0-7.5,3.358-7.5,7.5s3.358,7.5 7.5,7.5h160c13.509,0 24.5,10.991 24.5,24.5v112c0,13.509-10.991,24.5-24.5,24.5h-120c-4.142,0-7.5,3.358-7.5,7.5v21.894l-27.197-27.197c-1.406-1.407-3.314-2.197-5.303-2.197h-48c-13.509,0-24.5-10.991-24.5-24.5v-8c0-4.142-3.358-7.5-7.5-7.5s-7.5,3.358-7.5,7.5v8c0,21.78 17.72,39.5 39.5,39.5h44.894l37.803,37.803c1.435,1.435 3.353,2.197 5.305,2.197 0.966,0 1.941-0.187 2.869-0.571 2.803-1.161 4.63-3.896 4.63-6.929v-32.5h112.5c21.78,0 39.5-17.72 39.5-39.5v-112c-0.001-21.78-17.721-39.5-39.501-39.5z" fill="#0eb493"/>
  </g>
</svg>
