<svg width="48" height="48" xmlns="http://www.w3.org/2000/svg">
 <title/>

 <g>
  <title>background</title>
  <rect fill="none" id="canvas_background" height="402" width="582" y="-1" x="-1"/>
 </g>
 <g>
  <title>Layer 1</title>
  <path fill="#0eb493" id="svg_1" d="m35,0l-22,0a5,5 0 0 0 -5,5l0,38a5,5 0 0 0 5,5l22,0a5,5 0 0 0 5,-5l0,-38a5,5 0 0 0 -5,-5zm3,43a3,3 0 0 1 -3,3l-22,0a3,3 0 0 1 -3,-3l0,-3l28,0l0,3zm0,-5l-28,0l0,-29l28,0l0,29zm0,-2l-28,0l0,-31a3,3 0 0 1 3,-3l22,0a3,3 0 0 1 3,3l0,31z"/>
  <rect id="svg_2" y="42" x="23" width="2" height="2"/>
 </g>
</svg>