<?xml version="1.0" standalone="no"?>
<!DOCTYPE svg PUBLIC "-//W3C//DTD SVG 20010904//EN"
 "http://www.w3.org/TR/2001/REC-SVG-20010904/DTD/svg10.dtd">
<svg version="1.0" xmlns="http://www.w3.org/2000/svg"
 width="16.000000pt" height="16.000000pt" viewBox="0 0 16.000000 16.000000"
 preserveAspectRatio="xMidYMid meet">
<metadata>
Created by potrace 1.11, written by Peter Selinger 2001-2013
</metadata>
<g transform="translate(0.000000,16.000000) scale(0.000698,-0.000698)"
fill="#000000" stroke="none">
<path d="M11360 22873 c-52 -30 -111 -64 -130 -75 -131 -74 -702 -405 -732
-424 -21 -13 -39 -24 -42 -24 -2 0 -48 -26 -103 -58 -54 -32 -118 -70 -143
-84 -25 -14 -148 -85 -275 -158 -126 -73 -259 -150 -295 -170 -61 -35 -363
-209 -640 -370 -69 -40 -215 -124 -325 -188 -110 -63 -267 -154 -350 -202 -82
-48 -269 -155 -415 -239 -146 -84 -280 -162 -297 -172 -43 -25 -94 -54 -140
-80 -21 -12 -63 -36 -93 -54 -43 -26 -569 -330 -738 -426 -18 -11 -93 -54
-165 -96 -73 -42 -206 -119 -297 -171 -91 -52 -178 -103 -195 -113 -16 -11
-36 -22 -44 -26 -8 -3 -91 -51 -185 -106 -94 -55 -191 -111 -216 -125 -25 -14
-97 -55 -160 -92 -63 -37 -146 -85 -185 -107 -38 -22 -158 -91 -265 -153 -107
-62 -211 -121 -230 -132 -19 -11 -60 -35 -90 -53 -30 -18 -75 -44 -100 -58
-44 -24 -165 -94 -936 -540 -496 -286 -460 -266 -524 -300 -30 -17 -62 -36
-70 -42 -8 -7 -46 -30 -85 -50 -38 -21 -82 -46 -97 -57 -14 -10 -28 -18 -31
-18 -2 0 -82 -46 -178 -101 -96 -56 -192 -112 -214 -124 -22 -13 -96 -56 -165
-95 -170 -99 -190 -110 -230 -132 -19 -11 -48 -28 -65 -39 -16 -10 -37 -22
-45 -26 -8 -5 -77 -44 -153 -88 -76 -44 -149 -86 -162 -93 l-25 -13 2 -5736
c3 -5086 5 -5737 18 -5744 8 -5 40 -23 70 -40 30 -18 70 -40 88 -51 18 -10
103 -59 188 -109 85 -49 174 -101 197 -113 23 -13 195 -112 381 -220 186 -108
341 -196 344 -196 3 0 13 -6 21 -14 9 -7 41 -27 71 -43 65 -35 56 -30 369
-212 134 -77 246 -141 249 -141 2 0 16 -8 30 -19 15 -10 47 -29 72 -43 25 -14
88 -50 140 -80 659 -382 652 -378 710 -410 19 -11 49 -28 66 -38 36 -21 110
-64 774 -447 267 -154 557 -322 645 -373 88 -51 180 -104 205 -118 25 -14 74
-42 109 -64 34 -21 65 -38 67 -38 2 0 25 -13 51 -28 76 -46 235 -138 273 -160
19 -10 107 -61 195 -112 88 -51 180 -104 205 -118 51 -29 311 -179 445 -257
50 -29 198 -114 330 -190 132 -76 289 -167 348 -201 59 -35 110 -64 113 -64 2
0 41 -22 85 -50 44 -27 82 -50 84 -50 3 0 274 -156 295 -170 8 -6 22 -13 30
-17 8 -4 55 -31 104 -60 49 -29 90 -53 92 -53 2 0 56 -31 121 -69 234 -136
548 -318 563 -325 8 -4 24 -12 35 -19 88 -53 148 -87 156 -87 5 0 9 -4 9 -10
0 -5 4 -10 9 -10 10 0 349 -193 368 -210 7 -5 14 -10 17 -10 3 0 40 -20 82
-45 41 -25 77 -45 80 -45 3 0 86 -49 154 -90 8 -5 92 -53 185 -107 94 -54 178
-102 187 -108 9 -5 29 -17 45 -26 15 -8 124 -71 241 -138 l212 -123 115 67
c63 36 127 73 142 81 16 8 48 27 73 42 25 15 95 55 155 90 61 35 117 67 125
72 8 6 240 140 515 298 679 392 1266 730 1525 880 118 69 231 133 250 144 19
11 49 27 65 37 34 20 260 152 320 187 22 12 56 31 75 41 19 11 105 60 190 110
245 143 477 277 590 341 25 14 74 42 109 64 34 21 65 38 67 38 1 0 97 54 211
121 234 136 404 234 638 369 88 51 189 109 225 130 68 40 978 565 1195 690 17
9 134 77 260 150 127 73 254 147 284 164 29 17 70 41 90 53 20 12 45 26 56 31
11 6 63 35 114 66 51 31 95 56 97 56 4 0 123 70 154 90 8 6 22 13 30 17 8 4
38 20 65 36 28 17 106 62 175 102 69 40 186 107 260 150 213 123 392 226 430
248 19 10 40 23 45 27 6 4 30 19 55 32 47 26 210 120 435 250 72 41 238 138
370 214 132 76 281 161 330 190 l90 52 3 5735 2 5735 -177 102 c-98 57 -221
127 -273 156 -52 30 -102 58 -110 63 -21 14 -235 138 -290 168 -25 14 -70 40
-100 58 -30 18 -98 57 -150 87 -52 31 -149 87 -215 125 -66 38 -127 73 -135
76 -8 4 -28 15 -45 26 -16 10 -176 102 -355 206 -179 103 -362 209 -408 236
-45 27 -85 49 -89 49 -4 0 -14 6 -22 14 -9 7 -41 27 -71 43 -30 17 -95 54
-145 83 -49 29 -110 64 -135 78 -100 56 -228 131 -276 160 -28 18 -54 32 -57
32 -3 0 -63 34 -133 76 -71 42 -147 86 -169 99 -69 39 -414 237 -613 353 -68
40 -127 72 -132 72 -6 0 -10 5 -10 10 0 6 -4 10 -10 10 -5 0 -74 38 -152 83
-79 46 -267 155 -418 242 -151 87 -335 194 -409 237 -74 43 -136 78 -138 78
-3 0 -17 8 -31 18 -15 11 -52 33 -82 49 -53 29 -152 86 -700 403 -140 81 -271
157 -290 168 -19 11 -150 86 -290 167 -140 81 -275 159 -300 172 -25 14 -65
38 -90 53 -49 30 -879 510 -945 546 -37 20 -426 244 -640 369 -49 29 -164 95
-255 148 -91 52 -310 179 -487 281 -177 102 -338 195 -357 206 -63 36 -100 56
-163 94 -34 20 -63 36 -65 36 -2 -1 -46 -26 -98 -57z"/>
</g>
</svg>
