<?xml version="1.0" encoding="iso-8859-1"?>
<!-- Generator: Adobe Illustrator 16.0.0, SVG Export Plug-In . SVG Version: 6.00 Build 0)  -->
<!DOCTYPE svg PUBLIC "-//W3C//DTD SVG 1.1//EN" "http://www.w3.org/Graphics/SVG/1.1/DTD/svg11.dtd">
<svg version="1.1" id="Capa_1" xmlns="http://www.w3.org/2000/svg" xmlns:xlink="http://www.w3.org/1999/xlink" x="0px" y="0px"
	 width="335.064px" height="335.064px" viewBox="0 0 335.064 335.064" style="enable-background:new 0 0 335.064 335.064;"
	 xml:space="preserve">
<g>
	<g>
		<rect x="285.794" y="168.202" width="6.267" height="53.308"/>
		<path d="M329.689,168.202c2.976,0,5.375-2.404,5.375-5.375v-40.316c0-1.939-1.046-3.73-2.736-4.683L170.17,26.452
			c-1.641-0.924-3.646-0.924-5.281,0L2.734,117.828C1.047,118.781,0,120.571,0,122.511v40.316c0,2.971,2.401,5.375,5.375,5.375
			h9.859v53.308H5.375c-2.974,0-5.375,2.399-5.375,5.375v26.876c0,2.973,2.401,5.376,5.375,5.376h9.864v44.794
			c0,2.971,2.404,5.375,5.375,5.375h51.05c2.974,0,5.375-2.404,5.375-5.375v-44.794h9.863c2.974,0,5.375-2.403,5.375-5.376v-26.876
			c0-2.976-2.402-5.375-5.375-5.375H77.04v-53.308h9.863c2.974,0,5.375-2.404,5.375-5.375c0-13.772,8.321-23.405,25.431-29.442
			c15.137-5.344,32.979-6.145,42.263-6.145c4.417,0,7.152,0.179,7.208,0.184c0.23,0.01,0.472,0.01,0.713,0
			c0.169-0.01,2.882-0.184,7.192-0.184c20.358,0.005,67.698,3.478,67.698,35.586c0,2.971,2.404,5.375,5.375,5.375h9.865v53.308
			h-9.865c-2.971,0-5.375,2.399-5.375,5.375v26.876c0,2.973,2.404,5.376,5.375,5.376h9.865v44.794c0,2.971,2.403,5.375,5.374,5.375
			h51.052c2.971,0,5.376-2.404,5.376-5.375v-44.794h9.863c2.976,0,5.375-2.403,5.375-5.376v-26.876c0-2.976-2.399-5.375-5.375-5.375
			h-9.858v-53.308H329.689z M60.021,226.885c0,2.972-2.402,5.376-5.375,5.376H37.627c-2.974,0-5.375-2.404-5.375-5.376v-64.058
			c0-2.974,2.402-5.375,5.375-5.375h17.019c2.973,0,5.375,2.401,5.375,5.375V226.885z M302.812,226.885
			c0,2.972-2.399,5.376-5.376,5.376h-17.018c-2.971,0-5.376-2.404-5.376-5.376v-64.058c0-2.974,2.405-5.375,5.376-5.375h17.018
			c2.977,0,5.376,2.401,5.376,5.375V226.885z"/>
		<rect x="43.002" y="168.202" width="6.268" height="53.308"/>
		<path d="M165.359,147.619c-0.339-0.032-0.672-0.032-1.011,0c-14.596,1.373-62.216,7.42-62.216,27.748v48.83
			c0,2.971,2.402,5.376,5.375,5.376h114.679c2.972,0,5.374-2.405,5.374-5.376v-48.83
			C227.561,155.039,179.948,148.992,165.359,147.619z"/>
	</g>
</g>
<g>
</g>
<g>
</g>
<g>
</g>
<g>
</g>
<g>
</g>
<g>
</g>
<g>
</g>
<g>
</g>
<g>
</g>
<g>
</g>
<g>
</g>
<g>
</g>
<g>
</g>
<g>
</g>
<g>
</g>
</svg>
