<?xml version="1.0" encoding="iso-8859-1"?>
<!-- Generator: Adobe Illustrator 19.0.0, SVG Export Plug-In . SVG Version: 6.00 Build 0)  -->
<svg version="1.1" id="Layer_1" xmlns="http://www.w3.org/2000/svg" xmlns:xlink="http://www.w3.org/1999/xlink" x="0px" y="0px"
	 viewBox="0 0 512 512" style="enable-background:new 0 0 512 512;" xml:space="preserve">
<g>
	<g>
		<polygon points="410.861,364.199 410.861,324.053 379.514,324.053 379.514,364.199 341.372,364.199 341.372,395.546 
			379.514,395.546 379.514,435.692 410.861,435.692 410.861,395.546 449.004,395.546 449.004,364.199 		"/>
	</g>
</g>
<g>
	<g>
		<path d="M493.388,317.388c-10.677-16.641-25.3-30.272-42.529-39.751V36.661H344.025v-23.6h-31.347v23.6H138.18v-23.6h-31.347v23.6
			H0v394.255h287.229c5.955,12.704,14.185,24.384,24.189,34.213c22.191,21.803,51.541,33.81,82.643,33.81
			C459.093,498.939,512,446.031,512,381C512,358.361,505.564,336.365,493.388,317.388z M31.347,68.008h75.487v30.735h31.347V68.008
			h174.498v30.735h31.347V68.008h75.487v56.752H31.347V68.008z M284.848,336.527c-0.128,0.312-0.257,0.625-0.381,0.938H240.73
			v-42.962h44.118V336.527z M240.729,263.156v-42.962h44.118v42.962H240.729z M58.27,188.848v179.965h218.489
			c-0.419,4.029-0.637,8.097-0.637,12.188c0,4.193,0.229,8.455,0.679,12.666c0.114,1.067,0.246,2.132,0.39,3.196
			c0.048,0.355,0.104,0.709,0.156,1.064c0.079,0.547,0.153,1.095,0.24,1.642H31.347V156.107h388.165v109.704
			c-0.19-0.042-0.381-0.077-0.573-0.118c-0.544-0.117-1.089-0.228-1.635-0.336c-0.473-0.095-0.946-0.189-1.42-0.278
			c-0.55-0.102-1.1-0.198-1.652-0.294c-0.473-0.082-0.948-0.165-1.422-0.24c-0.556-0.089-1.113-0.169-1.67-0.25
			c-0.472-0.069-0.945-0.139-1.419-0.202c-0.566-0.075-1.135-0.141-1.703-0.208c-0.466-0.054-0.932-0.113-1.4-0.162
			c-0.585-0.062-1.172-0.113-1.76-0.166c-0.452-0.041-0.905-0.087-1.358-0.122c-0.62-0.049-1.24-0.086-1.862-0.125
			c-0.423-0.027-0.846-0.06-1.271-0.081c-0.692-0.037-1.387-0.06-2.08-0.084c-0.356-0.013-0.711-0.031-1.068-0.041
			c-1.051-0.027-2.104-0.042-3.161-0.042c-0.743,0-1.484,0.013-2.225,0.026v-74.24H58.27z M165.265,263.156v-42.962h44.118v42.962
			H165.265z M209.383,294.503v42.962h-44.118v-42.962H209.383z M89.617,263.156v-42.962h44.302v42.962H89.617z M133.918,294.503
			v42.962H89.617v-42.962H133.918z M360.49,220.195v42.962h-44.296v-42.962H360.49z M394.061,467.592
			c-22.833,0-44.381-8.816-60.673-24.824c-9.318-9.155-16.553-20.489-20.921-32.776c-2.273-6.393-3.785-13.007-4.496-19.66
			c-0.332-3.109-0.502-6.249-0.502-9.333c0-24.92,10.756-48.651,29.531-65.126l0.568-0.497c7.129-6.144,15.151-11.055,23.84-14.597
			c10.375-4.228,21.361-6.372,32.653-6.372c4.54,0,9.024,0.345,13.436,1.031c7.354,1.143,14.506,3.234,21.379,6.257l0.014,0.006
			c0.891,0.392,1.778,0.793,2.653,1.213c29.833,14.352,49.11,45.002,49.11,78.085C480.653,428.747,441.808,467.592,394.061,467.592z
			"/>
	</g>
</g>
<g>
</g>
<g>
</g>
<g>
</g>
<g>
</g>
<g>
</g>
<g>
</g>
<g>
</g>
<g>
</g>
<g>
</g>
<g>
</g>
<g>
</g>
<g>
</g>
<g>
</g>
<g>
</g>
<g>
</g>
</svg>
