<?xml version="1.0" encoding="utf-8"?>
<!-- Uploaded to SVGRepo https://www.svgrepo.com -->
<svg version="1.1" id="Layer_1" xmlns="http://www.w3.org/2000/svg" xmlns:xlink="http://www.w3.org/1999/xlink" x="0px" y="0px"
	 viewBox="0 0 256 173" style="enable-background:new 0 0 256 173;" xml:space="preserve">
<path d="M128.3,56.9c15.2,0,27.4-12.2,27.4-27.4S143.5,2,128.3,2c-15.2,0-27.4,12.2-27.4,27.4C100.9,44.7,113.2,56.9,128.3,56.9z
	 M64.6,136.3H15.3c-16,0-16.9-24.4,0.3-24.4h42.7l24.5-36.1C90,66,98.3,61.3,109.9,61.3h36.5c11.7,0,19.9,4.3,27.1,14.6l24.6,36.1
	h43c17.2,0,16.2,24.4,0.6,24.4h-49.3c-3.9,0-8.6-1.4-11.4-5.6l-18.8-26.8l-0.1,67.2H94.8l-0.1-67.2l-18.8,26.8
	C73.2,134.9,68.5,136.3,64.6,136.3z"/>
<path d="M31,42.5c-16,0-29,13-29,29c0,16,13,29,29,29s29-13,29-29C60,55.5,47,42.5,31,42.5z M31,94.7c-12.8,0-23.3-10.4-23.3-23.3
	S18.2,48.2,31,48.2s23.3,10.4,23.3,23.3C54.1,84.3,43.7,94.7,31,94.7z M45.5,65.8c-0.5-0.9-1.7-1.5-2.9-0.8l-10.3,4.6V57.4
	c0-0.7-0.2-1.2-0.7-1.7l0,0c-0.4-0.4-0.9-0.5-1.5-0.5c-1.1,0-2.3,0.8-2.3,2.2v15.9c0,0.9,0.5,1.7,1.3,2.1c0.4,0.2,0.7,0.3,1.1,0.3
	c0.4,0,0.7-0.1,1.1-0.3l13.3-6.3c0.6-0.3,1-0.8,1.2-1.4C45.8,67.1,45.8,66.4,45.5,65.8L45.5,65.8z"/>
<path d="M223.5,58.1v-3.7l-3.9-0.7c-0.3-1.3-0.8-2.5-1.5-3.5l2.3-3.2l-2.6-2.6l-3.2,2.3c-1.1-0.7-2.3-1.2-3.5-1.5l-0.7-3.9h-3.7
	l-0.7,3.9c-1.3,0.3-2.5,0.8-3.5,1.5l-3.2-2.3l-2.6,2.6l2.3,3.2c-0.7,1.1-1.2,2.3-1.5,3.5l-3.9,0.7v3.7l3.9,0.7
	c0.3,1.3,0.8,2.5,1.5,3.5l-2.3,3.2l2.6,2.6l3.2-2.3c1.1,0.7,2.3,1.2,3.5,1.5l0.7,3.9h3.7l0.7-3.9c1.3-0.3,2.5-0.8,3.5-1.5l3.2,2.3
	l2.6-2.6l-2.3-3.2c0.7-1.1,1.2-2.3,1.5-3.5L223.5,58.1z M208.5,62.2c-3.3,0-5.9-2.7-5.9-5.9s2.7-5.9,5.9-5.9c3.3,0,5.9,2.7,5.9,5.9
	C214.4,59.5,211.8,62.2,208.5,62.2z M249.4,79.5l4.6-2.8l-1.9-4.7l-5.2,1.2c-1-1.4-2.2-2.7-3.7-3.7l1.2-5.2l-4.6-1.9l-2.9,4.5
	c-1.7-0.3-3.5-0.3-5.2,0l-2.8-4.5l-4.7,1.9l1.2,5.2c-1.4,1-2.7,2.2-3.7,3.7l-5.2-1.2l-1.9,4.6l4.5,2.9c-0.3,1.7-0.3,3.5,0,5.2
	l-4.6,2.8l1.9,4.7l5.2-1.2c1,1.4,2.2,2.7,3.7,3.7l-1.2,5.2l4.6,1.9l2.9-4.5c1.7,0.3,3.5,0.3,5.2,0l2.8,4.5l4.7-1.9l-1.2-5.2
	c1.4-1,2.7-2.2,3.7-3.7l5.2,1.2l1.9-4.6l-4.5-2.9C249.7,82.9,249.7,81.2,249.4,79.5z M241.6,85.1c-1.7,4.1-6.4,6-10.5,4.3
	s-6-6.4-4.3-10.5s6.4-6,10.5-4.3C241.4,76.3,243.4,81,241.6,85.1z"/>
<g id="shopping_cart">
</g>
<g id="cross">
</g>
<g id="leaf">
</g>
</svg>
