<?xml version="1.0" encoding="iso-8859-1"?>
<!-- Generator: Adobe Illustrator 19.0.0, SVG Export Plug-In . SVG Version: 6.00 Build 0)  -->
<svg version="1.1" id="Layer_1" xmlns="http://www.w3.org/2000/svg" xmlns:xlink="http://www.w3.org/1999/xlink" x="0px" y="0px"
	 viewBox="0 0 512 512" style="enable-background:new 0 0 512 512;" xml:space="preserve">
<g>
	<g>
		<polygon points="204.8,192 204.8,166.4 179.2,166.4 179.2,192 153.6,192 153.6,217.6 179.2,217.6 179.2,243.2 204.8,243.2 
			204.8,217.6 230.4,217.6 230.4,192 		"/>
	</g>
</g>
<g>
	<g>
		<path d="M510.165,259.294l-51.2-128c-3.883-9.719-13.295-16.094-23.765-16.094H384v-12.8c0-21.171-17.229-38.4-38.4-38.4
			s-38.4,17.229-38.4,38.4v12.8H25.6C11.46,115.2,0,126.66,0,140.8v230.4c0,14.14,11.46,25.6,25.6,25.6h26.889
			C58.419,426.01,84.233,448,115.2,448s56.781-21.99,62.711-51.2h156.177c5.931,29.21,31.744,51.2,62.711,51.2
			c30.967,0,56.781-21.99,62.711-51.2H486.4c14.14,0,25.6-11.46,25.6-25.6V268.8C512,265.54,511.377,262.315,510.165,259.294z
			 M332.8,102.4c0-7.049,5.751-12.8,12.8-12.8c7.049,0,12.8,5.751,12.8,12.8v12.8h-25.6V102.4z M25.6,140.8h332.8v128H25.6V140.8z
			 M115.2,422.4c-21.171,0-38.4-17.229-38.4-38.4c0-21.171,17.229-38.4,38.4-38.4s38.4,17.229,38.4,38.4
			C153.6,405.171,136.371,422.4,115.2,422.4z M396.8,422.4c-21.171,0-38.4-17.229-38.4-38.4c0-21.171,17.229-38.4,38.4-38.4
			c21.171,0,38.4,17.229,38.4,38.4C435.2,405.171,417.971,422.4,396.8,422.4z M486.4,371.2h-26.889
			c-5.931-29.21-31.744-51.2-62.711-51.2c-30.967,0-56.781,21.99-62.711,51.2H177.911c-5.931-29.21-31.744-51.2-62.711-51.2
			s-56.781,21.99-62.711,51.2H25.6v-76.8h460.8V371.2z M384,268.8v-128h51.2l51.2,128H384z"/>
	</g>
</g>
<g>
</g>
<g>
</g>
<g>
</g>
<g>
</g>
<g>
</g>
<g>
</g>
<g>
</g>
<g>
</g>
<g>
</g>
<g>
</g>
<g>
</g>
<g>
</g>
<g>
</g>
<g>
</g>
<g>
</g>
</svg>
