<?xml version="1.0" encoding="iso-8859-1"?>
<!-- Generator: Adobe Illustrator 16.0.0, SVG Export Plug-In . SVG Version: 6.00 Build 0)  -->
<!DOCTYPE svg PUBLIC "-//W3C//DTD SVG 1.1//EN" "http://www.w3.org/Graphics/SVG/1.1/DTD/svg11.dtd">
<svg version="1.1" id="Capa_1" xmlns="http://www.w3.org/2000/svg" xmlns:xlink="http://www.w3.org/1999/xlink" x="0px" y="0px"
	 width="441.553px" height="441.553px" viewBox="0 0 441.553 441.553" style="enable-background:new 0 0 441.553 441.553;"
	 xml:space="preserve">
<g>
	<path d="M236.749,58.705V48.119c0-2.775,3.665-8.121,6.608-12.415c4.095-5.975,7.963-11.619,7.963-16.907
		C251.32,8.432,241.516,0,229.463,0h-39.051c-12.053,0-21.857,8.432-21.857,18.797c0,5.288,3.868,10.932,7.963,16.907
		c2.945,4.294,6.608,9.64,6.608,12.415v14.896c0,2.415,1.957,4.371,4.372,4.371c2.415,0,4.372-1.957,4.372-4.371V48.119
		c0-5.484-3.954-11.252-8.14-17.358c-2.866-4.181-6.431-9.383-6.431-11.963c0-5.451,6.006-10.055,13.114-10.055h39.051
		c7.109,0,13.114,4.604,13.114,10.055c0,2.581-3.565,7.783-6.433,11.963c-4.187,6.106-8.139,11.875-8.139,17.358v14.896
		c0,2.415,1.957,4.371,4.372,4.371c0.007,0,0.014-0.001,0.022-0.001c0.029,0,0.058,0.009,0.089,0.009
		c100.746,0,182.71,81.962,182.71,182.708c0,100.746-81.964,182.709-182.71,182.709c-83.231,0-158.321-55.611-176.85-136.643
		c-0.575-2.514-2.731-3.588-4.938-3.199c-0.074,0.014-23.99,5.154-23.99,5.154l34.704-74.841c0.397-0.854,0.96-1.404,1.588-1.548
		c0.626-0.152,1.374,0.107,2.102,0.705l65.517,53.889c0,0-28.299,6.84-28.323,6.846c-2.31,0.701-4.427,1.406-2.576,6.766
		c20.453,59.229,71.912,100.229,133.583,100.229c77.629,0,140.786-63.156,140.786-140.785c0-37.256-15.19-71.939-42.772-97.665
		c-27.059-25.237-62.88-39.135-100.867-39.135c-2.415,0-4.372,1.957-4.372,4.372c0,0.371,0.112,116.934,0.112,116.934
		c0,12.053,9.804,21.857,21.857,21.857h81.962c2.415,0,4.371-1.957,4.371-4.371c0-2.416-1.956-4.371-4.371-4.371h-81.962
		c-7.232,0-13.115-5.883-13.115-13.115V121.44c72.312,2.259,130.412,58.764,130.412,127.949
		c0,72.809-59.234,132.041-132.043,132.041c-56.713,0-106.208-36.4-124.199-90.908l23.592-5.697
		c3.899-0.939,6.543-3.256,7.253-6.352c0.71-3.098-0.659-6.332-3.756-8.879L70.656,215.69c-2.824-2.32-6.323-3.226-9.598-2.476
		c-3.276,0.749-6.038,3.078-7.575,6.393l-34.718,74.872c-1.688,3.639-1.52,7.15,0.465,9.629c1.503,1.883,3.817,2.875,6.559,2.875
		c0.873,0,1.787-0.102,2.733-0.307l19.795-4.27c23.254,82.133,98.364,139.146,184.171,139.146
		c105.568,0,191.453-85.885,191.453-191.451C423.942,145.96,340.357,60.979,236.749,58.705z"/>
</g>
<g>
</g>
<g>
</g>
<g>
</g>
<g>
</g>
<g>
</g>
<g>
</g>
<g>
</g>
<g>
</g>
<g>
</g>
<g>
</g>
<g>
</g>
<g>
</g>
<g>
</g>
<g>
</g>
<g>
</g>
</svg>
