<?xml version="1.0" encoding="iso-8859-1"?>
<!-- Generator: Adobe Illustrator 16.0.0, SVG Export Plug-In . SVG Version: 6.00 Build 0)  -->
<!DOCTYPE svg PUBLIC "-//W3C//DTD SVG 1.1//EN" "http://www.w3.org/Graphics/SVG/1.1/DTD/svg11.dtd">
<svg version="1.1" id="Capa_1" xmlns="http://www.w3.org/2000/svg" xmlns:xlink="http://www.w3.org/1999/xlink" x="0px" y="0px"
	 width="386.486px" height="386.486px" viewBox="0 0 386.486 386.486" style="enable-background:new 0 0 386.486 386.486;"
	 xml:space="preserve">
<g>
	<g>
		<path d="M365.139,308.793h-18.475c-2.414,0-4.371-1.957-4.371-4.371c0-2.416,1.957-4.371,4.371-4.371h18.475
			c6.953,0,12.607-5.656,12.607-12.607v-57.73c0-8.582-3.559-22.148-7.773-29.625l-43.605-77.379
			c-3.838-6.812-13.686-12.567-21.504-12.567h-28.016c-6.951,0-12.607,5.655-12.607,12.607v73.009
			c0,6.953,5.656,12.607,12.607,12.607h59.426c2.414,0,4.371,1.957,4.371,4.371c0,2.416-1.957,4.371-4.371,4.371h-59.426
			c-11.771,0-21.35-9.576-21.35-21.35v-73.009c0-11.773,9.576-21.35,21.35-21.35h28.016c10.953,0,23.744,7.475,29.123,17.019
			l43.604,77.379c4.988,8.855,8.896,23.754,8.896,33.918v57.73C386.488,299.217,376.91,308.793,365.139,308.793z"/>
	</g>
	<path d="M213.533,93.558c-5.688,0-10.49-6.006-10.49-13.114V68.074c0-12.053-9.804-21.857-21.857-21.857H21.857
		C9.805,46.217,0,56.021,0,68.074v218.861c0,12.053,9.805,21.857,21.857,21.857h36.724c2.167,17.707,17.267,31.475,35.552,31.475
		c19.766,0,35.846-16.08,35.846-35.846s-16.08-35.846-35.846-35.846c-6.636,0-13.118,1.826-18.743,5.285
		c-2.056,1.264-2.7,3.955-1.436,6.014c1.263,2.057,3.956,2.699,6.014,1.436c4.249-2.611,9.146-3.99,14.165-3.99
		c14.945,0,27.103,12.158,27.103,27.104s-12.158,27.102-27.103,27.102S67.03,319.369,67.03,304.424c0-2.416-1.957-4.371-4.371-4.371
		c-0.275,0-40.801,0-40.801,0c-7.232,0-13.114-5.883-13.114-13.115V68.074c0-7.232,5.882-13.114,13.114-13.114h159.328
		c7.232,0,13.113,5.882,13.113,13.114v12.369c0,12.053,8.631,21.857,19.234,21.857c5.686,0,10.49,6.006,10.49,13.114v171.521
		c0,7.232-5.883,13.115-13.113,13.115h-59.451c-2.415,0-4.371,1.955-4.371,4.371c0,2.414,1.957,4.371,4.371,4.371h59.451
		c12.053,0,21.855-9.805,21.855-21.857V115.415C232.766,103.364,224.137,93.558,213.533,93.558z"/>
	<path d="M295.135,268.576c-6.639,0-13.119,1.826-18.746,5.285c-2.057,1.264-2.701,3.955-1.436,6.014
		c1.262,2.057,3.955,2.699,6.014,1.436c4.248-2.611,9.148-3.99,14.168-3.99c14.945,0,27.104,12.158,27.104,27.104
		s-12.158,27.102-27.104,27.102s-27.104-12.156-27.104-27.102c0-2.416-1.957-4.371-4.371-4.371h-19.527
		c-2.416,0-4.371,1.955-4.371,4.371c0,2.414,1.955,4.371,4.371,4.371h15.449c2.168,17.707,17.27,31.475,35.551,31.475
		c19.766,0,35.846-16.08,35.846-35.846C330.98,284.656,314.898,268.576,295.135,268.576z"/>
</g>
<g>
</g>
<g>
</g>
<g>
</g>
<g>
</g>
<g>
</g>
<g>
</g>
<g>
</g>
<g>
</g>
<g>
</g>
<g>
</g>
<g>
</g>
<g>
</g>
<g>
</g>
<g>
</g>
<g>
</g>
</svg>
