<?xml version="1.0" encoding="iso-8859-1"?>
<!-- Generator: Adobe Illustrator 19.0.0, SVG Export Plug-In . SVG Version: 6.00 Build 0)  -->
<svg version="1.1" id="Layer_1" xmlns="http://www.w3.org/2000/svg" xmlns:xlink="http://www.w3.org/1999/xlink" x="0px" y="0px"
	 viewBox="0 0 392.598 392.598" style="enable-background:new 0 0 392.598 392.598;" xml:space="preserve">
<path style="fill:#56ACE0;" d="M196.364,21.786c-16.226,0-29.414,13.188-29.414,29.414s13.188,29.414,29.414,29.414
	s29.414-13.188,29.414-29.414S212.59,21.786,196.364,21.786z"/>
<path style="fill:#194F82;" d="M196.364,0c-28.251,0-51.329,23.014-51.329,51.329s23.014,51.329,51.329,51.329
	s51.329-23.014,51.329-51.329S224.614,0,196.364,0z M196.364,80.743c-16.226,0-29.414-13.188-29.414-29.414
	s13.188-29.543,29.414-29.543s29.414,13.188,29.414,29.414S212.59,80.743,196.364,80.743z"/>
<path style="fill:#FFC10D;" d="M268.509,168.275c0-8.339-5.042-15.774-12.541-18.554c-38.465-14.222-80.808-14.222-119.208,0
	c-7.499,2.78-12.541,10.214-12.541,18.554v29.931h144.356v-29.931H268.509z"/>
<path style="fill:#56ACE0;" d="M47.935,274.23c-14.352,0-26.053,11.636-26.053,26.053c0,14.352,11.636,26.053,26.053,26.053
	s26.053-11.636,26.053-26.053C73.988,285.996,62.287,274.23,47.935,274.23z"/>
<path style="fill:#FFFFFF;" d="M196.364,318.642c-14.352,0-26.053,11.636-26.053,26.053c0,14.352,11.636,26.052,26.053,26.052
	c14.352,0,26.053-11.636,26.053-26.052C222.416,330.343,210.715,318.642,196.364,318.642z"/>
<path style="fill:#56ACE0;" d="M344.792,274.23c-14.352,0-26.053,11.636-26.053,26.053c0,14.352,11.636,26.053,26.053,26.053
	c14.352,0,26.053-11.636,26.053-26.053C370.844,285.996,359.208,274.23,344.792,274.23z"/>
<path style="fill:#194F82;" d="M344.792,252.444c-9.244,0-17.842,2.715-25.212,7.24l-39.693-39.693
	c5.818-0.259,10.408-5.042,10.408-10.925v-40.792c0-17.39-10.731-33.099-26.828-39.046c-43.378-15.968-91.022-15.968-134.4,0
	c-15.968,5.947-26.828,21.657-26.828,39.046v40.792c0,5.883,4.655,10.667,10.537,10.925l-39.693,39.693
	c-7.37-4.59-15.903-7.24-25.212-7.24c-26.376,0-47.838,21.463-47.838,47.838c0,26.376,21.463,47.838,47.838,47.838
	s47.838-21.463,47.838-47.838c0-9.244-2.715-17.842-7.24-25.212l55.079-55.079h41.826v78.222
	c-21.075,4.978-36.913,23.855-36.913,46.545c0,26.376,21.463,47.838,47.838,47.838s47.838-21.463,47.838-47.838
	c0-22.626-15.774-41.568-36.913-46.545v-78.222h41.826l55.079,55.079c-4.59,7.37-7.24,15.903-7.24,25.212
	c0,26.376,21.463,47.838,47.838,47.838s47.838-21.463,47.838-47.838C392.63,273.907,371.168,252.444,344.792,252.444z
	 M47.935,326.335c-14.352,0-26.053-11.636-26.053-26.053c0-14.352,11.636-26.053,26.053-26.053s26.053,11.636,26.053,26.053
	C73.988,314.634,62.287,326.335,47.935,326.335z M196.364,370.747c-14.352,0-26.053-11.636-26.053-26.053
	c0-14.352,11.636-26.053,26.053-26.053c14.352,0,26.053,11.636,26.053,26.053C222.416,359.111,210.715,370.747,196.364,370.747z
	 M124.218,168.275c0-8.339,5.042-15.774,12.541-18.554c38.465-14.222,80.808-14.222,119.208,0
	c7.499,2.78,12.541,10.214,12.541,18.554v29.931H124.218V168.275z M344.792,326.335c-14.352,0-26.053-11.636-26.053-26.053
	c0-14.352,11.636-26.053,26.053-26.053c14.352,0,26.053,11.636,26.053,26.053C370.844,314.634,359.208,326.335,344.792,326.335z"/>
<g>
</g>
<g>
</g>
<g>
</g>
<g>
</g>
<g>
</g>
<g>
</g>
<g>
</g>
<g>
</g>
<g>
</g>
<g>
</g>
<g>
</g>
<g>
</g>
<g>
</g>
<g>
</g>
<g>
</g>
</svg>
