<?xml version="1.0" encoding="iso-8859-1"?>
<!-- Generator: Adobe Illustrator 19.0.0, SVG Export Plug-In . SVG Version: 6.00 Build 0)  -->
<svg version="1.1" id="Capa_1" xmlns="http://www.w3.org/2000/svg" xmlns:xlink="http://www.w3.org/1999/xlink" x="0px" y="0px"
	 viewBox="0 0 211.863 211.863" style="enable-background:new 0 0 211.863 211.863;" xml:space="preserve">
<g>
	<path d="M194.189,53.213V19.252h-32.246V0H49.919v19.252H17.674v33.961h11.583v45.364H17.674v33.961h11.583v45.364H17.674v33.961
		h176.515v-33.961h-11.583v-45.364h11.583V98.577h-11.583V53.213H194.189z M105.931,158.058c-25.129,0-45.5-20.371-45.5-45.5
		s20.371-45.5,45.5-45.5s45.5,20.371,45.5,45.5S131.06,158.058,105.931,158.058z"/>
	<path d="M105.973,78.681l-3.555,3.509c-0.84,0.83-20.574,20.515-20.574,38.091c0,13.281,10.806,24.087,24.087,24.087
		s24.087-10.806,24.087-24.087c0-16.81-18.431-35.925-20.532-38.049L105.973,78.681z"/>
</g>
<g>
</g>
<g>
</g>
<g>
</g>
<g>
</g>
<g>
</g>
<g>
</g>
<g>
</g>
<g>
</g>
<g>
</g>
<g>
</g>
<g>
</g>
<g>
</g>
<g>
</g>
<g>
</g>
<g>
</g>
</svg>
