<?xml version="1.0" encoding="iso-8859-1"?>
<!-- Generator: Adobe Illustrator 19.0.0, SVG Export Plug-In . SVG Version: 6.00 Build 0)  -->
<svg version="1.1" id="Layer_1" xmlns="http://www.w3.org/2000/svg" xmlns:xlink="http://www.w3.org/1999/xlink" x="0px" y="0px"
	 viewBox="0 0 295.239 295.239" style="enable-background:new 0 0 295.239 295.239;" xml:space="preserve">
<g>
	<g>
		<g>
			<path d="M209.525,71.429L209.525,71.429c0-7.876-6.41-14.286-14.286-14.286h-66.381l80.667,62.052V71.429z M200.001,99.852
				l-43.143-33.186h38.381c2.624,0,4.762,2.138,4.762,4.762V99.852z"/>
			<path d="M171.43,180.952H66.667c-13.129,0-23.81,10.681-23.81,23.81h9.524c0-7.876,6.41-14.286,14.286-14.286H171.43
				c7.876,0,14.286,6.41,14.286,14.286h9.524C195.239,191.633,184.558,180.952,171.43,180.952z"/>
			<path d="M171.43,152.381H66.667c-7.876,0-14.286-6.41-14.286-14.286h-9.524c0,13.129,10.681,23.81,23.81,23.81H171.43
				c13.129,0,23.81-10.681,23.81-23.81h-9.524C185.714,145.971,179.305,152.381,171.43,152.381z"/>
			<path d="M275.276,182.929c-10.143-16.7-20.629-35.31-22.924-54.357h-9.462c-0.767,4.762-2.51,12.886-4.79,19.148V57.143
				c0-13.129-10.681-23.81-23.81-23.81H104.763V0H19.048v33.814C8.196,36.029,0.001,45.648,0.001,57.143v214.286
				c0,13.129,10.681,23.81,23.81,23.81h190.476c10.243,0,18.919-6.538,22.271-15.633c3.557,0.848,7.248,1.348,11.062,1.348
				c26.257,0,47.619-21.229,47.619-47.486C295.239,215.671,285.544,199.833,275.276,182.929z M85.714,9.524h9.524v23.809h-9.524
				V9.524z M66.667,9.524h9.524v23.81h-9.524V9.524z M47.62,33.333V9.524h9.524v23.81L47.62,33.333L47.62,33.333z M28.571,9.524
				h9.524v23.81h-9.524V9.524z M214.287,285.714H23.811c-7.876,0-14.286-6.41-14.286-14.286V57.143
				c0-7.876,6.41-14.286,14.286-14.286h80.952h109.524c7.876,0,14.286,6.41,14.286,14.286v110.89
				c-2.771,4.962-5.695,9.829-8.61,14.629c-10.267,16.909-19.962,32.876-19.962,50.671c0,19.105,11.333,35.567,27.605,43.148
				C225.553,281.862,220.377,285.714,214.287,285.714z M247.62,271.429c-21.005,0-38.095-17.09-38.095-38.095
				c0-15.129,9.024-29.99,18.576-45.724c6.981-11.5,14.6-24.043,19.519-38.129c4.914,14.086,12.533,26.629,19.519,38.129
				c9.552,15.733,18.576,30.595,18.576,45.724C285.714,254.338,268.625,271.429,247.62,271.429z"/>
			<path d="M266.667,233.334L266.667,233.334c0,10.504-8.543,19.047-19.048,19.047v9.524c15.757,0,28.571-12.814,28.571-28.571
				H266.667z"/>
			<rect x="23.811" y="57.143" width="9.524" height="9.524"/>
			<rect x="42.857" y="57.143" width="9.524" height="9.524"/>
			<rect x="61.906" y="57.143" width="9.524" height="9.524"/>
			<rect x="23.811" y="261.905" width="9.524" height="9.524"/>
			<rect x="42.857" y="261.905" width="9.524" height="9.524"/>
		</g>
	</g>
</g>
<g>
</g>
<g>
</g>
<g>
</g>
<g>
</g>
<g>
</g>
<g>
</g>
<g>
</g>
<g>
</g>
<g>
</g>
<g>
</g>
<g>
</g>
<g>
</g>
<g>
</g>
<g>
</g>
<g>
</g>
</svg>
