<?xml version="1.0" encoding="iso-8859-1"?>
<!-- Generator: Adobe Illustrator 19.0.0, SVG Export Plug-In . SVG Version: 6.00 Build 0)  -->
<svg version="1.1" id="Layer_1" xmlns="http://www.w3.org/2000/svg" xmlns:xlink="http://www.w3.org/1999/xlink" x="0px" y="0px"
	 viewBox="0 0 496 496" style="enable-background:new 0 0 496 496;" xml:space="preserve">
<g>
	<g>
		<g>
			<rect x="104" y="448" width="80" height="16"/>
			<path d="M336.408,256c4.032,40.368,38.184,72,79.592,72c44.112,0,80-35.888,80-80s-35.888-80-80-80
				c-41.408,0-75.568,31.632-79.592,72H320V88h16.408c4.032,40.368,38.184,72,79.592,72c44.112,0,80-35.888,80-80S460.112,0,416,0
				c-41.408,0-75.568,31.632-79.592,72H304v168h-16V40c0-22.056-17.944-40-40-40H40C17.944,0,0,17.944,0,40v416
				c0,22.056,17.944,40,40,40h208c22.056,0,40-17.944,40-40V256h16v168h32.408c4.032,40.368,38.184,72,79.592,72
				c44.112,0,80-35.888,80-80s-35.888-80-80-80c-41.408,0-75.568,31.632-79.592,72H320V256H336.408z M416,184
				c35.288,0,64,28.712,64,64c0,35.288-28.712,64-64,64c-35.288,0-64-28.712-64-64C352,212.712,380.712,184,416,184z M416,16
				c35.288,0,64,28.712,64,64s-28.712,64-64,64c-35.288,0-64-28.712-64-64S380.712,16,416,16z M272,456c0,13.232-10.768,24-24,24H40
				c-13.232,0-24-10.768-24-24v-24h256V456z M272,240h-16.408C251.464,181.976,203.056,136,144,136c-61.76,0-112,50.24-112,112
				s50.24,112,112,112c59.056,0,107.464-45.976,111.592-104H272v160H16V64h256V240z M194.568,191.488
				c-7.512-15.104-17.024-27.152-25.48-36.048c17.2,4.672,32.48,13.968,44.416,26.528
				C209.6,184.592,203.336,188.184,194.568,191.488z M223.64,194.456c8.92,13.224,14.56,28.784,15.952,45.544H207.6
				c-0.784-12.272-3.264-23.512-6.864-33.688C211.336,202.264,218.936,197.76,223.64,194.456z M178.752,196.224
				c-7.728,1.776-16.624,3.096-26.752,3.568V161.12C160.072,168.832,170.536,180.728,178.752,196.224z M185.344,211.112
				c3.2,8.784,5.448,18.416,6.24,28.888H152v-24.216C164.776,215.248,175.848,213.496,185.344,211.112z M191.584,256
				c-0.792,10.472-3.04,20.104-6.24,28.888c-9.496-2.384-20.568-4.136-33.344-4.672V256H191.584z M178.752,299.784
				c-8.216,15.496-18.68,27.392-26.752,35.104v-38.672C162.128,296.68,171.024,298.008,178.752,299.784z M194.576,304.512
				c8.76,3.304,15.032,6.904,18.936,9.52c-11.936,12.56-27.216,21.864-44.416,26.528
				C177.544,331.664,187.056,319.616,194.576,304.512z M200.736,289.688c3.6-10.176,6.08-21.416,6.864-33.688h32
				c-1.4,16.76-7.04,32.328-15.96,45.544C218.936,298.24,211.336,293.736,200.736,289.688z M87.264,206.312
				c-3.6,10.176-6.08,21.416-6.864,33.688h-32c1.4-16.76,7.04-32.328,15.96-45.544C69.064,197.76,76.664,202.264,87.264,206.312z
				 M74.488,181.968c11.936-12.56,27.216-21.856,44.416-26.528c-8.448,8.896-17.96,20.944-25.48,36.048
				C84.664,188.184,78.392,184.584,74.488,181.968z M80.4,256c0.784,12.272,3.264,23.512,6.864,33.688
				c-10.6,4.048-18.2,8.552-22.904,11.856C55.44,288.328,49.8,272.76,48.408,256H80.4z M93.424,304.512
				c7.52,15.104,17.032,27.16,25.48,36.048c-17.2-4.672-32.48-13.968-44.416-26.528C78.4,311.408,84.664,307.816,93.424,304.512z
				 M109.248,299.776c7.728-1.776,16.624-3.096,26.752-3.568v38.672C127.928,327.168,117.464,315.272,109.248,299.776z
				 M102.656,284.888c-3.2-8.784-5.448-18.416-6.24-28.888H136v24.216C123.224,280.752,112.152,282.504,102.656,284.888z
				 M96.416,240c0.792-10.472,3.04-20.104,6.24-28.888c9.496,2.384,20.568,4.136,33.344,4.672V240H96.416z M109.248,196.216
				c8.216-15.496,18.68-27.392,26.752-35.104v38.672C125.872,199.32,116.976,197.992,109.248,196.216z M272,48H16v-8
				c0-13.232,10.768-24,24-24h208c13.232,0,24,10.768,24,24V48z M416,352c35.288,0,64,28.712,64,64c0,35.288-28.712,64-64,64
				c-35.288,0-64-28.712-64-64C352,380.712,380.712,352,416,352z"/>
			<polygon points="408,128 424,128 424,88 448,88 448,72 424,72 424,48 448,48 448,32 408,32 408,72 384,72 384,88 408,88 			"/>
			<polygon points="408,464 448,464 448,448 424,448 424,400 440,400 440,384 424,384 424,368 408,368 408,384 392,384 392,400 
				408,400 			"/>
			<rect x="376" y="232" width="16" height="56"/>
			<rect x="376" y="200" width="16" height="16"/>
			<path d="M424,260c0-6.616,5.384-12,12-12c6.616,0,12,5.384,12,12v28h16v-28c0-15.44-12.56-28-28-28c-4.288,0-8.36,0.968-12,2.704
				V232h-16v56h16V260z"/>
		</g>
	</g>
</g>
<g>
</g>
<g>
</g>
<g>
</g>
<g>
</g>
<g>
</g>
<g>
</g>
<g>
</g>
<g>
</g>
<g>
</g>
<g>
</g>
<g>
</g>
<g>
</g>
<g>
</g>
<g>
</g>
<g>
</g>
</svg>
