<?xml version="1.0" ?><svg width="20px" height="20px" viewBox="0 -0.08 20 20" data-name="Capa 1" id="Capa_1" xmlns="http://www.w3.org/2000/svg"><path d="M10,3.49a7.08,7.08,0,1,0,7.07,7.07A7.08,7.08,0,0,0,10,3.49Zm0,13.45a6.38,6.38,0,1,1,6.37-6.38A6.38,6.38,0,0,1,10,16.94Z"/><path d="M15.22,10.36a.31.31,0,0,0-.31.31.31.31,0,0,0,.62,0A.31.31,0,0,0,15.22,10.36Z"/><path d="M4.78,10.36a.31.31,0,0,0-.31.31.31.31,0,0,0,.62,0A.31.31,0,0,0,4.78,10.36Z"/><circle cx="10" cy="15.72" r="0.31"/><path d="M9.06,2.92h1.86a.36.36,0,0,0,.35-.36.35.35,0,0,0-.35-.34H9.05a.35.35,0,0,0-.35.35A.36.36,0,0,0,9.06,2.92Z"/><path d="M10,5.24a.36.36,0,0,0-.36.35v5.08A.35.35,0,0,0,10,11a.34.34,0,0,0,.35-.35V5.59A.35.35,0,0,0,10,5.24Z"/></svg>