<?xml version="1.0" encoding="iso-8859-1"?>
<!-- Generator: Adobe Illustrator 19.0.0, SVG Export Plug-In . SVG Version: 6.00 Build 0)  -->
<svg version="1.1" id="Layer_1" xmlns="http://www.w3.org/2000/svg" xmlns:xlink="http://www.w3.org/1999/xlink" x="0px" y="0px"
	 viewBox="0 0 512 512" style="enable-background:new 0 0 512 512;" xml:space="preserve">
<g>
	<g>
		<path d="M256.001,0L0.009,95.939V512h77.323h76.831h203.674h76.831h77.323V95.939L256.001,0z M123.747,481.584h-15.999v-48.869
			h15.999V481.584z M357.837,481.584H154.163v-48.869h203.674V481.584z M404.252,481.584h-15.999v-48.869h15.999V481.584z
			 M357.837,402.299H154.163H77.332H76.74v-17.236h358.52v17.236h-0.592H357.837z M253.614,240.802h-78.657l83.429-83.429h78.657
			L253.614,240.802z M369.42,168.01l12.965,72.792h-85.757L369.42,168.01z M131.942,240.802h-2.327l14.861-83.429h70.896
			L131.942,240.802z M399.944,271.218c11.49,0,20.839,9.349,20.839,20.839v62.59h-88.737v-63.152H301.63v63.152h-30.42v-63.152
			h-30.416v63.152h-30.42v-63.152h-30.416v63.152H91.219v-62.59c0-11.49,9.348-20.839,20.839-20.839H399.944z M481.575,481.584
			L481.575,481.584h-46.907v-48.869h31.008v-78.068h-14.478v-62.59c0-23.528-15.941-43.391-37.585-49.389l-20.611-115.711H118.998
			l-20.611,115.71c-21.644,5.999-37.584,25.862-37.584,49.389v62.59H46.324v78.068h31.008v48.869H30.425V117.022l225.575-84.541
			l225.574,84.541V481.584z"/>
	</g>
</g>
<g>
	<g>
		<circle cx="130.283" cy="312.931" r="18.822"/>
	</g>
</g>
<g>
	<g>
		<circle cx="381.723" cy="312.931" r="18.822"/>
	</g>
</g>
<g>
</g>
<g>
</g>
<g>
</g>
<g>
</g>
<g>
</g>
<g>
</g>
<g>
</g>
<g>
</g>
<g>
</g>
<g>
</g>
<g>
</g>
<g>
</g>
<g>
</g>
<g>
</g>
<g>
</g>
</svg>
