<?xml version="1.0" ?><svg width="512px" height="512px" viewBox="0 0 512 512" xmlns="http://www.w3.org/2000/svg"><g id="Wellness_activity_notification"><path d="M36.365,174.4066H59.3179a9.0046,9.0046,0,0,0,9.0046-9.0046V150.0953h76.0764V165.402a9.0046,9.0046,0,0,0,9.0047,9.0046h22.9528a9.0045,9.0045,0,0,0,9.0047-9.0045v-58.093a9.0046,9.0046,0,0,0-9.0047-9.0045H153.4036a9.0046,9.0046,0,0,0-9.0047,9.0046v15.3066H68.3225V107.3091a9.0046,9.0046,0,0,0-9.0046-9.0045H36.3647a9.0045,9.0045,0,0,0-9.0043,9.0045V165.402A9.0045,9.0045,0,0,0,36.365,174.4066Zm120.0339-64.102h16.9622v52.102H156.3989Zm-117.0385,0H56.3225v52.102H39.36Z"/><path d="M56.7507,279.56h95.0469a32.0061,32.0061,0,0,0,0-64.0122H56.7507a32.0061,32.0061,0,0,0,0,64.0122Zm0-52.0122h46.1128V267.56H56.7507a20.0061,20.0061,0,0,1,0-40.0122Z"/><path d="M457.0071,41.1183h-185.78A31.2327,31.2327,0,0,0,239.9944,72.351v55.2514H213.7971a6,6,0,0,0,0,12h26.1973v98.5488H213.7971a6,6,0,0,0,0,12h26.1973V348.7H213.7971a6,6,0,0,0,0,12h26.1973V439.649a31.2327,31.2327,0,0,0,31.2324,31.2327h185.78A31.2328,31.2328,0,0,0,488.24,439.649V72.351A31.2328,31.2328,0,0,0,457.0071,41.1183ZM382.5339,56.7351h11.29a6,6,0,0,1,0,12h-11.29a6,6,0,0,1,0-12Zm-48.124,0h28.2256a6,6,0,0,1,0,12H334.41a6,6,0,0,1,0-12Zm-78.0273,82.8673h2.4765a23.04,23.04,0,0,1,17.2681,7.792L309.8411,185.6a75.5867,75.5867,0,0,0-22.9883,52.5513h-30.47Zm0,110.5488H287.512a75.7839,75.7839,0,0,0,26.46,47.9c-.091.0909-.1841.179-.2705.2769l-37.5742,42.58a23.0384,23.0384,0,0,1-17.2681,7.792h-2.4765Zm215.4692,185.108a17.95,17.95,0,0,1-17.95,17.95H274.3328a17.95,17.95,0,0,1-17.95-17.95V360.7h2.4765a35.045,35.045,0,0,0,26.2661-11.8526l37.5743-42.58a5.9909,5.9909,0,0,0,.8872-1.3376,75.8111,75.8111,0,0,0,114.6557-59.1444,6,6,0,1,0-11.9648-.9111,63.83,63.83,0,1,1-63.6426-68.7471,6,6,0,0,0,0-12,75.3838,75.3838,0,0,0-43.5508,13.8108l-33.959-38.4831a35.0433,35.0433,0,0,0-26.2661-11.8526h-2.4765V101.4331a17.95,17.95,0,0,1,17.95-17.95H453.9016a17.95,17.95,0,0,1,17.95,17.95Z"/><path d="M420.8484,352.7313H307.386a6,6,0,0,0,0,12H420.8484a6,6,0,0,0,0-12Z"/><path d="M420.8484,377.1805H307.386a6,6,0,0,0,0,12H420.8484a6,6,0,0,0,0-12Z"/><path d="M393.6086,238.5972c-1.22-4.71-2.29-9.45-3.05-14.24a28.2654,28.2654,0,0,0-20.76-22.83h0v-3.4458a7.2029,7.2029,0,1,0-14.4058,0v3.4949l-.0039.0008a28.2434,28.2434,0,0,0-20.36,21.58c-1.05,5.16-2.11,10.33-3.38,15.44-.1.42-.4,1.5-.77,2.84h63.49C393.9988,240.0771,393.7087,238.9772,393.6086,238.5972Z"/><path d="M398.739,249.5472h-1v.03h-71.23v-.03h-.07a7.2,7.2,0,0,0,0,14.4h15.3259a20.8536,20.8536,0,0,0,41.6519,0H398.739a7.2,7.2,0,0,0,0-14.4Zm-36.1484,22.18a8.89,8.89,0,0,1-8.8059-7.78h17.6118A8.89,8.89,0,0,1,362.5906,271.7269Z"/><path d="M424.2893,146.17a37.4121,37.4121,0,1,0,37.4121,37.4121A37.4543,37.4543,0,0,0,424.2893,146.17Zm0,62.8242a25.4121,25.4121,0,1,1,25.4121-25.4121A25.4121,25.4121,0,0,1,424.2893,208.994Z"/><path d="M436.4456,177.6908h-6.4571v-6.4565a5.5,5.5,0,0,0-11,0v6.4565h-6.456a5.5,5.5,0,0,0,0,11h6.456v6.4565a5.5,5.5,0,1,0,11,0v-6.4565h6.4571a5.5,5.5,0,0,0,0-11Z"/><path d="M183.29,372.8672c-6.6936-2.1544-16.2625-3.9312-27.6255-5.2211-7.1921-7.6308-18.5657-14.5862-36.7563-17.3906a19.7947,19.7947,0,0,0-5.89-3.0164,23.12,23.12,0,0,0,.3311-15.5283A17.944,17.944,0,0,0,101.03,320.4081c-8.0869-2.335-13.3242-.0479-16.4853,2.6836-3.7754-2.7315-8.64-3.1455-13.7461-1.0078l-.334.1523c-6.0928,2.9981-9.6,8.4639-10.0811,15.4268a24.4444,24.4444,0,0,0-12.3066,1.9277,20.1384,20.1384,0,0,0-12.7734,17.4521,21.1482,21.1482,0,0,0,4.75,14.9441c-11.2818,3.1079-16.2935,7.17-16.2935,12.9v.26a24.0865,24.0865,0,0,0,15.1,22.34c6,2.45,16.87,8.27,22.2,19.61.47,1,1.29,3.31,1.8,4.81,2.33,12.28,26.76,16.67,47.32,16.67,20.29,0,44.64-4.31,47.27-16.42.4-1.22,1.05-3.13,1.41-3.97,5.4-12.54,17.63-18.66,22.64-20.7a24.1016,24.1016,0,0,0,15.1-22.34v-.26C196.6,377.1571,186.93,374.0472,183.29,372.8672ZM47.2732,357.8964a8.257,8.257,0,0,1,5.3564-7.2022c3.4239-1.4043,6.3389-1.5576,8.6661-.4551a7.9253,7.9253,0,0,0,11.24-8.3779c-1.0156-6.4385,1.7783-8.13,3.0557-8.7734,1.7773-.7159,2.0371-.3223,2.5439.4375a7.9827,7.9827,0,0,0,6.7978,3.539,7.88,7.88,0,0,0,6.6084-3.872c.5391-.9043,1.5381-2.5928,6.1583-1.2549a5.9348,5.9348,0,0,1,4.3535,3.8242,11.8435,11.8435,0,0,1-1.5948,9.8691,8.0157,8.0157,0,0,0-.67,7.8536,7.7884,7.7884,0,0,0,6.3086,4.5185c1.5108.1592,5.1738.7549,6.5586,2.8389,1.3311,2.0039.6875,5.4785-.0859,8.04-3.1055,10.2832-20.293,14.99-27.2793,16.0567-.917-.04-3.0789-.1519-6.1714-.4192a50.5491,50.5491,0,0,1-.1558-8.2871A33.883,33.883,0,0,1,86.2561,356.82a5.1588,5.1588,0,0,0-8.0144-6.498c-4.5693,5.642-9.1284,14.368-9.613,26.9824q-.1044,2.8879.0869,6.0505c-.3677-.05-1.7139-.3818-1.8379-.6328a44.1,44.1,0,0,0-3.9424-6.4726,35.9585,35.9585,0,0,0-10.9189-9.5762A9.4117,9.4117,0,0,1,47.2732,357.8964ZM176.96,396.3772c-7.92,3.23-22.22,11.05-29.12,27.06-.76,1.76-2.07,5.91-2.07,5.91-1.84,2.25-14.04,7.23-35.59,7.23-21.47,0-33.66-4.94-35.56-7.2,0,0-1.7-5.26-2.7-7.38-7.05-15.03-20.9-22.5-28.52-25.62a12.1592,12.1592,0,0,1-7.59-10.07c2.1233-1.3833,7.48-3.1156,16.0064-4.6929a19.08,19.08,0,0,1,1.4443,1.7351,32.06,32.06,0,0,1,2.8672,4.706v.001a12.93,12.93,0,0,0,9.8,7.0293c6.4878.9158,11.77,1.3894,15.1963,1.63,10.43.8568,22.5268,1.3563,34.8974,1.3563,14.66,0,29.1316-.697,40.9065-1.8638a9.9441,9.9441,0,0,0,8.2781-13.5854c-.2219-.55-.4651-1.1123-.7183-1.68A104.5619,104.5619,0,0,1,179.6,384.2972a24.6737,24.6737,0,0,1,4.94,2.06A12.1792,12.1792,0,0,1,176.96,396.3772Z"/></g></svg>