<?xml version="1.0" encoding="iso-8859-1"?>
<!-- Generator: Adobe Illustrator 16.0.0, SVG Export Plug-In . SVG Version: 6.00 Build 0)  -->
<!DOCTYPE svg PUBLIC "-//W3C//DTD SVG 1.1//EN" "http://www.w3.org/Graphics/SVG/1.1/DTD/svg11.dtd">
<svg xmlns="http://www.w3.org/2000/svg" xmlns:xlink="http://www.w3.org/1999/xlink" version="1.1" id="Capa_1" x="0px" y="0px" width="512px" height="512px" viewBox="0 0 48.97 48.97" style="enable-background:new 0 0 48.97 48.97;" xml:space="preserve">
<g>
	<g>
		<path d="M27.963,22.294c-0.552,0.036-1.419-0.137-1.487-0.685c-0.136-1.079,0.294-2.922,0.231-3.419    c-0.155-1.256-0.474-2.259-1.094-3.347c-1.078-1.895-3.447-2.638-5.478-2.667c-1.964-0.028-3.683,0.893-5.122,2.141    c-0.904,0.784-1.42,1.961-1.819,3.05c-0.957,2.608-0.349,2.073-3.083,0.972c-3.975-1.601-12.809,1.612-9.307,7.155    c1.037,1.64,2.319,2.7,3.896,3.78c2.41,1.652-1.191,4.398-1.897,5.72c-1.35,2.525,0.107,5.293,2.021,6.966    c1.752,1.533,4.129,1.868,6.357,1.725c1.262-0.081,2.467-0.683,3.545-1.276c2.038-1.125,2.224,1.233,3.666,2.267    c2.433,1.744,5.012,2.366,7.88,1.42c2.147-0.711,4.317-3.412,3.692-5.78c-0.172-0.649-2.468-4.667-0.585-4.76    c1.362-0.067,2.688-0.615,3.854-1.275c1.836-1.041,2.913-2.857,3.367-4.863C37.841,23.949,32.296,22.009,27.963,22.294z     M24.744,18.988c-0.028,0.532-0.431,1.265-0.836,1.64c-0.426,0.396-0.852,0.792-1.279,1.188c-0.404,0.376-0.672,0.493-0.585,0.264    c0.05-0.132,0.104-0.269,0.165-0.412c0.153-0.359,0.35-0.793,0.538-1.265c0.206-0.512,0.439-1.033,0.562-1.147    c0.122-0.114,0.062-0.021,0.473-0.391c0.057-0.051,0.117-0.106,0.183-0.165C24.373,18.33,24.772,18.456,24.744,18.988z     M8.987,20.309c0.253-0.119,0.49-0.229,0.524-0.263c0.033-0.035,0.168-0.009,0.299,0.056c0.077,0.038,0.154,0.078,0.232,0.125    c1.43,0.865,0.926,0.763,2.258,1.113c1.883,0.494,2.402-1.768,2.559-3.046c0.004-0.029,0.01-0.055,0.016-0.081    c0.011-0.044,0.337-0.396,0.729-0.784c1.026-1.013,2.053-2.026,3.079-3.039c0.393-0.388,1.163-0.737,1.709-0.656    c0.45,0.066,0.893,0.194,1.317,0.385c0.504,0.226,0.855,0.508,0.843,0.52c-0.012,0.012-0.004,0.016,0.018,0.011    s0.41,0.248,0.78,0.659c0.281,0.313,0.532,0.67,0.746,1.071c0.261,0.487,0.142,1.167-0.176,1.476    c-0.316,0.308-0.482,0.109-0.534-0.441c-0.076-0.793-0.456-1.493-1.376-1.932c-4.021-1.921-4.911,1.465-5.707,4.517    c-0.14,0.534-0.356,1.059-0.476,1.174c-0.12,0.115-0.159,0.248-0.086,0.296c0.072,0.048,0.01,0.518-0.21,1.025    c-0.151,0.351-0.322,0.656-0.52,0.896c-0.352,0.426-0.756,0.486-0.682,0.411c0.073-0.076-0.011-0.259-0.193-0.404    c-0.183-0.145-0.446-0.147-0.581-0.012c-0.136,0.135-0.608-0.018-1.049-0.35c-0.903-0.68-1.979-1.5-3.064-2.079    C8.955,20.696,8.734,20.427,8.987,20.309z M9.576,22.956c0.964,0.759,1.776,1.544,2.928,2.176    c0.037,0.021,0.078,0.036,0.122,0.049c0.07,0.02,0.165,0.036,0.206,0.052c0.022,0.008,0.046,0.016,0.076,0.021    c2.208,0.339,3.685-0.531,4.501-2.302c0.23-0.501,0.397-1.252,0.46-1.64c0.064-0.388,0.029-1.155,0.123-1.699    c0.163-0.949,0.885-0.916,2.165,0.099c0.433,0.343,0.589,1.069,0.344,1.563c-0.261,0.525-0.531,1.048-0.693,1.611    c-0.507,1.761-0.471,2.76,0.553,4.252c0.502,0.73,2.025,0.724,2.702,0.611c0.73-0.121,1.356-0.235,2.017-0.372    c0.541-0.11,1.177,0.192,1.423,0.688c0.124,0.25,0.248,0.5,0.373,0.75c0.245,0.495-0.002,0.865-0.554,0.834    c-0.556-0.031-1.111-0.058-1.668-0.078c-3.124-0.14-5.01,1.806-3.743,4.849c0.352,0.846,1.129,1.759,1.662,2.492    c0.25,0.416,0.499,0.832,0.748,1.248c0.284,0.474,0.225,1.205-0.214,1.541c-0.961,0.736-1.622,0.482-1.984-0.763    c-0.155-0.53-0.379-1.389-0.583-1.901c-0.546-1.371-1.115-2.873-2.378-3.646c-3.109-1.902-5.806,1.547-7.407,3.657    c-2.015,2.655-1.762-2.658-0.142-3.752c0.699-0.472,1.529-0.98,2.114-1.6c1.116-1.183,0.988-2.481,0.357-3.805    c-0.486-1.021-2.318-1.543-3.301-1.958c-0.18-0.069-0.358-0.14-0.537-0.208c-0.297-0.115-0.987-0.266-1.502-0.463    c-1.183-0.456-1.108-1.226,0.221-2.308C8.393,22.607,9.142,22.615,9.576,22.956z M26.556,31.709    c-0.71,0.712-1.424,1.431-2.138,2.149c-0.389,0.392-0.807,0.266-0.766-0.285c0.109-1.459,1.121-2.684,2.967-2.574    c0.104,0.006,0.211,0.009,0.321,0.009C27.118,31.009,26.945,31.318,26.556,31.709z M5.108,26.354    c-0.291,0.301-0.75,0.375-1.011,0.149c-0.262-0.225-0.229-0.661,0.058-0.956s0.7-0.315,0.97-0.099    C5.394,25.665,5.398,26.054,5.108,26.354z M4.578,22.147c-0.079,0.186-0.143,0.359-0.193,0.525    c-0.09,0.295-0.448,0.858-0.842,1.246c-0.068,0.067-0.136,0.134-0.204,0.201c-0.393,0.388-0.944,0.309-1.07-0.229    c-0.08-0.34-0.107-0.682-0.087-1.017c0.034-0.551,0.524-1.286,0.924-1.667c0.382-0.364,0.764-0.729,1.145-1.095    c0.398-0.383,1.146-0.849,1.695-0.914c0.385-0.046,0.791-0.049,1.216-0.002c0.549,0.062,0.789,0.383,0.553,0.615    c-0.235,0.232-0.89,0.355-1.415,0.524C5.618,20.553,5.023,21.108,4.578,22.147z M4.247,37.692c-0.36-2.696,2.865-4.989,4.392-7.16    c0.097-0.137,0.084-0.359-0.025-0.485c-0.027-0.03-0.057-0.06-0.086-0.089c-0.049-0.047,0.003-0.18,0.114-0.294    c0.11-0.114,0.023-0.337-0.19-0.508c-0.212-0.171-0.457-0.239-0.554-0.143c-0.098,0.097-0.517-0.116-0.96-0.444    c-0.235-0.173-0.474-0.341-0.714-0.508c-0.454-0.314-0.63-0.757-0.393-0.992c0.237-0.234,0.357-0.561,0.281-0.735    c-0.076-0.175-0.042-0.271,0.064-0.211c0.061,0.036,0.125,0.071,0.193,0.106c1.342,0.695,2.8,1.095,4.147,1.808    c3.763,1.992-2.522,5.263-3.252,6.021c-0.619,0.643-0.971,1.381-1.103,2.111c-0.099,0.544-0.375,1.301-0.778,1.678    c-0.043,0.039-0.085,0.078-0.128,0.118C4.854,38.342,4.32,38.239,4.247,37.692z M5.707,40.274    c-0.143-0.143-0.279-0.288-0.408-0.436c-0.026-0.029-0.048-0.06-0.069-0.09c-0.036-0.052,0.229-0.36,0.593-0.69    c0.365-0.331,0.804-0.312,1.07-0.025c0.267,0.286,0.257,0.716-0.102,1.048C6.434,40.412,5.94,40.507,5.707,40.274z M27.903,43.671    c-0.484,1.333-1.975,2.108-5.314,1.402c-0.124-0.026-0.242-0.06-0.357-0.097C22.038,44.913,22,44.73,22.145,44.58    c0.144-0.15,0.066-0.523-0.141-0.856c-0.126-0.202-0.241-0.409-0.341-0.623c-0.015-0.032-0.029-0.062-0.045-0.088    c-0.026-0.049-0.298,0.162-0.606,0.473c-0.308,0.311-0.911,0.285-1.293-0.114c-0.887-0.928-1.592-2.059-2.488-3.033    c-0.331-0.358-0.9-0.257-1.3-0.098c-1.691,0.676-1.039,0.612-3.018,1.704c-1.887,1.041-3.916,0.625-5.573-0.382    c-0.472-0.287-0.529-0.866-0.168-1.232c0.36-0.365,1.078-0.479,1.631-0.481c0.519-0.003,1.095-0.148,1.717-0.479    c0.762-0.405,1.3-1.196,1.826-1.845c0.492-0.673,1.008-1.328,1.548-1.963c1.223-1.494,2.18-1.562,2.93-1.013    c0.445,0.327,0.354,1.029-0.053,1.403c-1.28,1.181-2.244,2.08-2.766,2.581c-0.398,0.383-0.473,0.526-0.881,0.898    c-0.023,0.021-0.047,0.044-0.071,0.064c-0.407,0.372-0.558,0.854-0.293,1.012c0.265,0.159,0.828-0.098,1.218-0.488    c1.053-1.057,2.151-2.159,3.279-3.29c0.391-0.392,0.913-0.311,1.127,0.199c0.257,0.612,0.456,1.188,0.608,1.546    c0.818,1.929,1.685,4.013,3.983,4.132c0.623,0.032,1.424-0.34,2.014-0.86c0.414-0.366,0.942-1.091,1.328-1.487    c0.101-0.104,0.203-0.209,0.306-0.314c0.384-0.396,0.874-0.305,1.047,0.22c0.104,0.319,0.195,0.643,0.267,0.963    c0.117,0.539-0.118,1.262-0.444,1.596c-0.325,0.335-0.561,0.623-0.525,0.645c0.021,0.013,0.043,0.026,0.065,0.037    c0.046,0.021,0.094,0.035,0.142,0.045c0.081,0.017,0.319-0.151,0.532-0.367C27.915,42.867,28.093,43.152,27.903,43.671z     M25.705,37.269c0.205-0.207,0.384-0.35,0.398-0.315c0.009,0.021,0.018,0.04,0.03,0.061c0.082,0.119,0.168,0.253,0.258,0.397    c0.138,0.225,0.048,0.604-0.19,0.844s-0.507,0.19-0.631-0.098C25.448,37.87,25.499,37.476,25.705,37.269z M34.722,29.3    c-0.015,0.228-0.354,0.728-0.743,1.12c-0.244,0.246-0.488,0.492-0.73,0.736c-0.389,0.392-0.409,0.713-0.047,0.69    c0.362-0.023,0.385,0.294-0.041,0.646c-1.507,1.245-3.846,1.65-5.861,2.096c-0.602,0.134-1.122,0.604-1.316,1.168    c-0.181,0.522-0.147,1.15-0.35,1.363c-0.202,0.213-0.381,0.356-0.4,0.318c-0.011-0.023-0.022-0.046-0.034-0.07    c-0.104-0.207-0.219-0.406-0.347-0.598c-0.21-0.319-0.105-0.883,0.271-1.287c0.046-0.049,0.093-0.1,0.139-0.148    c0.377-0.403,0.664-0.785,0.642-0.852c-0.015-0.04-0.027-0.081-0.039-0.122c-0.301-1.063,0.639-2.526,1.739-2.628    c0.17-0.017,0.347-0.026,0.526-0.032c0.292-0.009,0.746-0.237,1.014-0.521c0.267-0.286,0.345-0.488,0.174-0.47    c-0.17,0.02,0.13-0.068,0.647-0.262c1.068-0.397,1.974-0.99,2.302-1.727c0.224-0.506,0.093-0.987,0.104-1    c0.012-0.013,0.011-0.021-0.004-0.02c-0.014,0.003-0.155-0.438-0.509-0.862c-0.285-0.342-0.692-0.697-1.242-1.066    c-1.118-0.749-3.395-0.301-5.379-0.116c-0.55,0.052-0.804-0.118-0.565-0.345c0.239-0.228,0.46-0.505,0.497-0.62    s-0.215,0.071-0.565,0.414c-0.351,0.343-1.089,0.644-1.63,0.534c-0.315-0.064-0.588-0.168-0.807-0.326    c-0.447-0.323-0.198-1.127,0.207-1.502c0.438-0.406,0.875-0.812,1.312-1.218c0.405-0.375,0.674-0.2,0.922,0.293    c0.114,0.225,0.286,0.411,0.536,0.549c0.484,0.266,1.069,0.288,1.209,0.292c0.072,0.002,0.156-0.004,0.253-0.02    c3.354-0.564,6.8,0.218,7.819,3.251c0.178,0.523,0.186,0.942,0.126,0.906c-0.058-0.036-0.417,0.27-0.796,0.671    c-0.809,0.857-1.604,1.7-2.388,2.529c-0.379,0.4-0.591,0.731-0.474,0.739c0.117,0.007,0.526-0.306,0.916-0.697    c0.739-0.747,1.466-1.48,2.175-2.196c0.389-0.392,0.722-0.558,0.734-0.368c0.009,0.113,0.014,0.229,0.015,0.347    C34.733,29.03,34.73,29.167,34.722,29.3z" fill="#0eb493"/>
		<path d="M45.259,7.174c-1.465-0.099-1.188-2.947-2.071-3.951c-0.632-0.716-1.729-0.798-2.605-0.789    c-0.784,0.008-1.852,0.339-2.473,0.823c-0.771,0.602-1.325,2.124-2.272,1.947c-1.97-0.367-4.646,0.361-5.329,2.447    c-0.612,1.869,3.316,3.135,2.032,4.763c-0.83,1.053-1.597,2.401-0.593,3.674c0.896,1.136,2.006,1.573,3.427,1.619    c1.69,0.055,2.271-0.902,3.818,0.502c1.357,1.233,4.579,1.21,5.755-0.357c0.354-0.471,0.812-0.955,0.731-1.622    c-0.136-1.107-0.853-2.349,0.674-2.856c0.899-0.299,1.564-0.953,2.088-1.709C50.121,9.233,47.455,7.242,45.259,7.174z     M43.695,7.991c0.092,0.013,0.202,0.027,0.246,0.031c0.023,0.002,0.052,0.004,0.081,0.005c0.695,0.022,1.313,0.279,1.802,0.669    c0.432,0.345,0.614,0.793,0.545,0.862c-0.068,0.069-0.223-0.182-0.523-0.395c-0.152-0.109-0.353-0.203-0.604-0.277    c-0.577-0.169-1.163,0.012-1.705,0.11c-0.543,0.099-0.766-0.256-0.496-0.532S43.604,7.979,43.695,7.991z M45.669,11.085    c-0.049,0.042-0.055,0.034-0.007-0.007C45.711,11.036,45.718,11.043,45.669,11.085z M41.931,6.948    c0.178-0.523,0.367-0.482,0.484,0.057c0.038,0.171,0.092,0.325,0.182,0.458c0.31,0.458,0.613,0.695,0.326,0.955    c-0.287,0.259-0.652,0.389-0.778,0.248c-0.068-0.077-0.136-0.169-0.198-0.278C41.683,7.934,41.766,7.438,41.931,6.948z     M40.356,3.671c0.066-0.063,0.205-0.099,0.302-0.064c0.098,0.035,0.037,0.079-0.129,0.109C40.363,3.747,40.287,3.734,40.356,3.671    z M35.577,6.481c0.836-0.053,1.589-0.093,1.892-0.246c0.138-0.069,0.253-0.15,0.356-0.241c0.179-0.157,0.3-0.312,0.313-0.305    c0.016,0.008,0.104-0.057,0.196-0.144c0.094-0.086,0.023,0.267-0.182,0.779c-0.088,0.217-0.179,0.429-0.272,0.615    c-0.247,0.494-1.001,0.327-1.482,0.058c-0.271-0.151-0.55-0.27-0.829-0.348C35.037,6.5,35.026,6.516,35.577,6.481z M32.786,8.069    c-0.022,0.053-0.038,0.103-0.05,0.152c-0.021,0.086-0.105,0.037-0.185-0.122c-0.046-0.095-0.087-0.193-0.119-0.296    c-0.023-0.073-0.034-0.141-0.034-0.205c-0.001-0.115,0.15-0.317,0.299-0.455c0.146-0.138,0.594-0.385,1.021-0.468    c0.428-0.082,0.306-0.057-0.13,0.284C33.275,7.204,33.001,7.567,32.786,8.069z M34.771,15.823    c-0.191,0.174-0.719,0.089-0.987-0.348c-0.271-0.437-0.068-0.468,0.406-0.221C34.664,15.501,34.962,15.648,34.771,15.823z     M34.633,12.228c-0.408,0.371-0.656,0.539-0.547,0.374c0.066-0.099,0.14-0.195,0.216-0.287c0.69-0.817,0.632-1.397,0.272-1.918    c-0.314-0.455-0.662-0.748-0.644-0.766c0.021-0.018,0.132,0.002,0.248,0.046c0.077,0.028,0.149,0.055,0.215,0.08    C36.359,10.519,35.575,11.372,34.633,12.228z M43.356,16.887c-0.202,0.481-0.514,0.783-0.552,0.749    c-0.037-0.033-0.167,0.044-0.291,0.174c-0.122,0.13-0.562,0.294-0.921,0.123c-0.357-0.171-0.627-0.434-0.671-0.472    s0.058-0.214,0.225-0.393c0.168-0.179,0.055-0.36-0.24-0.293s-0.616,0.069-0.757-0.045c-0.085-0.068-0.176-0.128-0.277-0.174    c-0.604-0.274-1.062-0.363-1.742-0.25c-0.771,0.128-1.39,0.354-2.028,0.372c-0.553,0.015-0.815-0.328-0.61-0.532    s0.331-0.433,0.298-0.517s0.283-0.191,0.652-0.387c0.225-0.119,0.423-0.277,0.579-0.477c1.818-2.325,1.825,0.475,2.955,1.55    c0.657,0.626,1.496,0.453,2.296,0.152c0.186-0.07,0.44-0.211,0.677-0.394c0.342-0.267,0.56-0.466,0.609-0.33    C43.608,15.881,43.561,16.405,43.356,16.887z M43.583,12.336c-0.087,0.087-0.175,0.174-0.262,0.262    c-0.392,0.391-0.741,0.662-0.783,0.605c-0.024-0.034-0.05-0.069-0.074-0.104c-0.649-0.934,0.06-1.26,0.831-1.385    C43.841,11.625,43.975,11.945,43.583,12.336z M42.559,10.84c-0.492,0.072-0.976,0.32-1.379,0.599    c-0.527,0.365-0.744,0.753-0.773,1.152c-0.041,0.551-0.049,0.576-0.546,0.334c-0.316-0.154-0.706-0.246-1.211-0.263    c-1.103-0.038-2.015,0.502-2.701,1.31c-0.065,0.073-0.121,0.135-0.169,0.189c-0.092,0.104-0.694-0.174-0.43-0.659    c0.238-0.437,0.902-0.855,1.256-1.186c0.405-0.382,0.778-0.81,0.803-1.41c0.028-0.762-0.133-1.202-0.734-1.646    c-0.164-0.121-0.393-0.216-0.629-0.3c-0.362-0.129-0.767-0.538-1.125-0.958c-0.093-0.108-0.173-0.202-0.215-0.261    c-0.322-0.448,1.093,0.746,1.64,0.828c0.693,0.103,1.388-0.063,2.109-0.35c0.512-0.204,0.882-0.539,1.218-0.962    c0.168-0.212,0.237-0.759,0.316-1.314c0.078-0.547,0.464-0.579,0.405-0.029c-0.12,1.124-1.086,2.496-0.077,3.49    c1.101,1.083,3.393-0.134,3.957,0.969C44.535,10.888,42.9,10.791,42.559,10.84z M46.697,11.827c-0.269,0.5-0.771,0.931-1.57,1.197    c-0.12,0.04-0.232,0.081-0.34,0.123c-0.185,0.072-0.56-0.31-0.386-0.833c0.017-0.047,0.034-0.094,0.055-0.14    c0.225-0.504,0.688-0.757,0.732-0.779c0.026-0.013,0.054-0.027,0.08-0.042c0.203-0.095,0.426-0.155,0.659-0.143    c0.108,0.006,0.218,0.012,0.326,0.018c0.182,0.01,0.408-0.066,0.506-0.171C46.858,10.951,46.958,11.34,46.697,11.827z" fill="#0eb493"/>
		<path d="M10.239,31.478c0.403-0.377,0.708-0.695,0.68-0.71c-0.029-0.017-0.367,0.289-0.757,0.68    c-0.246,0.247-0.497,0.498-0.753,0.756c-0.391,0.392-0.379,0.403,0.024,0.026C9.701,31.979,9.97,31.729,10.239,31.478z" fill="#0eb493"/>
		<path d="M20.523,42.492c-0.148,0.15-0.145,0.154,0.004,0.004C20.674,42.347,20.67,42.341,20.523,42.492z" fill="#0eb493"/>
	</g>
</g>
<g>
</g>
<g>
</g>
<g>
</g>
<g>
</g>
<g>
</g>
<g>
</g>
<g>
</g>
<g>
</g>
<g>
</g>
<g>
</g>
<g>
</g>
<g>
</g>
<g>
</g>
<g>
</g>
<g>
</g>
</svg>
