<?xml version="1.0" encoding="iso-8859-1"?>
<!-- Generator: Adobe Illustrator 18.1.1, SVG Export Plug-In . SVG Version: 6.00 Build 0)  -->
<svg xmlns="http://www.w3.org/2000/svg" xmlns:xlink="http://www.w3.org/1999/xlink" version="1.1" id="Capa_1" x="0px" y="0px" viewBox="0 0 308.298 308.298" style="enable-background:new 0 0 308.298 308.298;" xml:space="preserve" width="512px" height="512px">
<path d="M180.282,308.297h-52.266c-4.418,0-8-3.582-8-8v-36.646c-6.593-2.068-12.99-4.736-19.123-7.977l-25.95,25.952  c-1.5,1.501-3.535,2.344-5.657,2.344s-4.156-0.843-5.657-2.344l-36.957-36.958c-3.124-3.124-3.124-8.188,0-11.313l25.95-25.95  c-3.238-6.131-5.907-12.529-7.978-19.123H8c-4.418,0-8-3.582-8-8v-52.267c0-4.418,3.582-8,8-8h36.646  c2.07-6.596,4.739-12.993,7.977-19.122L26.672,74.942c-3.124-3.125-3.124-8.189,0-11.314L63.629,26.67  c1.501-1.5,3.535-2.343,5.657-2.343s4.156,0.843,5.657,2.344l25.951,25.951c6.131-3.237,12.529-5.906,19.122-7.975V8  c0-4.418,3.582-8,8-8h52.266c4.418,0,8,3.582,8,8v36.647c6.593,2.068,12.991,4.737,19.122,7.975l25.951-25.951  c1.501-1.501,3.535-2.344,5.657-2.344s4.156,0.843,5.657,2.343l36.957,36.957c3.124,3.124,3.124,8.189,0,11.313l-25.951,25.953  c3.237,6.132,5.906,12.528,7.976,19.121h36.646c4.418,0,8,3.582,8,8v52.267c0,4.418-3.582,8-8,8h-36.646  c-2.07,6.595-4.738,12.991-7.977,19.122l25.951,25.951c3.124,3.125,3.124,8.189,0,11.313l-36.957,36.958  c-1.501,1.501-3.535,2.344-5.657,2.344s-4.157-0.843-5.657-2.344l-25.95-25.951c-6.131,3.238-12.527,5.906-19.123,7.976v36.646  C188.282,304.715,184.7,308.297,180.282,308.297z M136.017,292.297h36.266v-34.689c0-3.659,2.483-6.853,6.03-7.754  c9.249-2.35,18.11-6.047,26.339-10.987c3.146-1.891,7.179-1.395,9.775,1.202l24.586,24.588l25.644-25.645l-24.587-24.587  c-2.596-2.597-3.092-6.626-1.202-9.774c4.939-8.23,8.638-17.093,10.991-26.342c0.902-3.546,4.095-6.027,7.753-6.027h34.687v-36.267  h-34.688c-3.659,0-6.852-2.482-7.753-6.028c-2.352-9.246-6.049-18.108-10.989-26.341c-1.89-3.147-1.394-7.177,1.202-9.772  l24.587-24.589l-25.644-25.644l-24.586,24.587c-2.596,2.597-6.624,3.093-9.774,1.203c-8.232-4.94-17.094-8.638-26.34-10.986  c-3.547-0.901-6.03-4.095-6.03-7.754V16h-36.266v34.69c0,3.659-2.483,6.853-6.03,7.754c-9.246,2.349-18.107,6.046-26.34,10.986  c-3.149,1.891-7.178,1.395-9.774-1.203L69.286,43.641L43.643,69.285l24.587,24.588c2.596,2.596,3.092,6.626,1.202,9.773  c-4.938,8.228-8.637,17.09-10.991,26.342c-0.902,3.546-4.095,6.027-7.753,6.027H16v36.267h34.688c3.659,0,6.853,2.482,7.754,6.029  c2.35,9.248,6.048,18.109,10.989,26.34c1.891,3.147,1.395,7.179-1.201,9.775l-24.587,24.586l25.644,25.645l24.586-24.588  c2.597-2.597,6.627-3.093,9.774-1.203c8.234,4.943,17.097,8.641,26.34,10.988c3.547,0.901,6.03,4.095,6.03,7.754V292.297z   M154.146,220.453c-36.559,0-66.301-29.744-66.301-66.304c0-36.561,29.742-66.305,66.301-66.305  c36.562,0,66.306,29.744,66.306,66.305C220.452,190.708,190.708,220.453,154.146,220.453z M154.146,103.844  c-27.736,0-50.301,22.566-50.301,50.305c0,27.737,22.564,50.304,50.301,50.304c27.738,0,50.306-22.566,50.306-50.304  C204.452,126.411,181.885,103.844,154.146,103.844z M154.148,188.328c-18.846,0-34.179-15.332-34.179-34.179  s15.333-34.179,34.179-34.179c18.848,0,34.181,15.332,34.181,34.178C188.329,172.995,172.996,188.328,154.148,188.328z   M154.148,135.97c-10.023,0-18.179,8.154-18.179,18.178c0,10.024,8.155,18.18,18.179,18.18c10.024,0,18.181-8.155,18.181-18.179  S164.173,135.97,154.148,135.97z" fill="#04c9a4"/>
<g>
</g>
<g>
</g>
<g>
</g>
<g>
</g>
<g>
</g>
<g>
</g>
<g>
</g>
<g>
</g>
<g>
</g>
<g>
</g>
<g>
</g>
<g>
</g>
<g>
</g>
<g>
</g>
<g>
</g>
</svg>
