<?xml version="1.0" encoding="iso-8859-1"?>
<!-- Generator: Adobe Illustrator 19.0.0, SVG Export Plug-In . SVG Version: 6.00 Build 0)  -->
<svg xmlns="http://www.w3.org/2000/svg" xmlns:xlink="http://www.w3.org/1999/xlink" version="1.1" id="Layer_1" x="0px" y="0px" viewBox="0 0 490.746 490.746" style="enable-background:new 0 0 490.746 490.746;" xml:space="preserve" width="512px" height="512px">
<g>
	<g>
		<path d="M484.5,150.346l-17.7-7.3c2.7-13.4,2.6-27,0-40l17.7-7.3c4.3-1.8,6.4-6.7,4.6-11l-8.7-21.1c-1.8-4.3-6.7-6.4-11-4.6    l-17.7,7.3c-7.3-11-16.8-20.7-28.2-28.3l7.3-17.7c1.7-4.2-0.3-9.2-4.6-10.9l-21.2-8.8c-4.3-1.8-9.2,0.3-11,4.6l-7.3,17.7    c-13.4-2.7-27-2.6-40,0l-7.3-17.7c-1.8-4.3-6.7-6.4-11-4.6l-21.3,8.6c-4.3,1.8-6.4,6.7-4.6,11l7.3,17.7    c-11,7.3-20.7,16.8-28.3,28.2l-17.7-7.3c-4.3-1.8-9.2,0.3-11,4.6l-8.8,21.2c-1.8,4.3,0.3,9.2,4.6,11l17.7,7.3    c-2.7,13.4-2.6,27,0,40l-17.7,7.3c-4.3,1.8-6.4,6.7-4.6,11l8.8,21.2c1.8,4.3,6.7,6.4,11,4.6l17.7-7.3c7.3,11,16.8,20.7,28.2,28.3    l-7.3,17.7c-1.8,4.3,0.3,9.2,4.6,11l21.2,8.8c4.3,1.8,9.2-0.2,11-4.6l7.3-17.7c13.4,2.7,27,2.6,40,0l7.3,17.7    c1.8,4.3,6.7,6.4,11,4.6l21.2-8.8c4.3-1.8,6.4-6.7,4.6-11l-7.3-17.7c11-7.3,20.7-16.8,28.3-28.2l17.7,7.3c4.3,1.8,9.2-0.2,11-4.6    l8.8-21.2C490.9,157.046,488.8,152.146,484.5,150.346z M409.2,106.346l-35.9,35.9l13.7,13.7c1.5,1.5,0.6,4-1.5,4.2l-58.4,5.8    c-1.9,0.2-3.5-1.4-3.3-3.3l5.8-58.4c0.2-2,2.7-2.9,4.2-1.5l13.7,13.7l35.9-35.9c1.6-1.6,4.1-1.6,5.6,0l20.3,20.3    C410.8,102.246,410.8,104.746,409.2,106.346z" fill="#0ed0a3"/>
	</g>
</g>
<g>
	<g>
		<path d="M188.9,298.446l-86.4,16c-2.8,0.5-3.9,4-1.9,6l18.1,18.1l-113.8,114c-4.1,4-4.1,10.6,0,14.6l19.6,19.6c4,4,10.6,4,14.6,0    l113.9-113.9l18.1,18.1c2,2,5.5,1,6-1.9l16-86.4C193.6,300.146,191.4,298.046,188.9,298.446z" fill="#0ed0a3"/>
	</g>
</g>
<g>
	<g>
		<path d="M301.7,310.846h-23.2c-3.1-15.8-9.3-31.1-18.6-44.9l16.4-16.4c4-4,4-10.5,0-14.5l-19.8-19.8c-4-4-10.5-4-14.5,0    l-16.4,16.4c-13.8-9.3-29.1-15.5-44.9-18.6v-23.2c0-5.7-4.6-10.3-10.3-10.3h-27.9c-5.7,0-10.3,4.6-10.3,10.3v23.2    c-15.8,3.1-31.1,9.3-44.9,18.6l-16.4-16.4c-4-4-10.5-4-14.5,0l-19.8,19.8c-4,4-4,10.5,0,14.5l16.4,16.4    c-9.3,13.8-15.5,29.1-18.6,44.9l-23.1,0.1c-5.7,0-10.3,4.6-10.3,10.3v27.9c0,5.7,4.6,10.3,10.3,10.3h23.2c1.5,7.6,3.7,15,6.6,22.3    l37.1-37.1c-2.8-23.2,4.7-47.4,22.5-65.2c30.8-30.8,80.7-30.8,111.6,0c30.8,30.8,30.8,80.7,0,111.6c-17.8,17.8-42,25.3-65.2,22.5    l-37.1,37.1c7.2,2.9,14.7,5.1,22.3,6.6v23.2c0,5.7,4.6,10.3,10.3,10.3h27.9c5.7,0,10.3-4.6,10.3-10.3v-23.2    c15.8-3.1,31.1-9.3,44.9-18.6l16.4,16.4c4,4,10.5,4,14.5,0l19.8-19.8c4-4,4-10.5,0-14.5l-16.5-16.5c9.3-13.8,15.5-29.1,18.6-44.9    h23.2c5.7,0,10.3-4.6,10.3-10.3v-27.9C312,315.446,307.4,310.846,301.7,310.846z" fill="#0ed0a3"/>
	</g>
</g>
<g>
</g>
<g>
</g>
<g>
</g>
<g>
</g>
<g>
</g>
<g>
</g>
<g>
</g>
<g>
</g>
<g>
</g>
<g>
</g>
<g>
</g>
<g>
</g>
<g>
</g>
<g>
</g>
<g>
</g>
</svg>
