<svg id="Layer_1" data-name="Layer 1" xmlns="http://www.w3.org/2000/svg" xmlns:xlink="http://www.w3.org/1999/xlink" viewBox="0 0 1182.44 360.28"><defs><style>.cls-1{fill:url(#linear-gradient);}.cls-2{fill:#fff;}.cls-3{fill:url(#linear-gradient-2);}.cls-4{fill:url(#linear-gradient-3);}.cls-5{fill:#333;}</style><linearGradient id="linear-gradient" x1="25.51" y1="192.6" x2="337.52" y2="192.6" gradientUnits="userSpaceOnUse"><stop offset="0.19" stop-color="#04c9a4"/><stop offset="0.66" stop-color="#34e89e"/></linearGradient><linearGradient id="linear-gradient-2" x1="113.76" y1="180.23" x2="255.1" y2="180.23" xlink:href="#linear-gradient"/><linearGradient id="linear-gradient-3" x1="56.91" y1="179.98" x2="136.95" y2="179.98" xlink:href="#linear-gradient"/></defs><title>cx-final-logo</title><path class="cls-1" d="M181.52,12.46l-156,90.07V282.67l156,90.07,156-90.07V102.53ZM317.86,271.32,181.52,350,45.18,271.32V113.88L181.52,35.16l136.34,78.72Z" transform="translate(-25.51 -12.46)"/><polygon class="cls-2" points="19.66 101.42 19.66 258.86 156.01 337.57 292.35 258.86 292.35 101.42 156.01 22.71 19.66 101.42"/><polygon class="cls-3" points="255.1 110.42 229 95.59 186.98 153.73 137.15 85.88 113.77 102.79 168.09 179.87 116.38 251.41 137.11 274.58 186.46 205.93 218.52 251.41 248.1 236.96 205.68 179.19 255.1 110.42"/><polygon class="cls-4" points="88.45 208.63 88.45 151.32 136.95 122.8 136.95 85.69 56.91 132.77 56.91 227.19 136.95 274.26 136.95 237.15 88.45 208.63"/><path class="cls-5" d="M382.84,187.6q0-62.82,59-62.82,18.18,0,38.16,8.82V159q-17.28-11.52-34.2-11.52-16.56,0-24.75,9.27T412.9,187.6q0,21.6,8.37,30.6t25.83,9a51.79,51.79,0,0,0,15.66-2.7A71.61,71.61,0,0,0,480,216v25.38a75.06,75.06,0,0,1-18,6.12,94,94,0,0,1-20.16,2.34Q382.84,249.88,382.84,187.6Z" transform="translate(-25.51 -12.46)"/><path class="cls-5" d="M507.76,238q-11.52-12.24-11.52-36.36,0-25.2,11.43-36.72t34.65-11.52q23.22,0,34.92,11.79t11.7,36.45q0,23.76-12.06,36.18t-34.56,12.42Q519.28,250.24,507.76,238Zm49.5-16.11q5-6.93,5-20.25,0-14.58-5-20.79t-15-6.21q-10.44,0-15,6.21t-4.59,20.79q0,13.86,4.77,20.52t14.85,6.66Q552.22,228.82,557.26,221.89Z" transform="translate(-25.51 -12.46)"/><path class="cls-5" d="M693.34,119V223.78a19.61,19.61,0,0,1-5.94,14.4,37.68,37.68,0,0,1-15.66,9,68.58,68.58,0,0,1-20.7,3.06q-23.22,0-35.91-11t-12.69-38q0-22.68,11.07-35.19T646,153.58q12.78,0,20.7,4.68V119ZM666.7,179a30.11,30.11,0,0,0-14-3.78q-12.06,0-17.64,6.12T629.44,202q0,12.6,5.22,19.17t17.46,6.57a26,26,0,0,0,10.62-1.8q4-1.8,4-5Z" transform="translate(-25.51 -12.46)"/><path class="cls-5" d="M799.54,209H739.42q3.42,18.9,25.38,18.9a45.79,45.79,0,0,0,13-1.89,127,127,0,0,0,13.59-5v23a85.77,85.77,0,0,1-33.12,6.12q-13.86,0-24.3-5.67a39.59,39.59,0,0,1-16.2-16.29q-5.76-10.62-5.76-25,0-23.76,11.79-36.81t33.57-13.05Q800.08,153.4,799.54,209Zm-60.3-17.1H772.9q-1.26-9.72-5.13-13.86t-11.43-4.14Q741.93,173.92,739.24,191.92Z" transform="translate(-25.51 -12.46)"/><path class="cls-5" d="M813.22,187.6q0-62.82,59-62.82,18.18,0,38.16,8.82V159q-17.28-11.52-34.2-11.52-16.56,0-24.75,9.27t-8.19,30.87q0,21.6,8.37,30.6t25.83,9a51.79,51.79,0,0,0,15.66-2.7A71.6,71.6,0,0,0,910.42,216v25.38a75.06,75.06,0,0,1-18,6.12,94,94,0,0,1-20.16,2.34Q813.22,249.88,813.22,187.6Z" transform="translate(-25.51 -12.46)"/><path class="cls-5" d="M931.65,166q2.7-2.34,9.45-5.22a99.61,99.61,0,0,1,15.12-5,67.16,67.16,0,0,1,16.11-2.07q14.94,0,20.7,4.5v19.62q-7.2-1.62-20.7-1.62a87.17,87.17,0,0,0-13.86.9v70.38H931.65Z" transform="translate(-25.51 -12.46)"/><path class="cls-5" d="M1020.12,240.88q-11.43-9.36-11.43-28.08V156.46h26.82v54.18q0,8.64,3.87,12.87t12.33,4.23q8.46,0,12.33-4.23t3.87-12.87V156.46h25.2V212.8q0,18.9-10.89,28.17t-30.69,9.27Q1031.55,250.24,1020.12,240.88Z" transform="translate(-25.51 -12.46)"/><path class="cls-5" d="M1208,156.46l-34.38,45,32.94,46.08h-31.68l-19.26-27-18.54,27h-28.26L1143,202.9l-33.3-46.44h31.68l19.44,27.18,18.72-27.18Z" transform="translate(-25.51 -12.46)"/></svg>