<?xml version="1.0" encoding="iso-8859-1"?>
<!-- Generator: Adobe Illustrator 19.0.0, SVG Export Plug-In . SVG Version: 6.00 Build 0)  -->
<svg xmlns="http://www.w3.org/2000/svg" xmlns:xlink="http://www.w3.org/1999/xlink" version="1.1" id="Layer_1" x="0px" y="0px" viewBox="0 0 511.999 511.999" style="enable-background:new 0 0 511.999 511.999;" xml:space="preserve" width="512px" height="512px">
<g>
	<g>
		<path d="M470.316,32.428H41.683C18.7,32.428,0,51.128,0,74.112v40.432c0,4.965,4.024,8.991,8.991,8.991    c4.967,0,8.991-4.025,8.991-8.991V74.112c0-13.069,10.632-23.701,23.701-23.701h428.634c13.069,0,23.701,10.632,23.701,23.701    v267.001c0,4.965,4.024,8.991,8.991,8.991s8.991-4.025,8.991-8.991V74.112C512,51.128,493.3,32.428,470.316,32.428z" fill="#01c3a7"/>
	</g>
</g>
<g>
	<g>
		<path d="M503.009,365.42c-4.967,0-8.991,4.025-8.991,8.991c0,13.069-10.632,23.701-23.701,23.701H41.683    c-13.069,0-23.701-10.632-23.701-23.701V149.309c0-4.965-4.024-8.991-8.991-8.991c-4.966,0-8.991,4.026-8.991,8.991v225.102    c0,22.984,18.7,41.683,41.683,41.683h171.839l-10.923,45.496h-42.503c-4.966,0-8.991,4.025-8.991,8.991s4.024,8.991,8.991,8.991    h49.59h92.623H351.9c4.966,0,8.991-4.026,8.991-8.991s-4.024-8.991-8.991-8.991h-42.503l-10.922-45.496h171.839    c22.984,0,41.683-18.698,41.683-41.683C512,369.445,507.975,365.42,503.009,365.42z M221.094,461.589l10.923-45.496h47.968    l10.922,45.496H221.094z" fill="#01c3a7"/>
	</g>
</g>
<g>
	<g>
		<path d="M472.65,353.264H39.35c-4.966,0-8.991,4.025-8.991,8.991s4.026,8.991,8.991,8.991H472.65c4.967,0,8.991-4.025,8.991-8.991    S477.617,353.264,472.65,353.264z" fill="#01c3a7"/>
	</g>
</g>
<g>
	<g>
		<path d="M472.65,77.277H39.35c-4.966,0-8.991,4.026-8.991,8.991s4.024,8.991,8.991,8.991H472.65c4.966,0,8.991-4.025,8.991-8.991    S477.617,77.277,472.65,77.277z" fill="#01c3a7"/>
	</g>
</g>
<g>
	<g>
		<path d="M214.24,262.764l-58.613-38.501l58.614-38.501c4.151-2.728,5.306-8.303,2.579-12.453c-2.726-4.15-8.3-5.305-12.452-2.579    l-70.053,46.016c-2.529,1.663-4.054,4.487-4.054,7.515c0,3.028,1.524,5.852,4.055,7.515l70.053,46.016    c1.521,1,3.233,1.477,4.927,1.477c2.925,0,5.796-1.427,7.522-4.055C219.545,271.064,218.391,265.49,214.24,262.764z" fill="#01c3a7"/>
	</g>
</g>
<g>
	<g>
		<path d="M324.222,256.136c-2.725-4.151-8.3-5.305-12.45-2.579l-14.012,9.205c-4.15,2.726-5.305,8.3-2.577,12.451    c1.726,2.629,4.596,4.055,7.522,4.055c1.694,0,3.407-0.478,4.928-1.477l14.012-9.205    C325.794,265.861,326.949,260.286,324.222,256.136z" fill="#01c3a7"/>
	</g>
</g>
<g>
	<g>
		<path d="M377.683,216.746l-70.053-46.016c-4.151-2.725-9.724-1.572-12.452,2.579c-2.726,4.15-1.573,9.724,2.577,12.451    l58.614,38.501l-23.48,15.423c-4.15,2.728-5.303,8.302-2.577,12.453c1.726,2.629,4.596,4.055,7.522,4.055    c1.694,0,3.407-0.478,4.927-1.477l34.92-22.939c2.531-1.663,4.055-4.487,4.055-7.515S380.214,218.408,377.683,216.746z" fill="#01c3a7"/>
	</g>
</g>
<g>
	<g>
		<path d="M279.961,137.071c-4.789-1.316-9.736,1.501-11.052,6.288l-43.156,157.039c-1.316,4.788,1.498,9.736,6.286,11.052    c0.797,0.219,1.599,0.324,2.387,0.324c3.948,0,7.568-2.621,8.665-6.611l43.156-157.039    C287.563,143.335,284.748,138.386,279.961,137.071z" fill="#01c3a7"/>
	</g>
</g>
<g>
</g>
<g>
</g>
<g>
</g>
<g>
</g>
<g>
</g>
<g>
</g>
<g>
</g>
<g>
</g>
<g>
</g>
<g>
</g>
<g>
</g>
<g>
</g>
<g>
</g>
<g>
</g>
<g>
</g>
</svg>
