<svg width="24" height="24" xmlns="http://www.w3.org/2000/svg">

 <g>
  <title>background</title>
  <rect fill="none" id="canvas_background" height="402" width="582" y="-1" x="-1"/>
 </g>
 <g>
  <title>Layer 1</title>
  <circle stroke="#0eb493" id="svg_3" r="1" cy="16" cx="1"/>
  <circle stroke="#0eb493" id="svg_5" r="1" cy="13" cx="8"/>
  <path stroke="#0eb493" id="svg_7" d="m22,9c-1.103,0 -2,-0.897 -2,-2s0.897,-2 2,-2s2,0.897 2,2s-0.897,2 -2,2zm0,-3c-0.551,0 -1,0.448 -1,1s0.449,1 1,1s1,-0.448 1,-1s-0.449,-1 -1,-1z"/>
  <circle stroke="#0eb493" id="svg_9" r="1" cy="15" cx="20"/>
  <circle stroke="#0eb493" id="svg_11" r="1" cy="5" cx="11"/>
  <path stroke="#0eb493" id="svg_13" d="m11.5,20c-0.827,0 -1.5,-0.673 -1.5,-1.5s0.673,-1.5 1.5,-1.5s1.5,0.673 1.5,1.5s-0.673,1.5 -1.5,1.5zm0,-2c-0.276,0 -0.5,0.225 -0.5,0.5s0.224,0.5 0.5,0.5s0.5,-0.225 0.5,-0.5s-0.224,-0.5 -0.5,-0.5z"/>
  <path fill="#0eb493" stroke="#0eb493" id="svg_15" d="m1.446044,16c-0.16,0 -0.315,-0.077 -0.411,-0.215c-0.132,-0.19 -0.116,-0.447 0.039,-0.62l9,-10c0.185,-0.205 0.501,-0.222 0.706,-0.037c0.205,0.186 0.222,0.501 0.037,0.707l-7.578,8.42l17.022,-6.72c0.256,-0.105 0.548,0.025 0.648,0.281c0.102,0.257 -0.024,0.547 -0.281,0.648l-19,7.5c-0.058,0.025 -0.12,0.036 -0.182,0.036z"/>
  <rect stroke="#0eb493" id="svg_17" y="9.5" x="9.479" width="12.042" transform="matrix(0.6644,0.7474,-0.7474,0.6644,12.6767,-8.2284) " height="1"/>
  <rect stroke="#0eb493" id="svg_19" y="8.408" x="20.75" width="1" transform="matrix(0.9702,0.2423,-0.2423,0.9702,3.4198,-4.8063) " height="6.185"/>
  <path stroke="#0eb493" id="svg_21" d="m13,18.5c-0.201,0 -0.39,-0.122 -0.467,-0.32c-0.099,-0.258 0.03,-0.547 0.287,-0.646l6.5,-2.5c0.257,-0.098 0.547,0.03 0.646,0.287c0.099,0.258 -0.03,0.547 -0.287,0.646l-6.5,2.5c-0.058,0.023 -0.119,0.033 -0.179,0.033z"/>
  <path stroke="#0eb493" id="svg_23" d="m10.5,19c-0.044,0 -0.089,-0.006 -0.134,-0.019l-9,-2.5c-0.266,-0.073 -0.422,-0.35 -0.348,-0.615c0.074,-0.267 0.35,-0.424 0.616,-0.348l9,2.5c0.266,0.073 0.422,0.35 0.348,0.615c-0.062,0.223 -0.263,0.367 -0.482,0.367z"/>
  <path stroke="#0eb493" id="svg_25" d="m20.5,6.5c-0.019,0 -0.037,-0.001 -0.056,-0.003l-9,-1c-0.274,-0.03 -0.472,-0.277 -0.442,-0.553c0.031,-0.273 0.285,-0.465 0.552,-0.441l9,1c0.274,0.03 0.472,0.277 0.442,0.553c-0.027,0.255 -0.244,0.444 -0.496,0.444z"/>
  <path stroke="#0eb493" id="svg_27" d="m11.5,18c-0.267,0 -0.488,-0.21 -0.499,-0.479l-0.5,-12c-0.012,-0.276 0.202,-0.509 0.478,-0.521c0.276,0.004 0.509,0.203 0.521,0.479l0.5,12c0.012,0.275 -0.203,0.509 -0.479,0.521c-0.007,0 -0.014,0 -0.021,0z"/>
  <path stroke="#0eb493" id="svg_29" d="m12.5,18c-0.123,0 -0.247,-0.045 -0.343,-0.137c-0.201,-0.189 -0.21,-0.506 -0.02,-0.707l8.5,-9c0.189,-0.2 0.505,-0.211 0.707,-0.02c0.201,0.189 0.21,0.506 0.02,0.707l-8.5,9c-0.099,0.105 -0.231,0.157 -0.364,0.157z"/>
  <path stroke="#0eb493" id="svg_31" d="m11,18c-0.162,0 -0.32,-0.078 -0.417,-0.223l-3,-4.5c-0.089,-0.134 -0.108,-0.303 -0.052,-0.453l3,-8c0.097,-0.259 0.384,-0.394 0.644,-0.292c0.258,0.097 0.389,0.385 0.292,0.644l-2.91,7.76l2.858,4.287c0.153,0.229 0.091,0.54 -0.139,0.693c-0.084,0.057 -0.18,0.084 -0.276,0.084z"/>
 </g>
</svg>