<svg width="512.00003" height="512" xmlns="http://www.w3.org/2000/svg">

 <g>
  <title>background</title>
  <rect fill="none" id="canvas_background" height="402" width="582" y="-1" x="-1"/>
 </g>
 <g>
  <title>Layer 1</title>
  <path fill="#ffffff" fill-rule="nonzero" id="path3756" d="m362.03873,511.99999l-212.07735,0.00003l-149.96134,-149.96134l-0.00002,-212.07735l149.96133,-149.96134l212.07737,0.00001l149.96134,149.96134l-0.00002,212.07733l-149.96131,149.96132z"/>
  <path fill="#0eb493" id="path10079" d="m219.602493,163.439495c-13.734869,0.180274 -25.559779,2.872471 -37.177553,8.660217c-29.666604,14.779255 -46.800341,45.901891 -46.800341,85.115074c0,39.304459 16.853544,69.50184 46.625381,83.627974c8.042544,3.816179 16.103892,5.892921 28.342551,7.348077c6.194721,0.25076 11.986439,0.688452 18.020215,0c12.238659,-1.455156 20.300007,-3.531898 28.342551,-7.348077c29.771837,-14.126134 46.625089,-44.323515 46.625089,-83.627974c0,-39.213183 -17.133445,-70.335819 -46.800049,-85.115074c-11.617774,-5.787747 -23.442684,-8.479943 -37.177845,-8.660217zm11.809552,27.642712c17.813078,4.748032 30.738671,20.819922 35.69057,44.263307c3.478348,16.464381 2.53026,35.489915 -2.44932,50.474204c-7.754526,23.33605 -24.590434,36.514563 -45.050801,36.302987c-20.460075,0.211575 -37.295983,-12.966938 -45.050509,-36.302987c-4.97958,-14.984289 -5.927726,-34.009823 -2.44932,-50.474204c4.951899,-23.443385 17.877491,-39.515275 35.69057,-44.263307c8.076999,-1.711873 16.124857,-1.403474 23.618812,0z"/>
  <path fill="#0eb493" fill-rule="nonzero" id="path10077" d="m101.307604,163.439495c-9.835006,0 -17.807823,7.972875 -17.807823,17.807823c0,9.835006 7.972817,17.807823 17.807823,17.807823c9.835006,0 17.807823,-7.972817 17.807823,-17.807823c0,-9.834947 -7.972817,-17.807823 -17.807823,-17.807823zm-16.6401,54.335758l0,130.785242l33.280201,0l0,-130.785242l-33.280201,0z"/>
  <path fill="#0eb493" id="path10039" d="m351.967804,348.286844c-14.25823,-2.441436 -27.972309,-4.333525 -39.612624,-10.940593c-0.155397,-0.136417 6.872077,-26.393758 7.189352,-26.862108c18.709309,6.352395 45.047531,15.264073 62.805541,7.100704c9.681828,-4.84363 14.450826,-13.796595 12.848799,-24.121792c-1.802331,-11.615905 -9.846335,-18.309401 -31.92181,-26.562177c-24.621268,-9.204543 -39.061465,-20.519758 -44.962679,-35.232264c-2.901611,-7.234143 -3.86389,-16.444351 -2.558641,-24.489289c3.630182,-22.374296 21.060755,-37.940403 47.811323,-42.697195c7.750088,-1.378129 24.323264,-1.392495 32.477757,-0.028031c11.752088,1.966254 25.228313,6.410793 25.228313,8.320401c0,0.705153 -6.886268,24.982751 -7.238874,25.520653c-11.619467,-4.601921 -24.650292,-7.891294 -35.678248,-7.95448c-15.60646,-0.217765 -32.527687,9.044416 -29.544553,25.402456c2.112599,10.251674 8.65537,15.256832 32.734357,25.041382c17.734533,7.206463 26.244377,12.177108 33.539779,19.590707c10.135579,10.122148 13.339632,21.997455 13.41409,33.76753c0.026863,9.804872 -0.887238,14.37888 -4.385557,21.947701c-8.498397,18.386603 -25.825256,29.072698 -51.847662,31.976645c-4.876274,0.544092 -16.362302,0.66848 -20.298664,0.219809l0,-0.000058z"/>
 </g>
</svg>