<?xml version="1.0" encoding="iso-8859-1"?>
<!-- Generator: Adobe Illustrator 19.0.0, SVG Export Plug-In . SVG Version: 6.00 Build 0)  -->
<svg xmlns="http://www.w3.org/2000/svg" xmlns:xlink="http://www.w3.org/1999/xlink" version="1.1" id="Capa_1" x="0px" y="0px" viewBox="0 0 480.019 480.019" style="enable-background:new 0 0 480.019 480.019;" xml:space="preserve" width="512px" height="512px">
<g>
	<g>
		<path d="M424.01,56.019h-96.8C305.209,7.882,248.351-13.305,200.214,8.695c-20.949,9.575-37.749,26.375-47.324,47.324H56.01    c-26.499,0.026-47.974,21.501-48,48v248c0.026,26.499,21.501,47.974,48,48h124.912l-10.68,32H80.01c-13.255,0-24,10.745-24,24    s10.745,24,24,24h320c13.255,0,24-10.745,24-24s-10.745-24-24-24h-90.232l-10.68-32H424.01c26.499-0.026,47.974-21.501,48-48v-248    C471.983,77.521,450.508,56.046,424.01,56.019z M240.01,16.019c44.183,0,80,35.817,80,80s-35.817,80-80,80s-80-35.817-80-80    C160.058,51.857,195.847,16.068,240.01,16.019z M400.01,448.019c4.418,0,8,3.582,8,8s-3.582,8-8,8h-320c-4.418,0-8-3.582-8-8    s3.582-8,8-8H400.01z M187.114,432.019l10.68-32h84.432l10.664,32H187.114z M456.01,352.019c0,17.673-14.327,32-32,32h-368    c-17.673,0-32-14.327-32-32v-16h432V352.019z M456.01,320.019h-432v-216c0-17.673,14.327-32,32-32h91.2    c-6.981,26.299-2.319,54.329,12.8,76.952v53.28l-33.904,11.304c-5.879-16.559-24.068-25.217-40.627-19.338    s-25.217,24.068-19.338,40.627s24.068,25.217,40.627,19.338c10.71-3.802,18.578-13.028,20.642-24.203l43.128-14.4    c3.257-1.085,5.459-4.127,5.472-7.56v-40.648c11.415,10.27,25.135,17.64,40,21.488v46.88l-14.4,9.6    c-15.052-10.261-35.572-6.377-45.833,8.675c-10.261,15.052-6.377,35.572,8.675,45.833c15.052,10.261,35.572,6.376,45.833-8.675    c6.83-10.019,7.612-22.977,2.036-33.745l16.128-10.752c2.225-1.484,3.56-3.982,3.56-6.656v-48.408    c2.648,0.224,5.296,0.408,8,0.408s5.352-0.184,8-0.408v32.408c0,2.674,1.335,5.172,3.56,6.656l16.128,10.752    c-2.39,4.495-3.655,9.502-3.688,14.592c-0.054,17.726,14.273,32.139,31.999,32.193c17.726,0.054,32.139-14.273,32.193-31.999    c0.054-17.726-14.273-32.139-31.999-32.193c-6.326-0.019-12.516,1.831-17.793,5.319l-14.4-9.6v-30.88    c14.865-3.848,28.585-11.218,40-21.488v32.648c-0.001,3.032,1.712,5.805,4.424,7.16l44.104,22.048    c2.922,17.385,19.384,29.11,36.769,26.188c17.385-2.922,29.11-19.384,26.188-36.769s-19.384-29.11-36.769-26.188    c-11.038,1.855-20.298,9.356-24.404,19.769l-34.312-17.152v-46.104c15.132-22.616,19.81-50.648,12.84-76.952h91.16    c17.673,0,32,14.327,32,32V320.019z M112.01,224.019c0,8.837-7.163,16-16,16s-16-7.163-16-16s7.163-16,16-16    S112.01,215.183,112.01,224.019z M200.01,272.019c0,8.837-7.163,16-16,16s-16-7.163-16-16s7.163-16,16-16    S200.01,263.183,200.01,272.019z M280.01,256.019c0-8.837,7.163-16,16-16s16,7.163,16,16s-7.163,16-16,16    S280.01,264.856,280.01,256.019z M368.01,224.019c0-8.837,7.163-16,16-16s16,7.163,16,16s-7.163,16-16,16    S368.01,232.856,368.01,224.019z" fill="#0eb493"/>
	</g>
</g>
<g>
	<g>
		<rect x="232.01" y="352.019" width="16" height="16" fill="#0eb493"/>
	</g>
</g>
<g>
	<g>
		<path d="M245.666,34.363c-3.124-3.123-8.188-3.123-11.312,0l-32,32l11.312,11.312l18.344-18.344v52.688h16V59.331l18.344,18.344    l11.312-11.312L245.666,34.363z" fill="#0eb493"/>
	</g>
</g>
<g>
	<g>
		<path d="M272.01,112.019v16h-64v-16h-16v24c0,4.418,3.582,8,8,8h80c4.418,0,8-3.582,8-8v-24H272.01z" fill="#0eb493"/>
	</g>
</g>
<g>
	<g>
		<rect x="48.01" y="128.019" width="72" height="16" fill="#0eb493"/>
	</g>
</g>
<g>
	<g>
		<rect x="48.01" y="160.019" width="48" height="16" fill="#0eb493"/>
	</g>
</g>
<g>
	<g>
		<rect x="80.01" y="96.019" width="40" height="16" fill="#0eb493"/>
	</g>
</g>
<g>
	<g>
		<rect x="48.01" y="96.019" width="16" height="16" fill="#0eb493"/>
	</g>
</g>
<g>
	<g>
		<rect x="48.01" y="280.019" width="16" height="16" fill="#0eb493"/>
	</g>
</g>
<g>
	<g>
		<rect x="80.01" y="280.019" width="16" height="16" fill="#0eb493"/>
	</g>
</g>
<g>
	<g>
		<rect x="112.01" y="280.019" width="16" height="16" fill="#0eb493"/>
	</g>
</g>
<g>
	<g>
		<rect x="416.01" y="280.019" width="16" height="16" fill="#0eb493"/>
	</g>
</g>
<g>
	<g>
		<rect x="384.01" y="280.019" width="16" height="16" fill="#0eb493"/>
	</g>
</g>
<g>
	<g>
		<rect x="352.01" y="280.019" width="16" height="16" fill="#0eb493"/>
	</g>
</g>
<g>
	<g>
		<rect x="360.01" y="128.019" width="72" height="16" fill="#0eb493"/>
	</g>
</g>
<g>
	<g>
		<rect x="360.01" y="160.019" width="48" height="16" fill="#0eb493"/>
	</g>
</g>
<g>
	<g>
		<rect x="392.01" y="96.019" width="40" height="16" fill="#0eb493"/>
	</g>
</g>
<g>
	<g>
		<rect x="360.01" y="96.019" width="16" height="16" fill="#0eb493"/>
	</g>
</g>
<g>
</g>
<g>
</g>
<g>
</g>
<g>
</g>
<g>
</g>
<g>
</g>
<g>
</g>
<g>
</g>
<g>
</g>
<g>
</g>
<g>
</g>
<g>
</g>
<g>
</g>
<g>
</g>
<g>
</g>
</svg>
