<svg width="500" height="500" xmlns="http://www.w3.org/2000/svg">

 <g>
  <title>background</title>
  <rect fill="none" id="canvas_background" height="402" width="582" y="-1" x="-1"/>
 </g>
 <g>
  <title>Layer 1</title>
  <circle id="svg_2" fill="#F4F1F0" r="250" cy="250" cx="250"/>
  <polygon id="svg_4" fill="#675F58" points="137.188,217.944 155.141,235.896 137.188,253.841 144.892,261.551 170.549,235.896       144.892,210.24     "/>
  <rect id="svg_5" fill="#675F58" y="224.989" x="184.641" width="32.702" height="10.907"/>
  <path id="svg_7" fill="#0eb493" d="m279.764,325.531l-159.772,0c-5.645,-0.011 -10.335,-4.698 -10.349,-10.362l0,-131.559l217.386,0l0,43.229l11.192,0c0.418,0 0.819,0.049 1.221,0.117l0,-57.943c-0.011,-12.562 -10.205,-22.746 -22.765,-22.776l-196.685,0c-12.562,0.03 -22.746,10.213 -22.77,22.776l0,146.156c0.024,12.571 10.208,22.76 22.77,22.776l162.744,0l-2.338,-2.333c-2.702,-2.647 -2.957,-7.064 -0.634,-10.081zm34.5,-164.696c2.858,0 5.176,2.319 5.176,5.181c0,2.856 -2.317,5.176 -5.176,5.176c-2.859,0 -5.176,-2.319 -5.176,-5.176c0,-2.862 2.316,-5.181 5.176,-5.181zm-40.68,0.309l25.456,0c2.69,0 4.866,2.186 4.866,4.872c0,2.68 -2.176,4.866 -4.866,4.866l-25.456,0c-2.686,0 -4.866,-2.186 -4.866,-4.866c0,-2.686 2.18,-4.872 4.866,-4.872z"/>
  <path id="svg_9" fill="#675F58" d="m349.821,266.075c-2.415,-0.678 -4.976,-1.068 -7.607,-1.068c-1.649,0 -3.244,0.168 -4.802,0.434c-5.87,1.009 -11.111,3.798 -15.153,7.823c-5.104,5.1 -8.246,12.158 -8.246,19.943c0,7.791 3.142,14.839 8.246,19.944c3.662,3.651 8.312,6.282 13.515,7.486c2.073,0.488 4.21,0.771 6.44,0.771c2.387,0 4.692,-0.331 6.9,-0.884c5.014,-1.265 9.495,-3.831 13.043,-7.373c5.105,-5.105 8.263,-12.153 8.263,-19.944c0,-7.785 -3.157,-14.844 -8.263,-19.943c-3.379,-3.369 -7.61,-5.87 -12.336,-7.189zm0,34.381c-1.927,2.007 -4.617,3.276 -7.607,3.276c-1.747,0 -3.369,-0.461 -4.802,-1.215c-3.396,-1.747 -5.718,-5.241 -5.718,-9.311c0,-4.079 2.321,-7.573 5.718,-9.32c1.433,-0.749 3.055,-1.204 4.802,-1.204c2.989,0 5.68,1.27 7.607,3.271c1.807,1.888 2.935,4.433 2.935,7.253c0,2.812 -1.128,5.351 -2.935,7.25z"/>
  <path id="svg_10" fill="#0eb493" d="m401.117,284.972l-12.738,-1.508c-1.21,-5.795 -3.51,-11.209 -6.651,-16.005l7.953,-10.08c0.57,-0.711 0.511,-1.832 -0.141,-2.477l-9.028,-9.024c-0.64,-0.641 -1.741,-0.711 -2.484,-0.146l-10.069,7.953c-4.807,-3.13 -10.2,-5.42 -15.999,-6.632l-1.509,-12.752c-0.049,-0.456 -0.287,-0.868 -0.629,-1.166c-0.331,-0.301 -0.766,-0.483 -1.221,-0.483l-11.188,0l-1.584,0c-0.9,0 -1.736,0.744 -1.845,1.649l-1.508,12.752c-5.806,1.212 -11.204,3.502 -16.005,6.632l-10.086,-7.953c-0.711,-0.564 -1.823,-0.494 -2.485,0.146l-9.011,9.024c-0.651,0.645 -0.732,1.767 -0.142,2.477l7.943,10.08c-3.137,4.796 -5.426,10.21 -6.647,16.005l-12.733,1.508c-0.911,0.108 -1.649,0.944 -1.649,1.855l0,12.761c0,0.906 0.738,1.747 1.649,1.855l12.733,1.497c1.221,5.816 3.51,11.198 6.647,16.016l-5.188,6.575l-2.756,3.5c-0.591,0.732 -0.51,1.839 0.142,2.474l6.429,6.44l0.136,0.135l2.446,2.453c0.651,0.646 1.774,0.71 2.496,0.141l3.288,-2.594l0.151,-0.135l6.636,-5.225c3.342,2.185 6.982,3.911 10.829,5.202c0.135,0.049 0.271,0.114 0.401,0.163c1.567,0.499 3.136,0.944 4.775,1.286l1.508,12.738c0.108,0.906 0.944,1.649 1.845,1.655l12.771,-0.006c0.9,0.006 1.747,-0.743 1.85,-1.649l1.509,-12.738c1.622,-0.342 3.195,-0.787 4.758,-1.286c3.998,-1.302 7.779,-3.104 11.241,-5.365l6.77,5.349l3.299,2.604c0.743,0.569 1.845,0.505 2.484,-0.141l2.469,-2.464l6.56,-6.564c0.651,-0.635 0.711,-1.741 0.141,-2.474l-7.953,-10.075c3.142,-4.817 5.441,-10.199 6.651,-16.016l12.738,-1.497c0.901,-0.108 1.66,-0.949 1.66,-1.855l0,-12.761c0.001,-0.91 -0.757,-1.746 -1.659,-1.854zm-54.639,41.905c-1.404,0.174 -2.82,0.299 -4.264,0.299c-4.237,0 -8.252,-0.798 -11.984,-2.208c-12.842,-4.861 -21.984,-17.232 -21.984,-31.761c0,-17.127 12.685,-31.255 29.167,-33.594c1.568,-0.222 3.163,-0.374 4.802,-0.374c2.62,0 5.148,0.325 7.607,0.885c15.088,3.467 26.356,16.948 26.356,33.083c0,17.308 -12.962,31.565 -29.7,33.67z"/>
 </g>
</svg>