<?xml version="1.0" encoding="iso-8859-1"?>
<!-- Generator: Adobe Illustrator 16.0.0, SVG Export Plug-In . SVG Version: 6.00 Build 0)  -->
<!DOCTYPE svg PUBLIC "-//W3C//DTD SVG 1.1//EN" "http://www.w3.org/Graphics/SVG/1.1/DTD/svg11.dtd">
<svg xmlns="http://www.w3.org/2000/svg" xmlns:xlink="http://www.w3.org/1999/xlink" version="1.1" id="Capa_1" x="0px" y="0px" width="512px" height="512px" viewBox="0 0 192.159 192.158" style="enable-background:new 0 0 192.159 192.158;" xml:space="preserve">
<g>
	<path d="M170.976,122.306c0.751-5.948,1.276-13.704-2.669-18.761c-2.014-2.581-5.251-3.852-8.063-2.965   c2.422-7.51,0.021-19.67-1.088-26.302c-1.928-11.531-8.408-21.156-17.673-27.961c3.838-2.835,6.874-6.481,8.478-11.083   c1.321-3.792,1.673-9.009-0.106-12.852c0.79-0.286,1.364-1.187,0.995-2.007c2.323-1.926,4.069-4.997,4.544-7.576   c0.669-3.633-0.551-7.267-3.173-9.85c-2.629-2.591-6.357-3.484-9.902-2.641c-3.874,0.92-6.574,4.369-8.178,7.869   c-0.357-0.154-0.727-0.297-1.172-0.333c-14.078-1.166-22.479,6.351-30.197,17.362c-13.23,18.882-23.896,30.925-47.096,36.137   c-1.238,0.279-1.66,1.495-1.439,2.549C31.144,80.653,69.537,126.16,91.338,102.89c1.385,0.12,2.998-0.85,3.088-2.497   c0.786-14.472,7.412-27.6,20.998-33.815c5.135,2.924,8.946,6.897,11.839,12.429c1.894,3.62,2.364,8.443,3.553,12.624   c-14.284,1.03-38.964,11.967-34.79,28.795c-0.232-0.182-0.489-0.331-0.791-0.398c-4.244-0.929-8.535,0.415-12.855,0.69   c-7.53,0.479-15.119,0.058-22.648-0.189c-6.692-0.219-22.17-3.761-28.118,0.727c-0.475,0.169-0.895,0.484-1.165,0.969   c-2.492,4.477-3.267,10.093-3.45,15.163c-0.068,1.884,1.521,3.029,3.208,3.208c7.887,0.834,15.751,1.121,23.676,0.775   c4.044-0.176,9.556-0.059,13.435-2.052c-2.054,5.468-2.235,11.534-2.265,17.472c-3.261-0.475-6.506-1.338-9.668-2.106   c-0.455-0.111-0.875-0.121-1.274-0.082c-0.551-0.186-1.157-0.197-1.697,0.111c-12.871,7.34-22.199,19.791-31.101,31.375   c-1.924,2.503,0.727,5.889,3.412,5.945c8.638,0.182,17.274,0.143,25.91,0.029c0.159,0.014,0.307,0.036,0.452-0.006   c15.365-0.208,30.726-0.729,46.086-1.266c22.12-0.771,45.412,1.476,67.309-0.916c0.762-0.083,1.396-0.426,1.904-0.886   c1.443-0.436,2.369-2.564,1.083-3.894c-4.017-4.151-7.613-8.54-11.045-13.182c-2.384-3.225-4.405-7.169-7.144-10.218   C162.142,154.062,169.234,136.103,170.976,122.306z M143.51,6.083c1.537-0.412,3.304,0.225,4.377,1.197   c1.233,1.118,1.803,2.713,1.514,4.269c-0.349,1.877-1.589,3.054-2.858,4.235c-2.61-2.113-5.605-3.872-8.336-5.593   C139.58,8.297,141.145,6.718,143.51,6.083z M132.97,14.822c1.828,0.091,2.823-0.99,3.155-2.311c0.06,0.056,0.094,0.122,0.166,0.172   c2.168,1.518,4.328,3.043,6.398,4.693c0.494,0.393,0.961,0.816,1.438,1.229c-0.377,0.852-0.223,1.683,0.257,2.336   c-0.269,0.415-0.464,0.876-0.516,1.353c-0.158,1.443-0.072,2.829,0.043,4.207c-2.374-2.396-5.161-4.464-7.717-6.577   c-2.079-1.718-4.198-3.387-6.326-5.045C130.871,14.804,131.894,14.769,132.97,14.822z M125.893,15.533   c2.671,2.224,5.346,4.444,7.962,6.733c3.433,3.001,6.479,6.64,10.213,9.259c-0.056,0.655-0.142,1.317-0.312,1.998   c-0.348,1.384-0.889,2.633-1.512,3.826c-3.578-3.341-8.397-5.969-12.171-8.903c-3.963-3.081-7.86-6.245-11.778-9.381   C120.589,17.475,123.1,16.258,125.893,15.533z M60.97,93.792c-5.535-5.79-7.026-12.398-5.911-19.096   c9.969,7.714,19.053,16.396,28.5,24.746C75.325,102.85,67.972,101.116,60.97,93.792z M90.743,84.332   c-2.707-3.728-7.796-6.788-11.1-9.487c-2.57-2.099-5.153-4.177-7.658-6.354c-0.874-0.76-1.704-1.564-2.557-2.347   c-0.401-0.367-1.786-0.312-1.848-0.381c-0.349-0.388-1.07,0.016-0.891,0.518c-0.066,0.213-0.132,0.426-0.198,0.638   c-0.249,0.589,0.078,1.273,0.452,1.71c3.321,3.887,7.646,7.163,11.559,10.424c3.465,2.887,7.147,6.964,11.265,8.885   c0.009,0.004,0.018,0.004,0.027,0.008c-0.647,2.999-0.946,6.065-0.801,9.129c-0.405,0.018-0.821,0.12-1.244,0.31   c-0.092-0.086-0.14-0.184-0.252-0.264c-11-7.787-20.968-16.926-31.956-24.706c0.598-2.376,1.497-4.752,2.647-7.097   c5.577-0.567,10.713-1.64,15.556-3.379c2.279,3.002,6.188,5.283,9.084,7.485c2.404,1.827,4.821,3.637,7.25,5.431   c1.152,0.85,2.415,1.937,3.843,2.181C92.621,79.361,91.553,81.809,90.743,84.332z M95.541,74.462   c-0.689-1.025-1.991-1.728-2.939-2.404c-2.399-1.711-4.866-3.333-7.283-5.02c-2.923-2.041-5.81-4.26-8.864-6.132   c3.362-1.424,6.584-3.21,9.712-5.435c3.11,2.211,6.17,4.488,9.178,6.843c2.066,1.618,4.133,3.36,6.357,4.81   C99.357,69.297,97.311,71.787,95.541,74.462z M110.758,60.909c-2.2,1.058-4.272,2.368-6.217,3.851   c-2.766-1.998-5.815-3.697-8.623-5.583c-2.586-1.736-5.162-3.481-7.783-5.157c1.01-0.789,2.017-1.593,3.01-2.483   c1.422-1.274,2.749-2.716,4.04-4.222c3.099,3.133,6.547,5.849,10.035,8.551c1.887,1.462,3.726,3.234,5.632,4.879   C110.828,60.803,110.782,60.85,110.758,60.909z M114.669,58.83c-0.273-0.1-0.523-0.083-0.78-0.102   c-1.868-1.533-4.002-2.842-5.846-4.119c-4.013-2.78-7.992-5.534-11.736-8.66c6.68-8.255,12.075-18.769,19.798-25.241   c4.308,3.801,8.591,7.628,12.946,11.373c3.285,2.824,6.891,6.534,10.885,8.672c-0.947,1.118-1.98,2.183-3.176,3.146   c-0.522,0.421-0.729,0.945-0.734,1.476c-1.154-0.736-2.334-1.437-3.312-2.162c-3.487-2.583-6.882-5.288-10.269-7.999   c-3.608-2.888-7.144-5.745-10.938-8.224c-0.908-0.593-1.759,0.687-1.104,1.431c3.191,3.621,6.836,6.788,10.559,9.994   c3.093,2.663,6.22,5.288,9.396,7.851c1.594,1.285,3.499,3.199,5.499,4.353c0.055,0.05,0.093,0.106,0.151,0.153   c8.719,7.009,13.582,14.868,15.979,24.762c-3.79-2.834-7.582-6.833-11.04-9.289c-12.469-8.86-25.789-18.187-35.936-29.693   c-0.858-0.975-2.574,0.33-1.809,1.395c4.788,6.666,10.67,12.127,16.938,17.389c5.613,4.712,11.399,10.747,17.625,14.566   c3.966,2.433,10.07,10.699,15.444,12.269c0.045,0.351,0.114,0.677,0.154,1.033c0.689,6.128-1.118,15.757,3.26,20.643   c-0.346,1.296,0.158,2.723,1.7,3.127c5.876,1.541,6.253,7.396,5.408,13.196c-0.044-0.106-0.053-0.214-0.117-0.317   c-6.4-10.222-17.446-17.974-27.366-24.49c-0.021-0.013-0.04-0.012-0.061-0.024c1.429-3.476,0.715-8.186-0.553-12.449   c2.107,1.955,4.145,3.988,6.122,6.078c2.977,3.145,5.637,8.167,9.641,9.976c1.415,0.64,2.666-0.641,2.047-2.046   c-1.902-4.31-7.373-7.787-10.743-11.032c-2.708-2.608-5.519-5.041-8.542-7.222c-0.422-1.073-0.844-2.09-1.229-2.95   C129.388,67.801,122.728,61.781,114.669,58.83z M123.589,99.775c-0.335,0.671-0.159,1.599,0.793,1.943   c5.422,1.958,10.242,8.524,14.029,13.263c-0.927-0.293-1.873-0.518-2.831-0.596c0.208-0.793-0.187-1.704-1.241-1.649   c-1.369,0.072-2.658,0.355-3.901,0.729c-1.724-1.46-3.574-2.822-5.14-4.273c-2.57-2.383-4.904-4.99-7.093-7.722   C119.97,100.781,121.78,100.243,123.589,99.775z M127.313,121.357c0.351-0.479,0.717-0.949,1.112-1.394   c0.291,0.305,0.655,0.562,1.123,0.712c3.211,1.025,9.04-0.616,10.434,3.585c1.001,3.017-0.735,6.752-2.634,9.037   c-2.157,2.597-5.2,4.053-8.336,2.278c-5.086-2.877-5.259-7.56-3.206-11.753C127.149,124.103,128.152,122.55,127.313,121.357z    M115.391,102.686c2.327,3.118,4.861,6.051,7.54,8.874c1.114,1.173,2.29,2.471,3.542,3.702c-1.11,0.693-2.161,1.465-3.061,2.383   c-1.866-1.514-3.828-2.945-5.59-4.499c-2.66-2.347-5.077-4.933-7.152-7.799C112.147,104.347,113.742,103.471,115.391,102.686z    M108.336,107.052c1.844,2.729,3.908,5.27,6.234,7.631c1.992,2.022,4.179,4.185,6.511,6.065c-1.351,2.278-2.171,4.851-2.202,7.537   c-4.818-5.963-9.309-12.173-13.057-18.86C106.59,108.582,107.438,107.797,108.336,107.052z M33.6,134.468   c0.27-3.23,0.746-6.424,1.103-9.647c0.573,0.128,1.166,0.207,1.765,0.269c1.058,1.992,2.312,3.872,3.729,5.687   c1.105,1.415,2.31,2.905,3.648,4.244C40.426,134.95,37.005,134.749,33.6,134.468z M53.885,134.784   c-1.623,0.117-3.25,0.188-4.877,0.227c-1.686-1.676-3.682-3.072-5.407-4.705c-1.609-1.524-2.988-3.227-4.22-5.033   c0.531,0.026,1.061,0.055,1.581,0.101c3.336,0.29,6.67,0.574,10.004,0.844c1.336,2.105,2.769,4.14,4.33,6.101   c0.53,0.666,1.093,1.39,1.699,2.081C55.955,134.562,54.916,134.711,53.885,134.784z M61.493,133.699   c-1.235-1.28-2.634-2.438-3.85-3.729c-1.063-1.127-2.093-2.297-3.096-3.489c2.846,0.215,5.693,0.43,8.545,0.594   c0.405,0.023,0.842,0.057,1.278,0.087c1.569,2.368,3.144,4.732,4.777,7.066C66.688,133.298,64.107,133.363,61.493,133.699z    M32.942,184.223c1.796-2.135,3.625-4.243,5.46-6.345c1.594,2.056,3.148,4.144,4.689,6.239c0.026,0.035,0.053,0.076,0.079,0.112   C39.763,184.235,36.354,184.268,32.942,184.223z M47.208,184.233c-0.909-0.952-1.807-1.895-2.591-2.843   c-1.507-1.823-3.039-3.602-4.621-5.334c1.612-1.841,3.213-3.688,4.811-5.538c2.919,3.715,6.018,7.251,9.32,10.638   c0.812,0.833,1.712,1.876,2.669,2.943C53.6,184.152,50.405,184.212,47.208,184.233z M62.507,184.005   c-0.204-0.156-0.41-0.31-0.609-0.472c-1.856-1.517-3.632-3.132-5.39-4.759c-3.492-3.231-6.739-6.809-9.837-10.423   c1.535-1.803,3.027-3.639,4.512-5.481c-0.268,0.459-0.22,1.103,0.374,1.531c-0.667-0.481,0.391,0.74,0.71,1.039   c1.063,0.997,2.058,2.077,3.087,3.109c2.764,2.773,5.454,5.62,8.219,8.393c1.695,1.701,3.92,4.453,6.377,6.857   C67.47,183.865,64.989,183.95,62.507,184.005z M77.446,183.594c-4.189-3.714-8.504-7.324-12.603-11.175   c-2.708-2.546-5.454-5.057-8.242-7.515c-0.774-0.683-1.613-1.303-2.44-1.921c-0.697-0.521-1.58-0.598-1.459-0.543   c-0.656-0.301-1.227-0.038-1.501,0.407c0.428-0.532,0.88-1.045,1.301-1.581c0.285,0.157,0.596,0.295,0.965,0.38   c3.785,0.884,7.669,1.83,11.568,2.295c0.035,0.057,0.054,0.116,0.103,0.172c3.684,4.147,7.587,8.104,11.411,12.122   c1.902,1.999,3.903,5.094,6.261,7.187C81.022,183.478,79.234,183.539,77.446,183.594z M102.809,182.779   c-5.053,0.167-10.104,0.325-15.158,0.486c-1.371-3.66-6.231-6.573-9.005-9.128c-3.558-3.277-6.993-6.684-10.558-9.952   c0.162,0.007,0.323,0.034,0.484,0.039c1.915,0.057,3.568-1.656,3.545-3.545c-0.033-2.793-0.056-5.564-0.107-8.326   c3.122,4.407,6.454,8.681,9.775,12.926c4.163,5.32,8.752,12.729,14.658,16.126c1.576,0.907,3.313-0.885,2.447-2.446   c-3.002-5.408-8.749-9.826-12.835-14.524c-4.89-5.623-9.406-11.555-14.222-17.234c-0.196-3.712-0.565-7.404-1.334-11.088   c5.859,8.271,12.025,16.362,18.205,24.322c4.791,6.169,10.934,16.533,18.277,22.163   C105.584,182.663,104.179,182.734,102.809,182.779z M114.984,182.178c-6.901-8.806-15.633-16.514-22.771-25.254   c-7.971-9.761-15.485-20.249-24.172-29.466c3.286,0.282,7.025,0.588,10.755,0.641c5.048,10.601,11.546,20.43,18.39,29.964   c5.826,8.115,12.043,17.129,19.588,24.01C116.179,182.108,115.578,182.144,114.984,182.178z M151.164,175.976   c1.76,2.172,3.678,4.229,5.699,6.181c-6.989-0.919-14.263-1.056-21.566-0.901c0.015-0.395-0.053-0.798-0.338-1.185   c-13.091-17.876-27.659-35.115-41.938-52.058c-1.192-1.415-3.635,0.466-2.565,1.979c12.428,17.584,26.095,34.685,39.69,51.396   c-2.488,0.098-4.978,0.213-7.452,0.349c-6.625-9.012-14.759-17.052-21.559-25.979c-6.769-8.89-12.937-18.203-18.799-27.707   c5.509-0.219,10.68-1.219,13.947-4.055c0.313-0.271,0.505-0.619,0.607-0.99c0.683,1.354,2.525,1.598,3.375,0.633   c8.289,9.896,16.018,20.231,23.75,30.567c6.105,8.161,12.633,19.565,21.537,24.835c1.826,1.081,4.348-1.156,3.034-3.033   c-6.065-8.662-14.466-16.181-21.228-24.382c-8.763-10.631-17.125-21.642-26.491-31.756c0.387-3.249,1.633-6.089,3.434-8.574   c3.837,7.808,8.604,15.048,13.956,21.972c7.205,9.319,14.791,20.618,23.941,28.159c-0.236,0.765-0.1,1.623,0.397,2.164   C144.077,168.149,148.212,172.334,151.164,175.976z M144.766,158.758c-3.369-5.851-8.358-11.039-13.224-16.094   c2.627,0.11,5.316-0.608,7.706-2.333c0.743-0.536,1.436-1.165,2.102-1.828c-0.093,0.374-0.039,0.791,0.299,1.167   c1.473,1.641,2.764,3.421,4.067,5.195c1.211,1.649,2.451,3.836,4.25,4.879c1.429,0.828,2.983-0.803,2.211-2.211   c-0.937-1.71-2.692-3.117-3.976-4.585c-1.529-1.747-3.036-3.509-4.729-5.102c-0.388-0.365-0.82-0.416-1.202-0.307   c2.892-3.333,4.737-7.785,4.556-12.145c2.948,3.728,5.896,7.456,9.007,11.051c2.161,2.497,5.681-1.108,3.598-3.598   c-5.824-6.961-11.683-13.88-17.842-20.551c-4.188-4.534-9.567-11.411-15.911-13.054c2.499-0.53,4.968-0.851,7.291-0.964   c0.998-0.048,1.731-0.454,2.259-1.021c9.52,7.566,17.128,16.008,24.983,25.218c0.95,1.114,2.396,0.703,3.17-0.234   c-0.371,1.979-0.824,3.891-1.189,5.548C159.557,139.781,154.228,150.941,144.766,158.758z" fill="#0eb493"/>
</g>
<g>
</g>
<g>
</g>
<g>
</g>
<g>
</g>
<g>
</g>
<g>
</g>
<g>
</g>
<g>
</g>
<g>
</g>
<g>
</g>
<g>
</g>
<g>
</g>
<g>
</g>
<g>
</g>
<g>
</g>
</svg>
