<?xml version="1.0" encoding="iso-8859-1"?>
<!-- Generator: Adobe Illustrator 16.0.0, SVG Export Plug-In . SVG Version: 6.00 Build 0)  -->
<!DOCTYPE svg PUBLIC "-//W3C//DTD SVG 1.1//EN" "http://www.w3.org/Graphics/SVG/1.1/DTD/svg11.dtd">
<svg xmlns="http://www.w3.org/2000/svg" xmlns:xlink="http://www.w3.org/1999/xlink" version="1.1" id="Capa_1" x="0px" y="0px" width="512px" height="512px" viewBox="0 0 100 100" style="enable-background:new 0 0 100 100;" xml:space="preserve">
<g>
	<g>
		<path d="M94,6H6c-3.313,0-6,2.687-6,6v76c0,3.312,2.687,6,6,6h88c3.314,0,6-2.688,6-6V12C100,8.686,97.314,6,94,6z M79,10    c2.205,0,4,1.794,4,4s-1.795,4-4,4s-4-1.794-4-4S76.795,10,79,10z M68,10c2.205,0,4,1.794,4,4s-1.795,4-4,4s-4-1.794-4-4    S65.795,10,68,10z M32.674,88C34.101,79.712,41.305,73.4,50,73.4c8.695,0,15.898,6.312,17.325,14.6H32.674z M94,85.721    c0-1.943-1.576-3.479-3.521-3.479h-6.394c-0.833-3.203-2.119-6.288-3.774-9.088l4.535-4.545c1.375-1.375,1.375-3.608,0-4.983    l-7.468-7.47c-1.375-1.375-3.604-1.377-4.978-0.002l-4.56,4.535c-2.799-1.656-5.884-2.942-9.088-3.775V50.52    c0-1.94-1.53-3.52-3.479-3.52H44.72c-1.944,0-3.477,1.576-3.477,3.52v6.396c-3.204,0.833-6.289,2.119-9.087,3.773l-4.546-4.535    c-1.375-1.375-3.609-1.375-4.983,0l-7.47,7.469c-1.375,1.375-1.376,3.604-0.001,4.979l4.535,4.556    c-1.656,2.801-2.943,5.886-3.775,9.089H9.52c-1.944,0-3.52,1.531-3.52,3.479V22h88V85.721z M90,18c-2.205,0-4-1.794-4-4    s1.795-4,4-4s4,1.794,4,4S92.205,18,90,18z" fill="#0eb493"/>
	</g>
</g>
<g>
</g>
<g>
</g>
<g>
</g>
<g>
</g>
<g>
</g>
<g>
</g>
<g>
</g>
<g>
</g>
<g>
</g>
<g>
</g>
<g>
</g>
<g>
</g>
<g>
</g>
<g>
</g>
<g>
</g>
</svg>
