<svg width="600" height="600" xmlns="http://www.w3.org/2000/svg">

 <g>
  <title>background</title>
  <rect fill="none" id="canvas_background" height="402" width="582" y="-1" x="-1"/>
 </g>
 <g>
  <title>Layer 1</title>
  <circle fill="#0eb493" id="svg_1" r="50.2" cy="299.6" cx="299.5" class="st0"/>
  <path fill="#0eb493" id="svg_3" d="m299.5,414.6c-70.5,0 -132.1,-8.3 -178.2,-24.1c-29.9,-10.2 -55.3,-23.8 -73.4,-39.3c-19.2,-16.4 -29.4,-34.3 -29.4,-51.6c0,-33.2 36.4,-65.7 97.5,-86.9c50,-17.4 115.2,-27.1 183.4,-27.1c67,0 131.3,9.4 181,26.6c29.1,10 53.6,23 71,37.4c18.9,15.8 28.9,33.1 28.9,50c0,34.5 -40.7,69.4 -106.3,91.1c-46.4,15.4 -108.4,23.9 -174.5,23.9zm0,-205c-64.7,0 -128.7,9.4 -175.5,25.7c-56.2,19.6 -81.4,46.4 -81.4,64.3c0,18.6 27.1,47.9 86.5,68.2c43.6,14.9 102.6,22.8 170.4,22.8c63.6,0 122.9,-8 167,-22.7c61.7,-20.5 89.9,-49.8 89.9,-68.3c0,-9.5 -7.2,-20.7 -20.3,-31.6c-15.1,-12.6 -37.1,-24.1 -63.4,-33.2c-47.3,-16.2 -108.8,-25.2 -173.2,-25.2z" class="st0"/>
  <path stroke="null" fill="#0eb493" id="svg_5" d="m188.959867,549.8c-10.080111,0 -18.974326,-2.170299 -26.484997,-6.510897c-28.362664,-16.375893 -38.245126,-63.530575 -26.287347,-126.1733c9.783637,-51.39663 33.699193,-111.770406 67.398387,-170.072532c33.106246,-57.216977 72.833741,-107.528457 112.067113,-141.562694c22.927311,-19.927292 46.151095,-34.527486 67.101913,-42.222183c22.828486,-8.385247 42.593409,-8.385247 57.021802,-0.09865c29.54856,16.967793 39.332196,69.054973 25.49675,135.742346c-9.783637,47.351981 -33.106246,104.470308 -65.718369,160.996736c-34.786264,60.176476 -72.339618,108.712257 -108.608251,140.378894c-23.520258,20.519192 -47.732289,35.513986 -69.869002,43.307333c-11.56248,4.143298 -22.433187,6.214948 -32.118,6.214948zm24.804978,-296.837732l10.27776,5.918998c-31.92035,55.243978 -55.539433,114.532604 -64.631298,162.673785c-10.969532,57.710227 -0.395298,92.435013 14.823692,101.21486c3.755335,2.170299 8.696566,3.354099 14.724868,3.354099c19.666098,0 50.598203,-12.429895 86.372713,-43.603283c34.292141,-29.890938 70.165476,-76.45372 103.66702,-134.361247c31.426227,-54.356128 53.76059,-109.008207 63.050104,-153.893939c12.946024,-62.840025 1.778843,-101.31351 -14.13192,-110.487956c-8.103618,-4.636548 -21.247292,-4.044648 -37.05923,1.775699c-18.282554,6.708197 -38.936898,19.828642 -59.690067,37.881585c-37.25688,32.357187 -75.304356,80.498368 -107.125882,135.545046l-10.27776,-6.017648z" class="st0"/>
  <path fill="#0eb493" id="svg_7" d="m413.4,550.1c-27.2,0 -61.7,-16.4 -97.7,-47.4c-40.2,-34.6 -81.1,-86.1 -115.3,-145.2l0,0c-33.6,-58 -57.6,-118.3 -67.7,-170c-5.9,-30.2 -7,-57.9 -3.2,-80.2c4.2,-24.3 14.1,-41.6 28.8,-50.1c29.8,-17.3 80.5,0.5 132.1,46.4c36.6,32.5 75,81.9 108.1,139.1c35.3,61 59,118.5 68.4,166.3c6.1,31 7.1,59.8 2.8,83.2c-4.6,24.9 -15,42.6 -30,51.3c-7.5,4.4 -16.4,6.6 -26.3,6.6zm-192.2,-204.6c32.4,56 72.6,106.7 110.2,139c45.1,38.8 80.9,47.2 96.4,38.2c16.1,-9.3 27.9,-47.4 15.7,-109c-9,-45.2 -31.7,-100.2 -65.7,-158.9c-31.9,-55.1 -68.6,-102.4 -103.3,-133.2c-48.6,-43.2 -88,-52.9 -104.1,-43.6c-8.2,4.7 -14.3,16.6 -17.2,33.4c-3.3,19.4 -2.3,44.2 3.1,71.5c9.6,49.1 32.6,106.8 64.9,162.6l0,0z" class="st0"/>
 </g>
</svg>