<svg width="24" height="24" xmlns="http://www.w3.org/2000/svg">

 <g>
  <title>background</title>
  <rect fill="none" id="canvas_background" height="402" width="582" y="-1" x="-1"/>
 </g>
 <g>
  <title>Layer 1</title>
  <path fill="#0eb493" stroke="null" id="svg_1" d="m15,2l0.2,2c2.2,-0.2 4.1,1.4 4.4,3.6l0.5,5c0.2,2.2 -1.4,4.1 -3.6,4.4c-2.2,0.2 -4.1,-1.4 -4.4,-3.6l-2,0.2c0.3,3.3 3.2,5.7 6.5,5.4s5.7,-3.2 5.4,-6.5l-0.5,-5c-0.3,-3.4 -3.2,-5.8 -6.5,-5.5z"/>
  <path fill="#0eb493" id="svg_2" d="m9,22l-0.2,-2c-2.2,0.2 -4.1,-1.4 -4.3,-3.6l-0.4,-5c-0.3,-2.2 1.4,-4.1 3.6,-4.3s4.1,1.4 4.3,3.6l2,-0.2c-0.3,-3.3 -3.2,-5.7 -6.5,-5.4s-5.8,3.2 -5.5,6.5l0.4,5c0.4,3.3 3.3,5.7 6.6,5.4z"/>
 </g>
</svg>