<?xml version="1.0" encoding="iso-8859-1"?>
<!-- Generator: Adobe Illustrator 18.0.0, SVG Export Plug-In . SVG Version: 6.00 Build 0)  -->
<!DOCTYPE svg PUBLIC "-//W3C//DTD SVG 1.1//EN" "http://www.w3.org/Graphics/SVG/1.1/DTD/svg11.dtd">
<svg xmlns="http://www.w3.org/2000/svg" xmlns:xlink="http://www.w3.org/1999/xlink" version="1.1" id="Capa_1" x="0px" y="0px" viewBox="0 0 456.478 456.478" style="enable-background:new 0 0 456.478 456.478;" xml:space="preserve" width="512px" height="512px">
<g>
	<path d="M367.528,383.04l-78.934-237.855V50.633c12.588-1.502,22.382-12.237,22.382-25.223c0-14.011-11.399-25.41-25.41-25.41   H170.912c-14.011,0-25.41,11.399-25.41,25.41c0,12.986,9.794,23.721,22.382,25.223v94.552L88.95,383.04   c-5.718,17.23-2.904,35.555,7.721,50.275c10.625,14.72,27.13,23.163,45.285,23.163h172.566c18.154,0,34.66-8.443,45.285-23.163   C370.432,418.594,373.246,400.27,367.528,383.04z M165.502,25.41c0-2.983,2.427-5.41,5.41-5.41h114.654   c2.983,0,5.41,2.427,5.41,5.41s-2.427,5.41-5.41,5.41H170.912C167.929,30.82,165.502,28.393,165.502,25.41z M343.59,421.61   c-6.82,9.449-17.415,14.868-29.068,14.868H141.956c-11.653,0-22.248-5.419-29.068-14.868c-6.82-9.449-8.626-21.211-4.956-32.271   l79.443-239.388c0.337-1.016,0.509-2.079,0.509-3.15V50.82h80.709v95.981c0,1.07,0.172,2.134,0.509,3.15l79.443,239.389   C352.216,400.399,350.41,412.161,343.59,421.61z" fill="#0eb493"/>
	<path d="M296.432,264.053c-0.636-1.915-1.835-3.593-3.442-4.813c-0.191-0.145-19.303-14.494-37.717-13.223   c-14.325,0.987-26.321,5.259-35.654,12.696c-13.092,10.433-31.221,11.208-45.112,1.926c-2.595-1.734-5.851-2.156-8.802-1.144   c-2.952,1.013-5.262,3.347-6.245,6.309l-42.04,126.689c-2.654,7.998-1.341,16.486,3.574,23.25   c4.911,6.825,12.553,10.74,20.967,10.74h172.56c8.414,0,16.056-3.914,20.967-10.74c4.91-6.806,6.209-15.28,3.564-23.25   L296.432,264.053z M319.265,404.046c-0.003,0.005-0.007,0.01-0.011,0.016c-1.742,2.421-3.993,2.421-4.733,2.421H141.96   c-0.74,0-2.991,0-4.76-2.458c-1.741-2.395-1.032-4.53-0.799-5.232l38.361-115.604c19.019,7.384,40.803,4.326,57.319-8.834   c6.186-4.929,14.221-7.671,24.565-8.384c7.232-0.501,16.813,4.444,21.875,7.617l41.547,125.206   C320.302,399.494,321.011,401.629,319.265,404.046z" fill="#0eb493"/>
</g>
<g>
</g>
<g>
</g>
<g>
</g>
<g>
</g>
<g>
</g>
<g>
</g>
<g>
</g>
<g>
</g>
<g>
</g>
<g>
</g>
<g>
</g>
<g>
</g>
<g>
</g>
<g>
</g>
<g>
</g>
</svg>
