<?xml version="1.0" encoding="iso-8859-1"?>
<!-- Generator: Adobe Illustrator 18.0.0, SVG Export Plug-In . SVG Version: 6.00 Build 0)  -->
<!DOCTYPE svg PUBLIC "-//W3C//DTD SVG 1.1//EN" "http://www.w3.org/Graphics/SVG/1.1/DTD/svg11.dtd">
<svg xmlns="http://www.w3.org/2000/svg" xmlns:xlink="http://www.w3.org/1999/xlink" version="1.1" id="Capa_1" x="0px" y="0px" viewBox="0 0 303.738 303.738" style="enable-background:new 0 0 303.738 303.738;" xml:space="preserve" width="512px" height="512px">
<g>
	<path d="M127.035,148.084c-22.601,0-40.988,18.388-40.988,40.988c0,22.602,18.388,40.989,40.988,40.989   c22.602-0.001,40.989-18.389,40.989-40.989S149.639,148.084,127.035,148.084z M127.035,215.061   c-14.33,0-25.988-11.659-25.988-25.989c0-14.33,11.658-25.988,25.992-25.988c14.328,0,25.985,11.658,25.985,25.988   C153.024,203.402,141.365,215.061,127.035,215.061z" fill="#01c3a7"/>
	<path d="M257.568,0H165.16c-18.638,0-33.8,15.168-33.8,33.813v40.593h-19.634c-4.143,0-7.5,3.357-7.5,7.5v13.089   c-9.766,2.349-19.002,6.177-27.582,11.431l-9.258-9.259c-2.929-2.927-7.678-2.929-10.606,0l-21.65,21.649   c-1.407,1.407-2.197,3.314-2.197,5.304c0,1.989,0.79,3.896,2.196,5.304l9.259,9.259c-5.254,8.58-9.081,17.815-11.43,27.581H19.869   c-4.143,0-7.5,3.357-7.5,7.5v30.618c0,4.143,3.357,7.5,7.5,7.5h13.089c2.349,9.765,6.177,19.001,11.43,27.581l-9.259,9.258   c-2.929,2.93-2.929,7.678,0,10.608l21.65,21.65c2.93,2.928,7.678,2.928,10.607,0l9.258-9.259   c8.579,5.254,17.816,9.081,27.582,11.431v13.089c0,4.143,3.357,7.5,7.5,7.5h30.618c4.143,0,7.5-3.357,7.5-7.5v-13.089   c9.767-2.35,19.003-6.177,27.581-11.431l9.26,9.259c2.928,2.928,7.677,2.928,10.607,0l21.65-21.65   c1.406-1.407,2.196-3.315,2.196-5.304c0-1.989-0.79-3.896-2.196-5.304l-9.259-9.259c5.253-8.579,9.081-17.816,11.43-27.58h13.089   c4.143,0,7.5-3.357,7.5-7.5v-30.618c0-4.143-3.357-7.5-7.5-7.5h-13.089c-0.841-3.493-1.893-6.909-3.111-10.26l14.218-10.237h25.349   c18.638,0,33.801-15.17,33.801-33.816V33.813C291.369,15.168,276.206,0,257.568,0z M207.616,175.04   c0.622,3.596,3.741,6.223,7.391,6.223h11.695v15.618h-11.695c-3.649,0-6.769,2.627-7.391,6.223   c-2.067,11.963-6.672,23.073-13.685,33.023c-2.102,2.981-1.752,7.044,0.827,9.624l8.274,8.272l-11.044,11.044l-8.274-8.273   c-2.58-2.58-6.642-2.929-9.624-0.826c-9.947,7.013-21.059,11.616-33.023,13.685c-3.596,0.622-6.223,3.741-6.223,7.391v11.695   h-15.618v-11.695c0-3.649-2.627-6.769-6.223-7.391c-11.964-2.067-23.075-6.672-33.023-13.685c-2.981-2.103-7.043-1.755-9.625,0.826   l-8.272,8.273l-11.044-11.044l8.273-8.272c2.579-2.58,2.929-6.643,0.827-9.624c-7.013-9.95-11.617-21.061-13.685-33.023   c-0.622-3.596-3.741-6.223-7.391-6.223H27.369v-15.618h11.695c3.649,0,6.769-2.627,7.391-6.223   c2.067-11.962,6.672-23.073,13.685-33.025c2.102-2.982,1.752-7.044-0.827-9.624l-8.273-8.272l11.044-11.043l8.272,8.273   c2.582,2.58,6.644,2.929,9.624,0.826c9.951-7.013,21.062-11.617,33.024-13.685c3.596-0.622,6.223-3.741,6.223-7.391V89.405h12.134   v22.544c0,18.646,15.162,33.816,33.8,33.816h7.544v28.211c0,2.814,1.576,5.393,4.081,6.675c1.078,0.553,2.25,0.825,3.418,0.825   c1.545,0,3.083-0.477,4.384-1.414l20.682-14.892C206.247,168.39,207.035,171.68,207.616,175.04z M276.369,111.949   c0,10.375-8.434,18.816-18.801,18.816h-27.768c-1.573,0-3.105,0.494-4.383,1.414l-37.714,27.155v-21.069c0-4.143-3.358-7.5-7.5-7.5   H165.16c-10.366,0-18.8-8.441-18.8-18.816V33.813c0-10.373,8.434-18.813,18.8-18.813h92.408c10.367,0,18.801,8.44,18.801,18.813   V111.949z" fill="#01c3a7"/>
	<path d="M210.528,24.636c-17.281,0-31.341,14.06-31.341,31.342c0,4.142,3.357,7.5,7.5,7.5c4.143,0,7.5-3.358,7.5-7.5   c0-9.011,7.33-16.342,16.341-16.342c9.011,0,16.341,7.331,16.341,16.342c0,9.021-11.66,20.565-19.376,28.204   c-0.781,0.774-1.54,1.525-2.268,2.253c-2.929,2.93-2.929,7.678,0,10.607c1.465,1.464,3.385,2.196,5.304,2.196   c1.919,0,3.839-0.732,5.304-2.196c0.71-0.711,1.452-1.445,2.215-2.201c10.054-9.953,23.822-23.586,23.822-38.863   C241.869,38.695,227.81,24.636,210.528,24.636z" fill="#01c3a7"/>
	<path d="M208.366,105.738c-2.37,0-4.691,0.96-6.36,2.64c-1.68,1.67-2.64,3.99-2.64,6.36c0,2.37,0.96,4.69,2.64,6.37   c1.67,1.67,3.99,2.63,6.36,2.63c2.37,0,4.689-0.96,6.37-2.63c1.67-1.681,2.63-4,2.63-6.37c0-2.37-0.96-4.69-2.63-6.36   C213.056,106.698,210.736,105.738,208.366,105.738z" fill="#01c3a7"/>
</g>
<g>
</g>
<g>
</g>
<g>
</g>
<g>
</g>
<g>
</g>
<g>
</g>
<g>
</g>
<g>
</g>
<g>
</g>
<g>
</g>
<g>
</g>
<g>
</g>
<g>
</g>
<g>
</g>
<g>
</g>
</svg>
