<?xml version="1.0" encoding="iso-8859-1"?>
<!-- Generator: Adobe Illustrator 19.0.0, SVG Export Plug-In . SVG Version: 6.00 Build 0)  -->
<svg xmlns="http://www.w3.org/2000/svg" xmlns:xlink="http://www.w3.org/1999/xlink" version="1.1" id="Layer_1" x="0px" y="0px" viewBox="0 0 511.996 511.996" style="enable-background:new 0 0 511.996 511.996;" xml:space="preserve" width="512px" height="512px">
<g>
	<g>
		<g>
			<path d="M320.107,202.568c2.719,0,5.453-1.039,7.531-3.117l117.78-117.772c4.156-4.164,4.156-10.914,0-15.078     c-4.172-4.164-10.922-4.164-15.094,0L312.56,184.365c-4.172,4.164-4.172,10.922,0,15.086     C314.638,201.529,317.372,202.568,320.107,202.568z" fill="#01c3a7"/>
			<path d="M344.686,257.81L505.73,96.765c4.031-4.031,6.25-9.391,6.25-15.086c0-5.695-2.219-11.055-6.25-15.078L445.402,6.273     c-4.016-4.031-9.375-6.25-15.078-6.25s-11.047,2.219-15.077,6.242L252.232,169.287c-1.203,1.195-2.234,2.508-3.094,3.914     c-12.047-10.664-21.438-18.968-26.906-23.812c4.546-17.422,13.484-63.75-9.094-97.375c-12.359-18.406-26.828-32.14-43.016-40.819     C156.263,3.765,141.107,0,125.076,0C85.717,0,54.295,22.68,52.983,23.648l-12.312,9.015l80.953,53.961l2.031,18.242     l-15.422,22.281l-31.343,0.008L1.781,89.601l1.641,18.977c0.078,0.969,2.203,24.109,14.766,47.43     c10.266,19.054,24.453,32.741,41.89,40.71l-12.422,17.938l96.906,8.812c6.734,7.68,23.921,27.266,46.171,52.562L81.812,384.949     v0.016l-6.312,6.312l-30.984,15.484l-44.5,62.297l42.937,42.938l62.296-44.5l15.484-30.969l6.328-6.328l106.03-106.047     c61.609,69.906,134.062,151.703,148.233,165.875c14.094,14.094,32.844,21.844,52.78,21.844c19.938,0,38.688-7.75,52.781-21.844     c29.109-29.125,29.109-76.469,0-105.594C482.543,380.09,412.403,317.809,344.686,257.81z M282.388,169.287     c2.094,2.078,4.812,3.117,7.547,3.117s5.453-1.039,7.547-3.117L415.247,51.515c4.155-4.164,4.155-10.914,0-15.078l15.077-15.085     l60.328,60.327l-15.078,15.086c-4.172-4.164-10.922-4.164-15.078,0L342.732,214.529c-4.172,4.164-4.172,10.922,0,15.086     l-14.031,14.031c-6.25-5.539-12.422-11.008-18.484-16.375l-42.907-42.906L282.388,169.287z M119.999,147.632l17.422,9.531     l-5.828,8.483l-17.453-9.554L119.999,147.632z M132.202,129.999l5.797-8.375l17.328,9.484l-5.766,8.391L132.202,129.999z      M37.265,146.436c-3.641-6.641-6.25-13.344-8.125-19.305l42.718,21.359l21.609-0.008l-20.984,30.296     C57.718,173.068,45.921,162.264,37.265,146.436z M103.202,423.871l-14.671,29.344l-43.266,30.922l-17.39-17.391l30.906-43.281     l29.344-14.656l1.234-1.234l15.078,15.078L103.202,423.871z M119.515,407.574l-15.078-15.078L204.843,292.09     c4.578,5.188,9.297,10.562,14.125,16.031L119.515,407.574z M471.809,474.934c-10.078,10.062-23.453,15.625-37.703,15.625     s-27.64-5.562-37.702-15.625c-24.469-24.469-236.467-266.295-238.607-268.732l-2.814-3.204l-68.984-6.273l15.921-23     l27.891,15.258c1.609,0.883,3.375,1.312,5.109,1.312c3.406,0,6.734-1.641,8.797-4.633l35.875-52.202     c1.703-2.492,2.281-5.578,1.578-8.516s-2.609-5.438-5.25-6.883l-31.234-17.094l-2.953-26.578L79.437,32.858     c10.984-5.39,27.484-11.53,45.64-11.53c27.719,0,51.39,14.327,70.359,42.577c21.828,32.516,4.734,85.094,4.562,85.609     l-2.25,6.703l5.297,4.679c72.437,64.07,261.935,231.834,268.763,238.631C492.605,420.309,492.605,454.152,471.809,474.934z" fill="#01c3a7"/>
			<path d="M239.248,224.881c-4.172-4.164-10.922-4.164-15.094,0c-4.156,4.164-4.156,10.914,0,15.078l150.827,150.818     c2.078,2.094,4.812,3.125,7.531,3.125c2.734,0,5.469-1.031,7.547-3.125c4.172-4.156,4.172-10.906,0-15.078L239.248,224.881z" fill="#01c3a7"/>
			<path d="M435.309,404.027c-8.547,0-16.578,3.344-22.624,9.375c-6.047,6.047-9.375,14.078-9.375,22.625s3.328,16.578,9.375,22.625     c6.046,6.031,14.077,9.375,22.624,9.375s16.578-3.344,22.625-9.375c12.469-12.469,12.469-32.781,0-45.25     C451.887,407.371,443.855,404.027,435.309,404.027z M442.855,443.559c-2.016,2.031-4.703,3.125-7.547,3.125     s-5.531-1.094-7.547-3.125c-2.016-2-3.125-4.688-3.125-7.531s1.109-5.531,3.125-7.547s4.703-3.109,7.547-3.109     s5.531,1.094,7.547,3.109C447.012,432.652,447.012,439.402,442.855,443.559z" fill="#01c3a7"/>
		</g>
	</g>
</g>
<g>
</g>
<g>
</g>
<g>
</g>
<g>
</g>
<g>
</g>
<g>
</g>
<g>
</g>
<g>
</g>
<g>
</g>
<g>
</g>
<g>
</g>
<g>
</g>
<g>
</g>
<g>
</g>
<g>
</g>
</svg>
