<?xml version="1.0" encoding="iso-8859-1"?>
<!-- Generator: Adobe Illustrator 19.0.0, SVG Export Plug-In . SVG Version: 6.00 Build 0)  -->
<svg version="1.1" id="Layer_1" xmlns="http://www.w3.org/2000/svg" xmlns:xlink="http://www.w3.org/1999/xlink" x="0px" y="0px"
	 viewBox="0 0 511.999 511.999" style="enable-background:new 0 0 511.999 511.999;" xml:space="preserve">
<path style="fill:#89BBE4;" d="M477.163,81.691H34.837c-14.735,0-26.679,11.944-26.679,26.678v295.26
	c0,14.734,11.944,26.679,26.679,26.679h442.326c14.735,0,26.679-11.945,26.679-26.679v-295.26
	C503.843,93.635,491.899,81.691,477.163,81.691z"/>
<path style="fill:#54B8AC;" d="M477.163,81.69H34.837c-14.735,0-26.679,11.945-26.679,26.679v31.773h495.686v-31.773
	C503.843,93.635,491.899,81.69,477.163,81.69z"/>
<path style="fill:#145587;" d="M194.242,261.438H80.657c-8.88,0-16.078-7.199-16.078-16.078v-47.24
	c0-8.879,7.199-16.078,16.078-16.078h113.585c8.88,0,16.078,7.199,16.078,16.078v47.24
	C210.32,254.238,203.121,261.438,194.242,261.438z"/>
<g>
	<path style="fill:#FFFFFF;" d="M194.242,368.917H80.657c-8.88,0-16.078-7.198-16.078-16.078v-47.24
		c0-8.88,7.199-16.078,16.078-16.078h113.585c8.88,0,16.078,7.198,16.078,16.078v47.24
		C210.32,361.72,203.121,368.917,194.242,368.917z"/>
	<path style="fill:#FFFFFF;" d="M435.478,289.687l-40.49-40.489c-1.524-1.524-1.033-4.104,0.944-4.962l37.329-16.191
		c2.16-0.936,1.973-4.061-0.286-4.732l-109.775-32.598c-2.025-0.601-3.92,1.263-3.351,3.297l29.962,107.222
		c0.619,2.214,3.636,2.515,4.679,0.464l18.261-35.919c0.941-1.85,3.415-2.244,4.882-0.775l41.262,41.262
		c2.01,2.011,5.27,2.011,7.279,0l9.3-9.3C437.489,294.958,437.489,291.698,435.478,289.687z"/>
</g>
<g>
	<path style="fill:#145587;" d="M386.515,364.217H265.789c-4.505,0-8.157-3.651-8.157-8.157c0-4.506,3.652-8.157,8.157-8.157
		h120.726c4.505,0,8.157,3.651,8.157,8.157C394.672,360.566,391.02,364.217,386.515,364.217z"/>
	<path style="fill:#145587;" d="M312.556,322.739h-46.768c-4.505,0-8.157-3.651-8.157-8.157c0-4.506,3.652-8.157,8.157-8.157h46.768
		c4.505,0,8.157,3.651,8.157,8.157C320.713,319.088,317.061,322.739,312.556,322.739z"/>
</g>
<circle style="fill:#FB7686;" cx="69.485" cy="110.915" r="9.22"/>
<circle style="fill:#FFFFFF;" cx="108.479" cy="110.915" r="9.22"/>
<circle style="fill:#F9C526;" cx="147.481" cy="110.915" r="9.22"/>
<path style="opacity:0.1;fill:#FFFFFF;enable-background:new    ;" d="M477.163,81.691H362.831L19.248,425.272
	c4.385,3.165,9.768,5.036,15.589,5.036h152.169l316.837-316.836v-5.102C503.843,93.635,491.899,81.691,477.163,81.691z"/>
<path d="M477.163,73.534H34.837C15.628,73.534,0,89.16,0,108.369v295.26c0,19.208,15.628,34.836,34.837,34.836h442.326
	c19.21,0,34.837-15.628,34.837-34.836v-295.26C512,89.16,496.372,73.534,477.163,73.534z M495.686,403.629
	c0,10.214-8.309,18.522-18.522,18.522H34.837c-10.214,0-18.522-8.309-18.522-18.522v-255.33h479.371V403.629z M495.686,131.984
	H16.314v-23.616c0-10.213,8.309-18.521,18.522-18.521h442.326c10.214,0,18.522,8.309,18.522,18.521v23.616H495.686z"/>
<g>
</g>
<g>
</g>
<g>
</g>
<g>
</g>
<g>
</g>
<g>
</g>
<g>
</g>
<g>
</g>
<g>
</g>
<g>
</g>
<g>
</g>
<g>
</g>
<g>
</g>
<g>
</g>
<g>
</g>
</svg>
