<?xml version="1.0" encoding="iso-8859-1"?>
<!-- Generator: Adobe Illustrator 19.0.0, SVG Export Plug-In . SVG Version: 6.00 Build 0)  -->
<svg version="1.1" id="Layer_1" xmlns="http://www.w3.org/2000/svg" xmlns:xlink="http://www.w3.org/1999/xlink" x="0px" y="0px"
	 viewBox="0 0 512.005 512.005" style="enable-background:new 0 0 512.005 512.005;" xml:space="preserve">
<rect x="0.007" y="22.719" style="fill:#CCCCCC;" width="511.993" height="378.994"/>
<polygon style="fill:#E6E6E6;" points="512,22.719 512,401.712 194.232,401.712 300.494,22.719 "/>
<rect x="0.007" y="22.719" style="fill:#F9C573;" width="511.993" height="57.15"/>
<polygon style="fill:#FCD8A9;" points="512,22.719 512,79.869 284.467,79.869 300.494,22.719 "/>
<rect y="74.274" style="fill:#B3B3B3;" width="512.005" height="11.182"/>
<circle style="fill:#F94B54;" cx="31.308" cy="52.531" r="9.318"/>
<circle style="fill:#61BCE0;" cx="91.565" cy="52.531" r="9.318"/>
<circle style="fill:#F2F2F2;" cx="61.437" cy="52.531" r="9.318"/>
<rect x="249.995" y="172.497" style="fill:#9BD7F4;" width="199.393" height="316.787"/>
<polygon style="fill:#C8EDFC;" points="449.389,172.5 449.389,489.286 288.499,489.286 377.318,172.5 "/>
<g>
	<rect x="36.913" y="118.018" style="fill:#4D4D4D;" width="294.449" height="18.636"/>
	<rect x="36.909" y="157.054" style="fill:#4D4D4D;" width="156.542" height="18.636"/>
	<rect x="36.909" y="196.09" style="fill:#4D4D4D;" width="38.514" height="18.636"/>
	<rect x="36.909" y="235.114" style="fill:#4D4D4D;" width="183.875" height="18.636"/>
	<rect x="36.909" y="274.15" style="fill:#4D4D4D;" width="93.18" height="18.636"/>
	<rect x="36.909" y="313.186" style="fill:#4D4D4D;" width="110.574" height="18.636"/>
	<rect x="36.913" y="352.21" style="fill:#4D4D4D;" width="181.39" height="18.636"/>
	<rect x="279.179" y="265.242" style="fill:#4D4D4D;" width="122.687" height="13.666"/>
	<rect x="279.179" y="295.395" style="fill:#4D4D4D;" width="82.011" height="13.666"/>
	<rect x="279.192" y="325.536" style="fill:#4D4D4D;" width="23.516" height="13.666"/>
	<rect x="279.179" y="355.676" style="fill:#4D4D4D;" width="95.553" height="13.666"/>
	<rect x="279.179" y="385.829" style="fill:#4D4D4D;" width="140.08" height="13.666"/>
	<rect x="279.179" y="415.97" style="fill:#4D4D4D;" width="59.225" height="13.666"/>
	<rect x="279.179" y="446.123" style="fill:#4D4D4D;" width="94.323" height="13.666"/>
</g>
<rect x="249.995" y="172.497" style="fill:#F94B54;" width="199.393" height="59.635"/>
<polygon style="fill:#F98791;" points="449.389,172.5 449.389,232.135 360.595,232.135 377.318,172.5 "/>
<circle style="fill:#F9C573;" cx="280.546" cy="202.911" r="9.318"/>
<circle style="fill:#61BCE0;" cx="340.802" cy="202.911" r="9.318"/>
<circle style="fill:#F2F2F2;" cx="310.674" cy="202.911" r="9.318"/>
<g>
	<polygon style="fill:#808080;" points="208.115,352.213 218.303,352.213 218.303,370.849 202.885,370.849 	"/>
	<polygon style="fill:#808080;" points="331.361,118.02 331.361,136.656 268.558,136.656 273.776,118.02 	"/>
	<polygon style="fill:#808080;" points="338.406,429.639 305.221,429.639 309.048,415.973 338.406,415.973 	"/>
	<polygon style="fill:#808080;" points="361.191,309.064 339.027,309.064 342.866,295.398 361.191,295.398 	"/>
	<polygon style="fill:#808080;" points="300.6,446.126 373.504,446.126 373.504,459.792 296.773,459.792 	"/>
	<polygon style="fill:#808080;" points="374.734,369.345 322.13,369.345 325.957,355.679 374.734,355.679 	"/>
	<polygon style="fill:#808080;" points="401.868,278.911 347.488,278.911 351.314,265.245 401.868,265.245 	"/>
	<polygon style="fill:#808080;" points="419.261,385.832 419.261,399.498 313.67,399.498 317.509,385.832 	"/>
</g>
<rect x="249.995" y="227.163" style="fill:#61BCE0;" width="199.393" height="9.939"/>
<g>
</g>
<g>
</g>
<g>
</g>
<g>
</g>
<g>
</g>
<g>
</g>
<g>
</g>
<g>
</g>
<g>
</g>
<g>
</g>
<g>
</g>
<g>
</g>
<g>
</g>
<g>
</g>
<g>
</g>
</svg>
