<?xml version="1.0" encoding="iso-8859-1"?>
<!-- Generator: Adobe Illustrator 19.0.0, SVG Export Plug-In . SVG Version: 6.00 Build 0)  -->
<svg xmlns="http://www.w3.org/2000/svg" xmlns:xlink="http://www.w3.org/1999/xlink" version="1.1" id="Layer_1" x="0px" y="0px" viewBox="0 0 502 502" style="enable-background:new 0 0 502 502;" xml:space="preserve" width="512px" height="512px">
<g>
	<g>
		<path d="M428.484,73.517C381.076,26.108,318.044,0,251,0S120.924,26.108,73.516,73.517C26.108,120.924,0,183.955,0,251    s26.108,130.076,73.516,177.483C120.924,475.892,183.956,502,251,502s130.076-26.108,177.484-73.517    C475.892,381.076,502,318.045,502,251S475.892,120.924,428.484,73.517z M251,482c-9.774,0-19.407-0.616-28.865-1.8l33.397-58.225    c2.748-4.791,1.092-10.902-3.699-13.65c-4.79-2.745-10.901-1.091-13.65,3.699l-37.023,64.545C97.665,453.718,20,361.266,20,251    c0-52.688,17.744-101.303,47.553-140.211L173.918,295.49c0.061,0.106,0.137,0.198,0.202,0.301    C189.572,322.212,218.246,340,251,340c49.075,0,89-39.925,89-89s-39.925-89-89-89c-44.214,0-80.995,32.409-87.849,74.718    L81.253,94.502C123.491,48.725,183.95,20,251,20c95.847,0,178.239,58.681,213.158,142H349c-5.523,0-10,4.478-10,10s4.477,10,10,10    h122.473C478.309,203.799,482,226.976,482,251C482,378.374,378.374,482,251,482z M182,251c0-38.047,30.953-69,69-69    s69,30.953,69,69s-30.953,69-69,69S182,289.047,182,251z" fill="#0eb493"/>
		<path d="M285.101,350.325c-4.791-2.745-10.901-1.09-13.65,3.699l-13.766,24c-2.748,4.791-1.092,10.902,3.699,13.65    c1.569,0.899,3.279,1.327,4.966,1.327c3.466,0,6.835-1.805,8.684-5.026l13.766-24    C291.547,359.185,289.891,353.073,285.101,350.325z" fill="#0eb493"/>
	</g>
</g>
<g>
</g>
<g>
</g>
<g>
</g>
<g>
</g>
<g>
</g>
<g>
</g>
<g>
</g>
<g>
</g>
<g>
</g>
<g>
</g>
<g>
</g>
<g>
</g>
<g>
</g>
<g>
</g>
<g>
</g>
</svg>
